Pinyon Script.ufo
<glyph name="exclam" format="1">
  <advance width="940"/>
  <unicode hex="0021"/>
  <outline>
    <contour>
      <point x="204" y="315" type="curve" smooth="yes" name="hr00"/>
      <point x="210" y="315"/>
      <point x="217" y="318"/>
      <point x="226" y="331" type="curve" smooth="yes"/>
      <point x="252" y="367"/>
      <point x="324" y="470"/>
      <point x="441" y="634" type="curve" smooth="yes"/>
      <point x="568" y="814"/>
      <point x="709" y="1020"/>
      <point x="940" y="1279" type="curve"/>
      <point x="923" y="1276"/>
      <point x="883" y="1275"/>
      <point x="873" y="1275" type="curve" smooth="yes"/>
      <point x="820" y="1273"/>
      <point x="782" y="1276"/>
      <point x="766" y="1279" type="curve"/>
      <point x="725" y="1219" type="line" smooth="yes"/>
      <point x="634" y="1085"/>
      <point x="336" y="600"/>
      <point x="212" y="370" type="curve" smooth="yes"/>
      <point x="199" y="347"/>
      <point x="194" y="333"/>
      <point x="194" y="326" type="curve" smooth="yes"/>
      <point x="194" y="318"/>
      <point x="198" y="315"/>
    </contour>
    <contour>
      <point x="62" y="-2" type="curve" smooth="yes"/>
      <point x="111" y="-2"/>
      <point x="162" y="43"/>
      <point x="162" y="91" type="curve" smooth="yes"/>
      <point x="162" y="129"/>
      <point x="139" y="154"/>
      <point x="101" y="154" type="curve" smooth="yes"/>
      <point x="46" y="154"/>
      <point x="0" y="108"/>
      <point x="0" y="62" type="curve" smooth="yes"/>
      <point x="0" y="25"/>
      <point x="25" y="-2"/>
    </contour>
  </outline>
</glyph>
<glyph name="dollar" format="1">
  <advance width="1049"/>
  <unicode hex="0024"/>
  <outline>
    <contour>
      <point x="0" y="22" type="line" name="hr00"/>
      <point x="3" y="23"/>
      <point x="17" y="24"/>
      <point x="24" y="24" type="curve" smooth="yes"/>
      <point x="31" y="24"/>
      <point x="27" y="23"/>
      <point x="38" y="22" type="curve"/>
      <point x="231" y="282" type="line"/>
      <point x="259" y="276"/>
      <point x="290" y="275"/>
      <point x="324" y="280" type="curve" smooth="yes"/>
      <point x="500" y="309"/>
      <point x="670" y="480"/>
      <point x="670" y="674" type="curve" smooth="yes"/>
      <point x="670" y="713"/>
      <point x="652" y="768"/>
      <point x="630" y="817" type="curve"/>
      <point x="855" y="1119" type="line"/>
      <point x="902" y="1101"/>
      <point x="930" y="1067"/>
      <point x="930" y="1032" type="curve" smooth="yes"/>
      <point x="930" y="1027"/>
      <point x="930" y="1022"/>
      <point x="929" y="1018" type="curve"/>
      <point x="918" y="1028"/>
      <point x="904" y="1032"/>
      <point x="889" y="1029" type="curve" smooth="yes"/>
      <point x="863" y="1025"/>
      <point x="842" y="1001"/>
      <point x="842" y="972" type="curve" smooth="yes"/>
      <point x="842" y="944"/>
      <point x="865" y="930"/>
      <point x="895" y="935" type="curve" smooth="yes"/>
      <point x="938" y="942"/>
      <point x="969" y="987"/>
      <point x="969" y="1037" type="curve" smooth="yes"/>
      <point x="969" y="1087"/>
      <point x="931" y="1125"/>
      <point x="874" y="1144" type="curve"/>
      <point x="1049" y="1378" type="line"/>
      <point x="1043" y="1377"/>
      <point x="1038" y="1376"/>
      <point x="1032" y="1376" type="curve" smooth="yes"/>
      <point x="1023" y="1376"/>
      <point x="1016" y="1377"/>
      <point x="1010" y="1379" type="curve"/>
      <point x="841" y="1152" type="line"/>
      <point x="814" y="1156"/>
      <point x="784" y="1157"/>
      <point x="753" y="1153" type="curve"/>
      <point x="586" y="1126"/>
      <point x="472" y="996"/>
      <point x="472" y="870" type="curve" smooth="yes"/>
      <point x="472" y="823"/>
      <point x="482" y="776"/>
      <point x="506" y="722" type="curve" smooth="yes"/>
      <point x="508" y="717"/>
      <point x="510" y="713"/>
      <point x="511" y="709" type="curve"/>
      <point x="220" y="318" type="line"/>
      <point x="179" y="335"/>
      <point x="157" y="366"/>
      <point x="157" y="401" type="curve" smooth="yes"/>
      <point x="157" y="406"/>
      <point x="156" y="411"/>
      <point x="157" y="416" type="curve"/>
      <point x="168" y="405"/>
      <point x="182" y="402"/>
      <point x="198" y="405" type="curve"/>
      <point x="222" y="408"/>
      <point x="244" y="432"/>
      <point x="244" y="461" type="curve" smooth="yes"/>
      <point x="244" y="490"/>
      <point x="221" y="504"/>
      <point x="191" y="499" type="curve" smooth="yes"/>
      <point x="148" y="492"/>
      <point x="117" y="447"/>
      <point x="117" y="396" type="curve" smooth="yes"/>
      <point x="117" y="348"/>
      <point x="149" y="310"/>
      <point x="200" y="291" type="curve"/>
    </contour>
    <contour>
      <point x="329" y="308" type="curve"/>
      <point x="299" y="304"/>
      <point x="274" y="304"/>
      <point x="251" y="309" type="curve"/>
      <point x="524" y="676" type="line"/>
      <point x="544" y="625"/>
      <point x="554" y="586"/>
      <point x="554" y="552" type="curve" smooth="yes"/>
      <point x="554" y="413"/>
      <point x="421" y="323"/>
    </contour>
    <contour>
      <point x="616" y="848" type="line"/>
      <point x="597" y="889"/>
      <point x="588" y="928"/>
      <point x="588" y="960" type="curve" smooth="yes"/>
      <point x="588" y="1026"/>
      <point x="675" y="1116"/>
      <point x="749" y="1129" type="curve"/>
      <point x="776" y="1132"/>
      <point x="801" y="1132"/>
      <point x="823" y="1128" type="curve"/>
    </contour>
  </outline>
</glyph>
<glyph name="quotesingle" format="1">
  <advance width="378"/>
  <unicode hex="0027"/>
  <outline>
    <contour>
      <point x="12" y="1164" type="curve" smooth="yes" name="hr00"/>
      <point x="19" y="1164"/>
      <point x="35" y="1170"/>
      <point x="208" y="1373" type="curve" smooth="yes"/>
      <point x="357" y="1548"/>
      <point x="378" y="1567"/>
      <point x="378" y="1605" type="curve" smooth="yes"/>
      <point x="378" y="1629"/>
      <point x="368" y="1646"/>
      <point x="329" y="1645" type="curve" smooth="yes"/>
      <point x="269" y="1643"/>
      <point x="236" y="1620"/>
      <point x="168" y="1495" type="curve"/>
      <point x="137" y="1432"/>
      <point x="144" y="1450"/>
      <point x="20" y="1220" type="curve" smooth="yes"/>
      <point x="8" y="1198"/>
      <point x="0" y="1183"/>
      <point x="0" y="1175" type="curve" smooth="yes"/>
      <point x="0" y="1167"/>
      <point x="7" y="1164"/>
    </contour>
  </outline>
</glyph>
<glyph name="parenright" format="1">
  <advance width="894"/>
  <unicode hex="0029"/>
  <outline>
    <contour>
      <point x="11" y="-187" type="curve" smooth="yes"/>
      <point x="20" y="-187"/>
      <point x="26" y="-184"/>
      <point x="50" y="-174" type="curve" smooth="yes"/>
      <point x="545" y="41"/>
      <point x="911" y="490"/>
      <point x="893" y="994" type="curve"/>
      <point x="889" y="1164"/>
      <point x="840" y="1292"/>
      <point x="775" y="1397" type="curve"/>
      <point x="761" y="1417"/>
      <point x="759" y="1419"/>
      <point x="753" y="1419" type="curve"/>
      <point x="748" y="1418"/>
      <point x="743" y="1413"/>
      <point x="743" y="1408" type="curve" smooth="yes"/>
      <point x="744" y="1400"/>
      <point x="748" y="1387"/>
      <point x="750" y="1378" type="curve"/>
      <point x="778" y="1289"/>
      <point x="801" y="1194"/>
      <point x="805" y="1085" type="curve"/>
      <point x="819" y="606"/>
      <point x="567" y="132"/>
      <point x="19" y="-161" type="curve" smooth="yes"/>
      <point x="0" y="-171"/>
      <point x="1" y="-172"/>
      <point x="1" y="-178" type="curve" smooth="yes" name="hr00"/>
      <point x="1" y="-184"/>
      <point x="5" y="-187"/>
    </contour>
  </outline>
</glyph>
<glyph name="comma" format="1">
  <advance width="331"/>
  <unicode hex="002C"/>
  <outline>
    <contour>
      <point x="19" y="-213" type="curve" smooth="yes"/>
      <point x="42" y="-213"/>
      <point x="110" y="-186"/>
      <point x="165" y="-143" type="curve" smooth="yes"/>
      <point x="298" y="-38"/>
      <point x="331" y="43"/>
      <point x="331" y="105" type="curve" smooth="yes"/>
      <point x="331" y="155"/>
      <point x="307" y="182"/>
      <point x="267" y="182" type="curve" smooth="yes"/>
      <point x="209" y="182"/>
      <point x="171" y="130"/>
      <point x="171" y="90" type="curve" smooth="yes"/>
      <point x="171" y="75"/>
      <point x="173" y="59"/>
      <point x="180" y="35" type="curve" smooth="yes" name="hr00"/>
      <point x="185" y="21"/>
      <point x="190" y="0"/>
      <point x="190" y="-21" type="curve" smooth="yes"/>
      <point x="190" y="-65"/>
      <point x="92" y="-161"/>
      <point x="21" y="-185" type="curve"/>
      <point x="4" y="-189"/>
      <point x="0" y="-195"/>
      <point x="0" y="-201" type="curve" smooth="yes"/>
      <point x="0" y="-211"/>
      <point x="8" y="-213"/>
    </contour>
  </outline>
</glyph>
<glyph name="two" format="1">
  <advance width="1352"/>
  <unicode hex="0032"/>
  <outline>
    <contour>
      <point x="11" y="-58" type="curve" smooth="yes"/>
      <point x="15" y="-58"/>
      <point x="32" y="-55"/>
      <point x="36" y="-47" type="curve" smooth="yes"/>
      <point x="40" y="-36"/>
      <point x="40" y="-28"/>
      <point x="43" y="-23" type="curve" smooth="yes"/>
      <point x="97" y="73"/>
      <point x="268" y="169"/>
      <point x="401" y="169" type="curve" smooth="yes"/>
      <point x="459" y="169"/>
      <point x="548" y="155"/>
      <point x="649" y="72" type="curve" smooth="yes"/>
      <point x="715" y="19"/>
      <point x="765" y="-2"/>
      <point x="836" y="-2" type="curve" smooth="yes"/>
      <point x="949" y="-2"/>
      <point x="1016" y="38"/>
      <point x="1088" y="109" type="curve"/>
      <point x="1143" y="166"/>
      <point x="1199" y="261"/>
      <point x="1199" y="309" type="curve" smooth="yes"/>
      <point x="1199" y="329"/>
      <point x="1192" y="336"/>
      <point x="1184" y="336" type="curve" smooth="yes"/>
      <point x="1173" y="336"/>
      <point x="1178" y="312"/>
      <point x="1170" y="294" type="curve"/>
      <point x="1127" y="172"/>
      <point x="1031" y="108"/>
      <point x="934" y="108" type="curve" smooth="yes"/>
      <point x="887" y="108"/>
      <point x="845" y="125"/>
      <point x="784" y="165" type="curve" smooth="yes"/>
      <point x="711" y="213"/>
      <point x="640" y="234"/>
      <point x="544" y="234" type="curve" smooth="yes"/>
      <point x="413" y="234"/>
      <point x="308" y="214"/>
      <point x="146" y="123" type="curve"/>
      <point x="255" y="226"/>
      <point x="342" y="266"/>
      <point x="642" y="399" type="curve"/>
      <point x="1096" y="598"/>
      <point x="1352" y="870"/>
      <point x="1352" y="1137" type="curve" smooth="yes"/>
      <point x="1352" y="1289"/>
      <point x="1261" y="1410"/>
      <point x="1074" y="1410" type="curve" smooth="yes"/>
      <point x="732" y="1410"/>
      <point x="399" y="1058"/>
      <point x="399" y="809" type="curve" smooth="yes"/>
      <point x="399" y="749"/>
      <point x="421" y="655"/>
      <point x="567" y="655" type="curve" smooth="yes"/>
      <point x="626" y="655"/>
      <point x="701" y="685"/>
      <point x="766" y="738" type="curve" smooth="yes"/>
      <point x="863" y="816"/>
      <point x="924" y="898"/>
      <point x="924" y="921" type="curve" smooth="yes"/>
      <point x="924" y="926"/>
      <point x="920" y="929"/>
      <point x="915" y="929" type="curve" smooth="yes"/>
      <point x="909" y="929"/>
      <point x="903" y="928"/>
      <point x="892" y="911" type="curve" smooth="yes"/>
      <point x="796" y="773"/>
      <point x="668" y="682"/>
      <point x="567" y="682" type="curve" smooth="yes"/>
      <point x="504" y="682"/>
      <point x="471" y="724"/>
      <point x="471" y="779" type="curve" smooth="yes"/>
      <point x="471" y="953"/>
      <point x="789" y="1383"/>
      <point x="1067" y="1383" type="curve" smooth="yes"/>
      <point x="1168" y="1383"/>
      <point x="1221" y="1343"/>
      <point x="1221" y="1186" type="curve" smooth="yes"/>
      <point x="1221" y="940"/>
      <point x="1005" y="633"/>
      <point x="554" y="409" type="curve"/>
      <point x="334" y="301"/>
      <point x="194" y="207"/>
      <point x="108" y="129" type="curve" smooth="yes"/>
      <point x="35" y="63"/>
      <point x="0" y="-2"/>
      <point x="0" y="-36" type="curve" smooth="yes" name="hr00"/>
      <point x="0" y="-52"/>
      <point x="5" y="-58"/>
    </contour>
  </outline>
</glyph>
<glyph name="five" format="1">
  <advance width="1746"/>
  <unicode hex="0035"/>
  <outline>
    <contour>
      <point x="338" y="-317" type="curve" smooth="yes"/>
      <point x="807" y="-317"/>
      <point x="1282" y="111"/>
      <point x="1298" y="507" type="curve" smooth="yes"/>
      <point x="1306" y="720"/>
      <point x="1186" y="836"/>
      <point x="981" y="836" type="curve" smooth="yes"/>
      <point x="921" y="836"/>
      <point x="845" y="818"/>
      <point x="794" y="789" type="curve"/>
      <point x="823" y="835"/>
      <point x="1000" y="1146"/>
      <point x="1043" y="1231" type="curve"/>
      <point x="1079" y="1269"/>
      <point x="1136" y="1295"/>
      <point x="1183" y="1295" type="curve" smooth="yes"/>
      <point x="1217" y="1295"/>
      <point x="1246" y="1286"/>
      <point x="1292" y="1271" type="curve" smooth="yes"/>
      <point x="1332" y="1259"/>
      <point x="1363" y="1255"/>
      <point x="1395" y="1255" type="curve" smooth="yes" name="hr03"/>
      <point x="1558" y="1255"/>
      <point x="1679" y="1344"/>
      <point x="1738" y="1465" type="curve" smooth="yes"/>
      <point x="1742" y="1472"/>
      <point x="1746" y="1485"/>
      <point x="1746" y="1490" type="curve" smooth="yes"/>
      <point x="1746" y="1498"/>
      <point x="1742" y="1500"/>
      <point x="1737" y="1500" type="curve" smooth="yes"/>
      <point x="1731" y="1500"/>
      <point x="1727" y="1497"/>
      <point x="1723" y="1489" type="curve" smooth="yes"/>
      <point x="1720" y="1481"/>
      <point x="1714" y="1471"/>
      <point x="1710" y="1465" type="curve" smooth="yes"/>
      <point x="1650" y="1382"/>
      <point x="1593" y="1370"/>
      <point x="1529" y="1370" type="curve" smooth="yes"/>
      <point x="1500" y="1370"/>
      <point x="1466" y="1377"/>
      <point x="1426" y="1391" type="curve"/>
      <point x="1395" y="1400"/>
      <point x="1356" y="1410"/>
      <point x="1322" y="1410" type="curve" smooth="yes"/>
      <point x="1241" y="1410"/>
      <point x="1147" y="1364"/>
      <point x="1076" y="1297" type="curve"/>
      <point x="1101" y="1344"/>
      <point x="1123" y="1391"/>
      <point x="1127" y="1400" type="curve" name="hr04"/>
      <point x="1044" y="1396" type="line"/>
      <point x="954" y="1204"/>
      <point x="791" y="911"/>
      <point x="686" y="730" type="curve"/>
      <point x="618" y="677"/>
      <point x="551" y="598"/>
      <point x="542" y="562" type="curve" smooth="yes"/>
      <point x="540" y="553"/>
      <point x="546" y="551"/>
      <point x="552" y="551" type="curve"/>
      <point x="558" y="549"/>
      <point x="567" y="552"/>
      <point x="581" y="575" type="curve" smooth="yes"/>
      <point x="656" y="695"/>
      <point x="811" y="795"/>
      <point x="956" y="795" type="curve" smooth="yes"/>
      <point x="1083" y="795"/>
      <point x="1161" y="736"/>
      <point x="1161" y="581" type="curve" smooth="yes"/>
      <point x="1161" y="231"/>
      <point x="773" y="-288"/>
      <point x="344" y="-288" type="curve" smooth="yes"/>
      <point x="213" y="-288"/>
      <point x="118" y="-258"/>
      <point x="81" y="-204" type="curve" smooth="yes"/>
      <point x="71" y="-190"/>
      <point x="61" y="-172"/>
      <point x="57" y="-161" type="curve" smooth="yes" name="hr01"/>
      <point x="51" y="-145"/>
      <point x="45" y="-135"/>
      <point x="27" y="-135" type="curve" smooth="yes"/>
      <point x="12" y="-135"/>
      <point x="0" y="-146"/>
      <point x="0" y="-165" type="curve" smooth="yes"/>
      <point x="0" y="-193"/>
      <point x="24" y="-229"/>
      <point x="71" y="-258" type="curve"/>
      <point x="131" y="-292"/>
      <point x="220" y="-317"/>
    </contour>
  </outline>
</glyph>
<glyph name="six" format="1">
  <advance width="1207"/>
  <unicode hex="0036"/>
  <outline>
    <contour>
      <point x="249" y="-5" type="curve" smooth="yes"/>
      <point x="518" y="-5"/>
      <point x="933" y="316"/>
      <point x="943" y="711" type="curve"/>
      <point x="944" y="841"/>
      <point x="878" y="917"/>
      <point x="757" y="917" type="curve" smooth="yes"/>
      <point x="545" y="917"/>
      <point x="334" y="684"/>
      <point x="329" y="481" type="curve" smooth="yes"/>
      <point x="329" y="470"/>
      <point x="335" y="461"/>
      <point x="341" y="461" type="curve" smooth="yes"/>
      <point x="349" y="461"/>
      <point x="353" y="466"/>
      <point x="357" y="488" type="curve" smooth="yes"/>
      <point x="391" y="685"/>
      <point x="642" y="891"/>
      <point x="748" y="891" type="curve" smooth="yes"/>
      <point x="808" y="891"/>
      <point x="840" y="853"/>
      <point x="839" y="776" type="curve" smooth="yes"/>
      <point x="837" y="662"/>
      <point x="770" y="505"/>
      <point x="674" y="366" type="curve"/>
      <point x="491" y="105"/>
      <point x="358" y="24"/>
      <point x="243" y="24" type="curve" smooth="yes"/>
      <point x="155" y="24"/>
      <point x="116" y="98"/>
      <point x="118" y="223" type="curve" smooth="yes"/>
      <point x="125" y="581"/>
      <point x="540" y="1383"/>
      <point x="993" y="1383" type="curve" smooth="yes"/>
      <point x="1074" y="1383"/>
      <point x="1122" y="1354"/>
      <point x="1120" y="1319" type="curve"/>
      <point x="1120" y="1302"/>
      <point x="1112" y="1292"/>
      <point x="1087" y="1279" type="curve"/>
      <point x="1055" y="1260"/>
      <point x="1039" y="1236"/>
      <point x="1038" y="1207" type="curve" smooth="yes"/>
      <point x="1038" y="1178"/>
      <point x="1062" y="1147"/>
      <point x="1107" y="1147" type="curve" smooth="yes"/>
      <point x="1158" y="1147"/>
      <point x="1205" y="1200"/>
      <point x="1206" y="1270" type="curve"/>
      <point x="1208" y="1332"/>
      <point x="1140" y="1410"/>
      <point x="986" y="1410" type="curve" smooth="yes"/>
      <point x="533" y="1410"/>
      <point x="10" y="768"/>
      <point x="1" y="341" type="curve" smooth="yes" name="hr00"/>
      <point x="-3" y="141"/>
      <point x="68" y="-5"/>
    </contour>
  </outline>
</glyph>
<glyph name="colon" format="1">
  <advance width="405"/>
  <unicode hex="003A"/>
  <outline>
    <contour>
      <point x="285" y="468" type="curve" smooth="yes" name="hr01"/>
      <point x="344" y="468"/>
      <point x="405" y="521"/>
      <point x="405" y="578" type="curve" smooth="yes"/>
      <point x="405" y="622"/>
      <point x="378" y="652"/>
      <point x="333" y="652" type="curve" smooth="yes"/>
      <point x="268" y="652"/>
      <point x="214" y="597"/>
      <point x="214" y="542" type="curve" smooth="yes"/>
      <point x="214" y="498"/>
      <point x="244" y="468"/>
    </contour>
    <contour>
      <point x="71" y="22" type="curve" smooth="yes"/>
      <point x="130" y="22"/>
      <point x="191" y="75"/>
      <point x="191" y="132" type="curve" smooth="yes" name="hr03"/>
      <point x="191" y="176"/>
      <point x="164" y="206"/>
      <point x="119" y="206" type="curve" smooth="yes"/>
      <point x="54" y="206"/>
      <point x="0" y="151"/>
      <point x="0" y="96" type="curve" smooth="yes"/>
      <point x="0" y="52"/>
      <point x="30" y="22"/>
    </contour>
  </outline>
</glyph>
<glyph name="semicolon" format="1">
  <advance width="544"/>
  <unicode hex="003B"/>
  <outline>
    <contour>
      <point x="19" y="-189" type="curve" smooth="yes"/>
      <point x="42" y="-189"/>
      <point x="110" y="-162"/>
      <point x="165" y="-119" type="curve" smooth="yes"/>
      <point x="298" y="-14"/>
      <point x="331" y="67"/>
      <point x="331" y="129" type="curve" smooth="yes" name="hr03"/>
      <point x="331" y="179"/>
      <point x="307" y="206"/>
      <point x="267" y="206" type="curve" smooth="yes"/>
      <point x="209" y="206"/>
      <point x="171" y="154"/>
      <point x="171" y="114" type="curve" smooth="yes"/>
      <point x="171" y="99"/>
      <point x="173" y="83"/>
      <point x="180" y="59" type="curve" smooth="yes"/>
      <point x="185" y="45"/>
      <point x="190" y="24"/>
      <point x="190" y="3" type="curve" smooth="yes"/>
      <point x="190" y="-41"/>
      <point x="92" y="-137"/>
      <point x="21" y="-161" type="curve"/>
      <point x="4" y="-165"/>
      <point x="0" y="-171"/>
      <point x="0" y="-177" type="curve" smooth="yes"/>
      <point x="0" y="-187"/>
      <point x="8" y="-189"/>
    </contour>
    <contour>
      <point x="424" y="468" type="curve" smooth="yes" name="hr01"/>
      <point x="483" y="468"/>
      <point x="544" y="521"/>
      <point x="544" y="578" type="curve" smooth="yes"/>
      <point x="544" y="622"/>
      <point x="517" y="652"/>
      <point x="472" y="652" type="curve" smooth="yes"/>
      <point x="407" y="652"/>
      <point x="353" y="597"/>
      <point x="353" y="542" type="curve" smooth="yes"/>
      <point x="353" y="498"/>
      <point x="383" y="468"/>
    </contour>
  </outline>
</glyph>
<glyph name="greater" format="1">
  <advance width="580"/>
  <unicode hex="003E"/>
  <outline>
    <contour>
      <point x="26" y="154" type="curve"/>
      <point x="580" y="412" type="line"/>
      <point x="115" y="656" type="line"/>
      <point x="105" y="646"/>
      <point x="85" y="628"/>
      <point x="72" y="616" type="curve"/>
      <point x="462" y="414" type="line"/>
      <point x="0" y="204" type="line" name="hr00"/>
      <point x="7" y="194"/>
      <point x="24" y="164"/>
    </contour>
  </outline>
</glyph>
<glyph name="B" format="1">
  <advance width="2061"/>
  <unicode hex="0042"/>
  <outline>
    <contour>
      <point x="212" y="-2" type="curve" smooth="yes" name="hr01"/>
      <point x="286" y="-2"/>
      <point x="358" y="3"/>
      <point x="432" y="32" type="curve"/>
      <point x="645" y="120"/>
      <point x="882" y="316"/>
      <point x="1133" y="652" type="curve" smooth="yes"/>
      <point x="1341" y="931"/>
      <point x="1492" y="1090"/>
      <point x="1658" y="1214" type="curve" smooth="yes"/>
      <point x="1691" y="1238"/>
      <point x="1722" y="1260"/>
      <point x="1752" y="1277" type="curve"/>
      <point x="1779" y="1242"/>
      <point x="1794" y="1200"/>
      <point x="1794" y="1153" type="curve" smooth="yes"/>
      <point x="1794" y="928"/>
      <point x="1622" y="753"/>
      <point x="1454" y="671" type="curve"/>
      <point x="1420" y="688"/>
      <point x="1379" y="698"/>
      <point x="1332" y="698" type="curve" smooth="yes"/>
      <point x="1247" y="698"/>
      <point x="1168" y="666"/>
      <point x="1168" y="634" type="curve" smooth="yes"/>
      <point x="1168" y="613"/>
      <point x="1200" y="588"/>
      <point x="1262" y="588" type="curve" smooth="yes" name="hr03"/>
      <point x="1326" y="588"/>
      <point x="1393" y="601"/>
      <point x="1459" y="623" type="curve"/>
      <point x="1469" y="607"/>
      <point x="1474" y="585"/>
      <point x="1474" y="559" type="curve" smooth="yes"/>
      <point x="1474" y="261"/>
      <point x="1210" y="26"/>
      <point x="1020" y="26" type="curve" smooth="yes"/>
      <point x="912" y="26"/>
      <point x="883" y="68"/>
      <point x="883" y="108" type="curve" smooth="yes"/>
      <point x="883" y="246"/>
      <point x="1149" y="443"/>
      <point x="1358" y="443" type="curve" smooth="yes"/>
      <point x="1376" y="443"/>
      <point x="1389" y="447"/>
      <point x="1389" y="457" type="curve" smooth="yes"/>
      <point x="1389" y="462"/>
      <point x="1381" y="469"/>
      <point x="1368" y="469" type="curve" smooth="yes"/>
      <point x="1117" y="469"/>
      <point x="850" y="247"/>
      <point x="850" y="109" type="curve" smooth="yes"/>
      <point x="850" y="59"/>
      <point x="888" y="-2"/>
      <point x="1016" y="-2" type="curve" smooth="yes"/>
      <point x="1303" y="-2"/>
      <point x="1582" y="212"/>
      <point x="1582" y="439" type="curve" smooth="yes"/>
      <point x="1582" y="524"/>
      <point x="1554" y="594"/>
      <point x="1502" y="640" type="curve"/>
      <point x="1712" y="725"/>
      <point x="1898" y="905"/>
      <point x="1898" y="1083" type="curve" smooth="yes"/>
      <point x="1898" y="1173"/>
      <point x="1864" y="1248"/>
      <point x="1804" y="1305" type="curve"/>
      <point x="1960" y="1384"/>
      <point x="2061" y="1377"/>
      <point x="2061" y="1390" type="curve" smooth="yes"/>
      <point x="2061" y="1398"/>
      <point x="2049" y="1400"/>
      <point x="2028" y="1400" type="curve" smooth="yes"/>
      <point x="1968" y="1400"/>
      <point x="1883" y="1378"/>
      <point x="1778" y="1328" type="curve"/>
      <point x="1683" y="1401"/>
      <point x="1538" y="1440"/>
      <point x="1362" y="1440" type="curve" smooth="yes"/>
      <point x="868" y="1440"/>
      <point x="374" y="1066"/>
      <point x="374" y="741" type="curve" smooth="yes"/>
      <point x="374" y="642"/>
      <point x="451" y="600"/>
      <point x="531" y="600" type="curve" smooth="yes" name="hr04"/>
      <point x="844" y="600"/>
      <point x="1209" y="883"/>
      <point x="1209" y="1270" type="curve" smooth="yes"/>
      <point x="1209" y="1282"/>
      <point x="1205" y="1292"/>
      <point x="1198" y="1292" type="curve" smooth="yes"/>
      <point x="1190" y="1292"/>
      <point x="1189" y="1287"/>
      <point x="1184" y="1260" type="curve"/>
      <point x="1137" y="911"/>
      <point x="768" y="622"/>
      <point x="541" y="622" type="curve" smooth="yes"/>
      <point x="465" y="622"/>
      <point x="404" y="658"/>
      <point x="404" y="738" type="curve" smooth="yes"/>
      <point x="404" y="926"/>
      <point x="730" y="1246"/>
      <point x="1051" y="1363" type="curve"/>
      <point x="1144" y="1398"/>
      <point x="1257" y="1418"/>
      <point x="1350" y="1418" type="curve" smooth="yes"/>
      <point x="1521" y="1418"/>
      <point x="1656" y="1377"/>
      <point x="1730" y="1303" type="curve"/>
      <point x="1550" y="1207"/>
      <point x="1319" y="1030"/>
      <point x="1064" y="738" type="curve"/>
      <point x="499" y="111"/>
      <point x="388" y="24"/>
      <point x="220" y="24" type="curve" smooth="yes"/>
      <point x="109" y="24"/>
      <point x="39" y="70"/>
      <point x="39" y="135" type="curve" smooth="yes"/>
      <point x="39" y="141" type="line"/>
      <point x="52" y="132"/>
      <point x="70" y="131"/>
      <point x="87" y="131" type="curve" smooth="yes"/>
      <point x="117" y="131"/>
      <point x="143" y="154"/>
      <point x="143" y="180" type="curve" smooth="yes"/>
      <point x="143" y="213"/>
      <point x="115" y="226"/>
      <point x="93" y="226" type="curve" smooth="yes"/>
      <point x="52" y="226"/>
      <point x="0" y="203"/>
      <point x="0" y="142" type="curve" smooth="yes"/>
      <point x="0" y="63"/>
      <point x="95" y="-2"/>
    </contour>
    <contour>
      <point x="1263" y="620" type="curve" smooth="yes"/>
      <point x="1238" y="620"/>
      <point x="1219" y="632"/>
      <point x="1219" y="642" type="curve" smooth="yes" name="hr06"/>
      <point x="1219" y="658"/>
      <point x="1270" y="675"/>
      <point x="1333" y="675" type="curve" smooth="yes"/>
      <point x="1369" y="675"/>
      <point x="1400" y="670"/>
      <point x="1423" y="657" type="curve"/>
      <point x="1366" y="633"/>
      <point x="1310" y="620"/>
    </contour>
  </outline>
</glyph>
<glyph name="D" format="1">
  <advance width="2018"/>
  <unicode hex="0044"/>
  <outline>
    <contour>
      <point x="180" y="-6" type="curve" smooth="yes"/>
      <point x="314" y="-6"/>
      <point x="432" y="13"/>
      <point x="538" y="49" type="curve"/>
      <point x="663" y="13"/>
      <point x="745" y="-2"/>
      <point x="845" y="-2" type="curve" smooth="yes"/>
      <point x="1287" y="-2"/>
      <point x="1702" y="350"/>
      <point x="1702" y="840" type="curve" smooth="yes"/>
      <point x="1702" y="951"/>
      <point x="1676" y="1048"/>
      <point x="1628" y="1128" type="curve"/>
      <point x="1743" y="1227"/>
      <point x="1865" y="1290"/>
      <point x="1985" y="1305" type="curve"/>
      <point x="2015" y="1310"/>
      <point x="2018" y="1312"/>
      <point x="2018" y="1320" type="curve" smooth="yes"/>
      <point x="2018" y="1326"/>
      <point x="2012" y="1330"/>
      <point x="2003" y="1330" type="curve" smooth="yes"/>
      <point x="1877" y="1324"/>
      <point x="1725" y="1260"/>
      <point x="1594" y="1178" type="curve"/>
      <point x="1489" y="1309"/>
      <point x="1313" y="1384"/>
      <point x="1082" y="1384" type="curve" smooth="yes"/>
      <point x="631" y="1384"/>
      <point x="267" y="1078"/>
      <point x="267" y="780" type="curve" smooth="yes"/>
      <point x="267" y="654"/>
      <point x="389" y="569"/>
      <point x="512" y="569" type="curve" smooth="yes"/>
      <point x="855" y="569"/>
      <point x="1179" y="887"/>
      <point x="1179" y="1175" type="curve" smooth="yes"/>
      <point x="1179" y="1192"/>
      <point x="1173" y="1196"/>
      <point x="1167" y="1196" type="curve" smooth="yes"/>
      <point x="1161" y="1196"/>
      <point x="1158" y="1191"/>
      <point x="1156" y="1173" type="curve"/>
      <point x="1138" y="903"/>
      <point x="721" y="597"/>
      <point x="515" y="597" type="curve" smooth="yes"/>
      <point x="394" y="597"/>
      <point x="325" y="661"/>
      <point x="325" y="757" type="curve" smooth="yes"/>
      <point x="325" y="991"/>
      <point x="691" y="1360"/>
      <point x="1088" y="1360" type="curve" smooth="yes"/>
      <point x="1295" y="1360"/>
      <point x="1464" y="1298"/>
      <point x="1557" y="1154" type="curve"/>
      <point x="1502" y="1117"/>
      <point x="1452" y="1077"/>
      <point x="1410" y="1037" type="curve" smooth="yes"/>
      <point x="1262" y="899"/>
      <point x="1164" y="773"/>
      <point x="1049" y="634" type="curve" smooth="yes"/>
      <point x="796" y="327"/>
      <point x="635" y="171"/>
      <point x="496" y="95" type="curve"/>
      <point x="491" y="97"/>
      <point x="487" y="97"/>
      <point x="483" y="99" type="curve" name="hr03"/>
      <point x="344" y="140"/>
      <point x="275" y="154"/>
      <point x="206" y="154" type="curve" smooth="yes"/>
      <point x="72" y="154"/>
      <point x="0" y="107"/>
      <point x="0" y="68" type="curve" smooth="yes" name="hr01"/>
      <point x="0" y="31"/>
      <point x="50" y="-6"/>
    </contour>
    <contour>
      <point x="197" y="26" type="curve" smooth="yes"/>
      <point x="80" y="26"/>
      <point x="28" y="39"/>
      <point x="28" y="68" type="curve" smooth="yes" name="hr05"/>
      <point x="28" y="90"/>
      <point x="85" y="111"/>
      <point x="199" y="111" type="curve" smooth="yes"/>
      <point x="285" y="111"/>
      <point x="363" y="96"/>
      <point x="451" y="73" type="curve"/>
      <point x="367" y="36"/>
      <point x="287" y="26"/>
    </contour>
    <contour>
      <point x="850" y="28" type="curve" smooth="yes"/>
      <point x="733" y="28"/>
      <point x="654" y="46"/>
      <point x="585" y="67" type="curve"/>
      <point x="923" y="200"/>
      <point x="1138" y="501"/>
      <point x="1369" y="834" type="curve" smooth="yes"/>
      <point x="1438" y="934"/>
      <point x="1512" y="1022"/>
      <point x="1589" y="1094" type="curve"/>
      <point x="1621" y="1024"/>
      <point x="1638" y="938"/>
      <point x="1638" y="836" type="curve" smooth="yes"/>
      <point x="1638" y="368"/>
      <point x="1242" y="28"/>
    </contour>
  </outline>
</glyph>
<glyph name="J" format="1">
  <advance width="2459"/>
  <unicode hex="004A"/>
  <outline>
    <contour>
      <point x="92" y="-741" type="curve" smooth="yes"/>
      <point x="320" y="-741"/>
      <point x="597" y="-557"/>
      <point x="1085" y="49" type="curve"/>
      <point x="1358" y="124"/>
      <point x="1405" y="145"/>
      <point x="1527" y="196" type="curve" smooth="yes"/>
      <point x="1554" y="207"/>
      <point x="1560" y="215"/>
      <point x="1561" y="223" type="curve" smooth="yes"/>
      <point x="1561" y="228"/>
      <point x="1552" y="231"/>
      <point x="1552" y="231" type="curve"/>
      <point x="1547" y="231"/>
      <point x="1539" y="225"/>
      <point x="1511" y="213" type="curve"/>
      <point x="1340" y="147"/>
      <point x="1314" y="144"/>
      <point x="1119" y="92" type="curve"/>
      <point x="1174" y="160"/>
      <point x="1231" y="234"/>
      <point x="1290" y="313" type="curve"/>
      <point x="1300" y="313" type="line" smooth="yes"/>
      <point x="1636" y="313"/>
      <point x="2002" y="692"/>
      <point x="2002" y="1020" type="curve" smooth="yes"/>
      <point x="2002" y="1044"/>
      <point x="2001" y="1066"/>
      <point x="1991" y="1066" type="curve" smooth="yes" name="hr03"/>
      <point x="1987" y="1066"/>
      <point x="1980" y="1059"/>
      <point x="1980" y="1035" type="curve" smooth="yes"/>
      <point x="1980" y="750"/>
      <point x="1589" y="340"/>
      <point x="1311" y="340" type="curve"/>
      <point x="1384" y="438"/>
      <point x="1462" y="543"/>
      <point x="1545" y="658" type="curve"/>
      <point x="1809" y="1060"/>
      <point x="2073" y="1304"/>
      <point x="2302" y="1360" type="curve"/>
      <point x="2321" y="1360"/>
      <point x="2343" y="1359"/>
      <point x="2367" y="1359" type="curve" smooth="yes" name="hr04"/>
      <point x="2403" y="1359"/>
      <point x="2459" y="1359"/>
      <point x="2459" y="1381" type="curve" smooth="yes"/>
      <point x="2459" y="1389"/>
      <point x="2449" y="1394"/>
      <point x="2421" y="1394" type="curve" smooth="yes"/>
      <point x="2385" y="1394"/>
      <point x="2352" y="1387"/>
      <point x="2319" y="1387" type="curve" smooth="yes"/>
      <point x="2265" y="1387"/>
      <point x="2201" y="1401"/>
      <point x="2135" y="1401" type="curve" smooth="yes"/>
      <point x="1565" y="1401"/>
      <point x="1024" y="1009"/>
      <point x="1024" y="581" type="curve" smooth="yes"/>
      <point x="1024" y="473"/>
      <point x="1084" y="391"/>
      <point x="1165" y="347" type="curve"/>
      <point x="1092" y="245"/>
      <point x="1018" y="143"/>
      <point x="944" y="46" type="curve" name="hr01"/>
      <point x="407" y="-102"/>
      <point x="0" y="-422"/>
      <point x="0" y="-649" type="curve" smooth="yes"/>
      <point x="0" y="-691"/>
      <point x="27" y="-741"/>
    </contour>
    <contour>
      <point x="95" y="-716" type="curve" smooth="yes"/>
      <point x="58" y="-716"/>
      <point x="32" y="-690"/>
      <point x="32" y="-656" type="curve" smooth="yes"/>
      <point x="32" y="-494"/>
      <point x="547" y="-125"/>
      <point x="910" y="1" type="curve"/>
      <point x="605" y="-398"/>
      <point x="306" y="-716"/>
    </contour>
    <contour>
      <point x="1183" y="373" type="line"/>
      <point x="1121" y="409"/>
      <point x="1079" y="473"/>
      <point x="1079" y="565" type="curve" smooth="yes"/>
      <point x="1079" y="910"/>
      <point x="1737" y="1375"/>
      <point x="2147" y="1375" type="curve" smooth="yes"/>
      <point x="2173" y="1375"/>
      <point x="2217" y="1372"/>
      <point x="2252" y="1367" type="curve"/>
      <point x="2044" y="1320"/>
      <point x="1677" y="1078"/>
      <point x="1304" y="545" type="curve" smooth="yes"/>
    </contour>
  </outline>
</glyph>
<glyph name="K" format="1">
  <advance width="2609"/>
  <unicode hex="004B"/>
  <outline>
    <contour>
      <point x="199" y="-2" type="curve" smooth="yes" name="hr01"/>
      <point x="432" y="-2"/>
      <point x="762" y="192"/>
      <point x="1107" y="651" type="curve"/>
      <point x="1574" y="1277"/>
      <point x="1771" y="1402"/>
      <point x="1857" y="1426" type="curve" smooth="yes"/>
      <point x="1863" y="1428"/>
      <point x="1867" y="1433"/>
      <point x="1867" y="1438" type="curve" smooth="yes"/>
      <point x="1867" y="1444"/>
      <point x="1861" y="1446"/>
      <point x="1853" y="1446" type="curve" smooth="yes"/>
      <point x="1822" y="1446"/>
      <point x="1745" y="1411"/>
      <point x="1551" y="1255" type="curve"/>
      <point x="1369" y="1101"/>
      <point x="1210" y="1011"/>
      <point x="1063" y="1011" type="curve" smooth="yes"/>
      <point x="1031" y="1011"/>
      <point x="1008" y="1025"/>
      <point x="1008" y="1043" type="curve" smooth="yes"/>
      <point x="1008" y="1065"/>
      <point x="1031" y="1075"/>
      <point x="1068" y="1099" type="curve" smooth="yes"/>
      <point x="1175" y="1166"/>
      <point x="1216" y="1243"/>
      <point x="1216" y="1311" type="curve" smooth="yes" name="hr03"/>
      <point x="1216" y="1368"/>
      <point x="1149" y="1411"/>
      <point x="1057" y="1411" type="curve" smooth="yes"/>
      <point x="739" y="1411"/>
      <point x="579" y="1110"/>
      <point x="549" y="996" type="curve" smooth="yes"/>
      <point x="547" y="990"/>
      <point x="547" y="987"/>
      <point x="547" y="980" type="curve" smooth="yes"/>
      <point x="547" y="968"/>
      <point x="552" y="962"/>
      <point x="558" y="962" type="curve" smooth="yes"/>
      <point x="564" y="962"/>
      <point x="566" y="969"/>
      <point x="572" y="988" type="curve"/>
      <point x="606" y="1142"/>
      <point x="798" y="1383"/>
      <point x="1050" y="1383" type="curve" smooth="yes"/>
      <point x="1117" y="1383"/>
      <point x="1159" y="1365"/>
      <point x="1159" y="1321" type="curve" smooth="yes"/>
      <point x="1159" y="1305"/>
      <point x="1145" y="1290"/>
      <point x="1112" y="1267" type="curve" smooth="yes"/>
      <point x="1012" y="1195"/>
      <point x="963" y="1130"/>
      <point x="963" y="1064" type="curve" smooth="yes"/>
      <point x="963" y="1010"/>
      <point x="1004" y="983"/>
      <point x="1063" y="983" type="curve" smooth="yes"/>
      <point x="1169" y="983"/>
      <point x="1277" y="1031"/>
      <point x="1403" y="1115" type="curve"/>
      <point x="1178" y="907"/>
      <point x="974" y="711"/>
      <point x="863" y="560" type="curve" smooth="yes"/>
      <point x="562" y="152"/>
      <point x="350" y="24"/>
      <point x="198" y="24" type="curve" smooth="yes"/>
      <point x="100" y="24"/>
      <point x="39" y="66"/>
      <point x="39" y="124" type="curve" smooth="yes"/>
      <point x="39" y="130" type="line"/>
      <point x="52" y="122"/>
      <point x="69" y="121"/>
      <point x="86" y="121" type="curve" smooth="yes"/>
      <point x="116" y="121"/>
      <point x="143" y="144"/>
      <point x="143" y="170" type="curve" smooth="yes"/>
      <point x="143" y="203"/>
      <point x="114" y="215"/>
      <point x="93" y="215" type="curve" smooth="yes"/>
      <point x="52" y="215"/>
      <point x="0" y="193"/>
      <point x="0" y="132" type="curve" smooth="yes"/>
      <point x="0" y="58"/>
      <point x="74" y="-2"/>
    </contour>
    <contour>
      <point x="1345" y="712" type="curve" smooth="yes"/>
      <point x="1291" y="710"/>
      <point x="1270" y="724"/>
      <point x="1270" y="736" type="curve" smooth="yes"/>
      <point x="1270" y="744"/>
      <point x="1295" y="759"/>
      <point x="1325" y="760" type="curve" smooth="yes"/>
      <point x="1362" y="762"/>
      <point x="1404" y="752"/>
      <point x="1428" y="729" type="curve"/>
      <point x="1400" y="718"/>
      <point x="1373" y="713"/>
    </contour>
    <contour>
      <point x="1217" y="-14" type="curve" smooth="yes" name="hr05"/>
      <point x="1414" y="-14"/>
      <point x="1704" y="293"/>
      <point x="1704" y="483" type="curve" smooth="yes"/>
      <point x="1704" y="505"/>
      <point x="1698" y="521"/>
      <point x="1692" y="521" type="curve" smooth="yes"/>
      <point x="1688" y="521"/>
      <point x="1683" y="510"/>
      <point x="1678" y="490" type="curve" smooth="yes"/>
      <point x="1605" y="201"/>
      <point x="1356" y="14"/>
      <point x="1230" y="14" type="curve" smooth="yes"/>
      <point x="1156" y="14"/>
      <point x="1134" y="32"/>
      <point x="1134" y="67" type="curve" smooth="yes"/>
      <point x="1134" y="91"/>
      <point x="1150" y="123"/>
      <point x="1227" y="193" type="curve" smooth="yes"/>
      <point x="1454" y="397"/>
      <point x="1495" y="526"/>
      <point x="1495" y="638" type="curve" smooth="yes"/>
      <point x="1495" y="669"/>
      <point x="1488" y="694"/>
      <point x="1477" y="715" type="curve"/>
      <point x="1639" y="774"/>
      <point x="1819" y="912"/>
      <point x="2011" y="1102" type="curve"/>
      <point x="2254" y="1330"/>
      <point x="2349" y="1389"/>
      <point x="2468" y="1389" type="curve" smooth="yes"/>
      <point x="2551" y="1389"/>
      <point x="2582" y="1330"/>
      <point x="2575" y="1295" type="curve" smooth="yes"/>
      <point x="2571" y="1277" type="line"/>
      <point x="2560" y="1287"/>
      <point x="2545" y="1292"/>
      <point x="2527" y="1292" type="curve" smooth="yes"/>
      <point x="2494" y="1292"/>
      <point x="2463" y="1265"/>
      <point x="2459" y="1239" type="curve" smooth="yes"/>
      <point x="2454" y="1211"/>
      <point x="2469" y="1181"/>
      <point x="2509" y="1181" type="curve" smooth="yes"/>
      <point x="2550" y="1181"/>
      <point x="2596" y="1219"/>
      <point x="2607" y="1281" type="curve" smooth="yes"/>
      <point x="2620" y="1355"/>
      <point x="2567" y="1412"/>
      <point x="2468" y="1412" type="curve" smooth="yes"/>
      <point x="2289" y="1412"/>
      <point x="2001" y="1280"/>
      <point x="1730" y="983" type="curve"/>
      <point x="1621" y="860"/>
      <point x="1537" y="781"/>
      <point x="1457" y="741" type="curve"/>
      <point x="1426" y="772"/>
      <point x="1378" y="783"/>
      <point x="1323" y="782" type="curve" smooth="yes"/>
      <point x="1256" y="780"/>
      <point x="1221" y="757"/>
      <point x="1221" y="735" type="curve" smooth="yes"/>
      <point x="1221" y="709"/>
      <point x="1265" y="681"/>
      <point x="1331" y="684" type="curve" smooth="yes"/>
      <point x="1367" y="685"/>
      <point x="1405" y="692"/>
      <point x="1444" y="704" type="curve"/>
      <point x="1446" y="698"/>
      <point x="1447" y="692"/>
      <point x="1447" y="685" type="curve" smooth="yes"/>
      <point x="1447" y="654"/>
      <point x="1427" y="589"/>
      <point x="1377" y="540" type="curve" smooth="yes"/>
      <point x="1130" y="298"/>
      <point x="1081" y="174"/>
      <point x="1081" y="90" type="curve" smooth="yes"/>
      <point x="1081" y="22"/>
      <point x="1126" y="-14"/>
    </contour>
  </outline>
</glyph>
<glyph name="M" format="1">
  <advance width="2545"/>
  <unicode hex="004D"/>
  <outline>
    <contour>
      <point x="1488" y="-2" type="curve" smooth="yes"/>
      <point x="1555" y="-2"/>
      <point x="1694" y="39"/>
      <point x="1781" y="112" type="curve"/>
      <point x="1783" y="115"/>
      <point x="1786" y="122"/>
      <point x="1786" y="135" type="curve" smooth="yes"/>
      <point x="1786" y="141"/>
      <point x="1783" y="147"/>
      <point x="1781" y="148" type="curve"/>
      <point x="1700" y="70"/>
      <point x="1563" y="25"/>
      <point x="1505" y="25" type="curve" smooth="yes"/>
      <point x="1468" y="25"/>
      <point x="1447" y="42"/>
      <point x="1447" y="67" type="curve" smooth="yes"/>
      <point x="1447" y="90"/>
      <point x="1456" y="111"/>
      <point x="1551" y="250" type="curve"/>
      <point x="1829" y="645"/>
      <point x="2199" y="1178"/>
      <point x="2463" y="1410" type="curve"/>
      <point x="2503" y="1444"/>
      <point x="2545" y="1469"/>
      <point x="2545" y="1479" type="curve" smooth="yes"/>
      <point x="2545" y="1485"/>
      <point x="2540" y="1487"/>
      <point x="2535" y="1487" type="curve" smooth="yes"/>
      <point x="2473" y="1487"/>
      <point x="2307" y="1382"/>
      <point x="1962" y="1060" type="curve"/>
      <point x="1527" y="649"/>
      <point x="1371" y="484"/>
      <point x="1008" y="65" type="curve"/>
      <point x="1104" y="266"/>
      <point x="1733" y="1269"/>
      <point x="1854" y="1399" type="curve"/>
      <point x="1882" y="1427"/>
      <point x="1901" y="1443"/>
      <point x="1914" y="1455" type="curve" smooth="yes"/>
      <point x="1926" y="1465"/>
      <point x="1929" y="1467"/>
      <point x="1929" y="1474" type="curve" smooth="yes"/>
      <point x="1929" y="1480"/>
      <point x="1911" y="1484"/>
      <point x="1902" y="1484" type="curve" smooth="yes"/>
      <point x="1884" y="1484"/>
      <point x="1707" y="1360"/>
      <point x="1310" y="926" type="curve" smooth="yes"/>
      <point x="679" y="235"/>
      <point x="383" y="26"/>
      <point x="187" y="26" type="curve" smooth="yes"/>
      <point x="89" y="26"/>
      <point x="38" y="63"/>
      <point x="38" y="121" type="curve" smooth="yes"/>
      <point x="38" y="124"/>
      <point x="39" y="128"/>
      <point x="39" y="133" type="curve"/>
      <point x="52" y="124"/>
      <point x="70" y="122"/>
      <point x="87" y="122" type="curve" smooth="yes"/>
      <point x="117" y="122"/>
      <point x="144" y="146"/>
      <point x="144" y="172" type="curve" smooth="yes"/>
      <point x="144" y="204"/>
      <point x="114" y="218"/>
      <point x="93" y="218" type="curve" smooth="yes"/>
      <point x="52" y="218"/>
      <point x="0" y="188"/>
      <point x="0" y="127" type="curve" smooth="yes"/>
      <point x="0" y="52"/>
      <point x="63" y="-1"/>
      <point x="188" y="-1" type="curve" smooth="yes"/>
      <point x="252" y="-1"/>
      <point x="316" y="17"/>
      <point x="400" y="59" type="curve" smooth="yes" name="hr00"/>
      <point x="586" y="154"/>
      <point x="828" y="353"/>
      <point x="1132" y="687" type="curve" smooth="yes"/>
      <point x="1482" y="1072"/>
      <point x="1673" y="1267"/>
      <point x="1748" y="1335" type="curve"/>
      <point x="1280" y="807"/>
      <point x="952" y="274"/>
      <point x="952" y="49" type="curve" smooth="yes"/>
      <point x="952" y="19"/>
      <point x="965" y="7"/>
      <point x="974" y="7" type="curve" smooth="yes"/>
      <point x="988" y="7"/>
      <point x="1006" y="15"/>
      <point x="1076" y="96" type="curve" smooth="yes"/>
      <point x="1363" y="431"/>
      <point x="1582" y="650"/>
      <point x="1694" y="757" type="curve" smooth="yes"/>
      <point x="2143" y="1185"/>
      <point x="2292" y="1322"/>
      <point x="2411" y="1407" type="curve"/>
      <point x="2171" y="1170"/>
      <point x="1758" y="752"/>
      <point x="1501" y="372" type="curve"/>
      <point x="1391" y="206"/>
      <point x="1367" y="132"/>
      <point x="1367" y="93" type="curve" smooth="yes"/>
      <point x="1367" y="39"/>
      <point x="1406" y="-2"/>
    </contour>
  </outline>
</glyph>
<glyph name="S" format="1">
  <advance width="1818"/>
  <unicode hex="0053"/>
  <outline>
    <contour>
      <point x="230" y="-2" type="curve" smooth="yes"/>
      <point x="561" y="-2"/>
      <point x="793" y="317"/>
      <point x="1021" y="667" type="curve"/>
      <point x="1455" y="723"/>
      <point x="1805" y="1072"/>
      <point x="1817" y="1277" type="curve" smooth="yes"/>
      <point x="1821" y="1357"/>
      <point x="1770" y="1401"/>
      <point x="1690" y="1401" type="curve" smooth="yes"/>
      <point x="1450" y="1401"/>
      <point x="1189" y="1186"/>
      <point x="871" y="685" type="curve"/>
      <point x="531" y="696"/>
      <point x="374" y="848"/>
      <point x="382" y="969" type="curve"/>
      <point x="394" y="1213"/>
      <point x="711" y="1378"/>
      <point x="1020" y="1378" type="curve" smooth="yes"/>
      <point x="1082" y="1378"/>
      <point x="1123" y="1369"/>
      <point x="1166" y="1359" type="curve"/>
      <point x="1177" y="1358"/>
      <point x="1185" y="1355"/>
      <point x="1194" y="1355" type="curve" smooth="yes"/>
      <point x="1206" y="1355"/>
      <point x="1206" y="1355"/>
      <point x="1206" y="1359" type="curve" smooth="yes"/>
      <point x="1206" y="1377"/>
      <point x="1119" y="1401"/>
      <point x="1021" y="1401" type="curve" smooth="yes"/>
      <point x="656" y="1401"/>
      <point x="329" y="1225"/>
      <point x="315" y="988" type="curve" smooth="yes"/>
      <point x="303" y="797"/>
      <point x="538" y="671"/>
      <point x="855" y="660" type="curve"/>
      <point x="835" y="627" type="line" smooth="yes"/>
      <point x="656" y="343"/>
      <point x="499" y="22"/>
      <point x="214" y="22" type="curve" smooth="yes" name="hr00"/>
      <point x="116" y="22"/>
      <point x="40" y="68"/>
      <point x="40" y="127" type="curve" smooth="yes"/>
      <point x="40" y="132" type="line"/>
      <point x="53" y="124"/>
      <point x="69" y="122"/>
      <point x="86" y="122" type="curve" smooth="yes"/>
      <point x="117" y="122"/>
      <point x="143" y="146"/>
      <point x="143" y="172" type="curve" smooth="yes"/>
      <point x="143" y="204"/>
      <point x="115" y="218"/>
      <point x="93" y="218" type="curve" smooth="yes"/>
      <point x="52" y="218"/>
      <point x="0" y="194"/>
      <point x="0" y="135" type="curve" smooth="yes"/>
      <point x="0" y="59"/>
      <point x="84" y="-2"/>
    </contour>
    <contour>
      <point x="1040" y="695" type="curve"/>
      <point x="1063" y="732"/>
      <point x="1087" y="768"/>
      <point x="1111" y="805" type="curve" smooth="yes"/>
      <point x="1344" y="1172"/>
      <point x="1524" y="1370"/>
      <point x="1689" y="1376" type="curve" smooth="yes"/>
      <point x="1725" y="1377"/>
      <point x="1769" y="1353"/>
      <point x="1763" y="1281" type="curve"/>
      <point x="1752" y="1082"/>
      <point x="1425" y="758"/>
    </contour>
  </outline>
</glyph>
<glyph name="T" format="1">
  <advance width="2317"/>
  <unicode hex="0054"/>
  <outline>
    <contour>
      <point x="259" y="-2" type="curve" smooth="yes"/>
      <point x="549" y="-2"/>
      <point x="875" y="187"/>
      <point x="1223" y="726" type="curve" smooth="yes"/>
      <point x="1415" y="1024"/>
      <point x="1447" y="1062"/>
      <point x="1589" y="1155" type="curve" smooth="yes"/>
      <point x="1604" y="1164"/>
      <point x="1609" y="1167"/>
      <point x="1609" y="1178" type="curve" smooth="yes"/>
      <point x="1609" y="1183"/>
      <point x="1604" y="1187"/>
      <point x="1595" y="1187" type="curve" smooth="yes"/>
      <point x="1554" y="1187"/>
      <point x="1340" y="1027"/>
      <point x="1111" y="763" type="curve"/>
      <point x="1022" y="658"/>
      <point x="946" y="563"/>
      <point x="888" y="472" type="curve" smooth="yes"/>
      <point x="697" y="172"/>
      <point x="468" y="26"/>
      <point x="267" y="26" type="curve" smooth="yes"/>
      <point x="139" y="26"/>
      <point x="40" y="68"/>
      <point x="40" y="157" type="curve" smooth="yes"/>
      <point x="40" y="163" type="line"/>
      <point x="53" y="155"/>
      <point x="70" y="153"/>
      <point x="88" y="153" type="curve" smooth="yes"/>
      <point x="118" y="153"/>
      <point x="144" y="177"/>
      <point x="144" y="203" type="curve" smooth="yes"/>
      <point x="144" y="235"/>
      <point x="115" y="249"/>
      <point x="94" y="249" type="curve" smooth="yes"/>
      <point x="53" y="249"/>
      <point x="0" y="225"/>
      <point x="0" y="165" type="curve" smooth="yes"/>
      <point x="0" y="60"/>
      <point x="123" y="-2"/>
    </contour>
    <contour>
      <point x="799" y="775" type="curve" smooth="yes" name="hr00"/>
      <point x="990" y="775"/>
      <point x="1241" y="999"/>
      <point x="1241" y="1221" type="curve" smooth="yes"/>
      <point x="1241" y="1241"/>
      <point x="1236" y="1246"/>
      <point x="1230" y="1246" type="curve" smooth="yes"/>
      <point x="1226" y="1246"/>
      <point x="1223" y="1245"/>
      <point x="1218" y="1221" type="curve"/>
      <point x="1186" y="1091"/>
      <point x="942" y="807"/>
      <point x="789" y="807" type="curve" smooth="yes"/>
      <point x="705" y="807"/>
      <point x="664" y="860"/>
      <point x="664" y="923" type="curve" smooth="yes"/>
      <point x="664" y="1096"/>
      <point x="965" y="1319"/>
      <point x="1204" y="1319" type="curve" smooth="yes"/>
      <point x="1266" y="1319"/>
      <point x="1362" y="1310"/>
      <point x="1471" y="1289" type="curve"/>
      <point x="1597" y="1262"/>
      <point x="1673" y="1254"/>
      <point x="1739" y="1254" type="curve" smooth="yes"/>
      <point x="1963" y="1254"/>
      <point x="2183" y="1342"/>
      <point x="2284" y="1460" type="curve"/>
      <point x="2306" y="1488"/>
      <point x="2317" y="1508"/>
      <point x="2317" y="1516" type="curve" smooth="yes"/>
      <point x="2317" y="1523"/>
      <point x="2314" y="1526"/>
      <point x="2306" y="1526" type="curve" smooth="yes"/>
      <point x="2302" y="1526"/>
      <point x="2296" y="1525"/>
      <point x="2287" y="1509" type="curve"/>
      <point x="2231" y="1420"/>
      <point x="2074" y="1335"/>
      <point x="1927" y="1335" type="curve" smooth="yes"/>
      <point x="1888" y="1335"/>
      <point x="1791" y="1342"/>
      <point x="1716" y="1355" type="curve"/>
      <point x="1654" y="1368"/>
      <point x="1540" y="1384"/>
      <point x="1440" y="1384" type="curve" smooth="yes"/>
      <point x="1329" y="1384"/>
      <point x="1169" y="1369"/>
      <point x="1074" y="1337" type="curve" smooth="yes"/>
      <point x="820" y="1251"/>
      <point x="636" y="1064"/>
      <point x="636" y="930" type="curve" smooth="yes"/>
      <point x="636" y="836"/>
      <point x="696" y="775"/>
    </contour>
  </outline>
</glyph>
<glyph name="Y" format="1">
  <advance width="1840"/>
  <unicode hex="0059"/>
  <outline>
    <contour>
      <point x="270" y="-264" type="curve" smooth="yes"/>
      <point x="580" y="-264"/>
      <point x="979" y="38"/>
      <point x="1253" y="552" type="curve"/>
      <point x="1455" y="934"/>
      <point x="1630" y="1154"/>
      <point x="1795" y="1219" type="curve"/>
      <point x="1824" y="1229" type="line"/>
      <point x="1837" y="1232"/>
      <point x="1840" y="1237"/>
      <point x="1840" y="1241" type="curve" smooth="yes"/>
      <point x="1840" y="1248"/>
      <point x="1835" y="1253"/>
      <point x="1823" y="1253" type="curve" smooth="yes"/>
      <point x="1770" y="1253"/>
      <point x="1642" y="1187"/>
      <point x="1498" y="1024" type="curve"/>
      <point x="1017" y="488"/>
      <point x="798" y="374"/>
      <point x="711" y="374" type="curve" smooth="yes"/>
      <point x="664" y="374"/>
      <point x="644" y="406"/>
      <point x="644" y="445" type="curve" smooth="yes"/>
      <point x="644" y="518"/>
      <point x="746" y="638"/>
      <point x="907" y="795" type="curve"/>
      <point x="1154" y="1021"/>
      <point x="1209" y="1149"/>
      <point x="1209" y="1253" type="curve" smooth="yes"/>
      <point x="1209" y="1359"/>
      <point x="1097" y="1401"/>
      <point x="962" y="1401" type="curve" smooth="yes"/>
      <point x="632" y="1401"/>
      <point x="235" y="1074"/>
      <point x="235" y="852" type="curve" smooth="yes"/>
      <point x="235" y="781"/>
      <point x="274" y="734"/>
      <point x="353" y="734" type="curve" smooth="yes"/>
      <point x="557" y="734"/>
      <point x="931" y="1080"/>
      <point x="911" y="1267" type="curve"/>
      <point x="909" y="1277"/>
      <point x="904" y="1284"/>
      <point x="900" y="1284" type="curve" smooth="yes"/>
      <point x="897" y="1284"/>
      <point x="896" y="1282"/>
      <point x="890" y="1270" type="curve"/>
      <point x="869" y="1197"/>
      <point x="564" y="776"/>
      <point x="355" y="776" type="curve" smooth="yes"/>
      <point x="293" y="776"/>
      <point x="264" y="807"/>
      <point x="264" y="861" type="curve" smooth="yes"/>
      <point x="264" y="1052"/>
      <point x="652" y="1373"/>
      <point x="962" y="1373" type="curve" smooth="yes"/>
      <point x="1091" y="1373"/>
      <point x="1158" y="1337"/>
      <point x="1158" y="1264" type="curve" smooth="yes"/>
      <point x="1158" y="1227"/>
      <point x="1133" y="1184"/>
      <point x="921" y="976" type="curve"/>
      <point x="744" y="796"/>
      <point x="603" y="581"/>
      <point x="603" y="456" type="curve" smooth="yes"/>
      <point x="603" y="406"/>
      <point x="633" y="350"/>
      <point x="708" y="350" type="curve" smooth="yes"/>
      <point x="794" y="350"/>
      <point x="971" y="430"/>
      <point x="1297" y="768" type="curve"/>
      <point x="1203" y="645"/>
      <point x="1091" y="484"/>
      <point x="991" y="336" type="curve"/>
      <point x="729" y="-44"/>
      <point x="462" y="-238"/>
      <point x="276" y="-238" type="curve" smooth="yes"/>
      <point x="141" y="-238"/>
      <point x="40" y="-179"/>
      <point x="40" y="-106" type="curve" smooth="yes"/>
      <point x="40" y="-99"/>
      <point x="41" y="-92"/>
      <point x="43" y="-85" type="curve"/>
      <point x="55" y="-90"/>
      <point x="69" y="-91"/>
      <point x="83" y="-91" type="curve" smooth="yes"/>
      <point x="113" y="-91"/>
      <point x="140" y="-67"/>
      <point x="140" y="-42" type="curve" smooth="yes" name="hr00"/>
      <point x="140" y="-9"/>
      <point x="110" y="5"/>
      <point x="90" y="5" type="curve" smooth="yes"/>
      <point x="49" y="5"/>
      <point x="0" y="-31"/>
      <point x="0" y="-90" type="curve" smooth="yes"/>
      <point x="0" y="-198"/>
      <point x="119" y="-264"/>
    </contour>
  </outline>
</glyph>
<glyph name="Z" format="1">
  <advance width="1752"/>
  <unicode hex="005A"/>
  <outline>
    <contour>
      <point x="1048" y="-47" type="curve" smooth="yes"/>
      <point x="1289" y="-47"/>
      <point x="1481" y="79"/>
      <point x="1481" y="293" type="curve" smooth="yes"/>
      <point x="1481" y="396"/>
      <point x="1397" y="472"/>
      <point x="1282" y="472" type="curve" smooth="yes"/>
      <point x="1271" y="472"/>
      <point x="1261" y="470"/>
      <point x="1251" y="467" type="curve" smooth="yes"/>
      <point x="1231" y="461"/>
      <point x="1197" y="439"/>
      <point x="1207" y="408" type="curve" smooth="yes"/>
      <point x="1215" y="383"/>
      <point x="1246" y="373"/>
      <point x="1275" y="377" type="curve"/>
      <point x="1304" y="383"/>
      <point x="1331" y="405"/>
      <point x="1333" y="435" type="curve"/>
      <point x="1416" y="418"/>
      <point x="1452" y="354"/>
      <point x="1452" y="292" type="curve" smooth="yes"/>
      <point x="1452" y="104"/>
      <point x="1243" y="28"/>
      <point x="974" y="49" type="curve" smooth="yes"/>
      <point x="867" y="57"/>
      <point x="743" y="96"/>
      <point x="614" y="133" type="curve"/>
      <point x="797" y="254"/>
      <point x="994" y="463"/>
      <point x="1204" y="782" type="curve" smooth="yes"/>
      <point x="1361" y="1020"/>
      <point x="1574" y="1269"/>
      <point x="1669" y="1335" type="curve"/>
      <point x="1698" y="1352"/>
      <point x="1706" y="1359"/>
      <point x="1734" y="1374" type="curve"/>
      <point x="1747" y="1384"/>
      <point x="1752" y="1392"/>
      <point x="1752" y="1399" type="curve" smooth="yes"/>
      <point x="1752" y="1406"/>
      <point x="1746" y="1409"/>
      <point x="1739" y="1409" type="curve" smooth="yes"/>
      <point x="1729" y="1409"/>
      <point x="1718" y="1406"/>
      <point x="1699" y="1389" type="curve" smooth="yes" name="hr03"/>
      <point x="1650" y="1344"/>
      <point x="1563" y="1301"/>
      <point x="1479" y="1301" type="curve" smooth="yes"/>
      <point x="1275" y="1301"/>
      <point x="1184" y="1401"/>
      <point x="925" y="1401" type="curve" smooth="yes"/>
      <point x="643" y="1401"/>
      <point x="417" y="1181"/>
      <point x="410" y="972" type="curve"/>
      <point x="407" y="912"/>
      <point x="453" y="825"/>
      <point x="556" y="825" type="curve" smooth="yes"/>
      <point x="737" y="825"/>
      <point x="931" y="999"/>
      <point x="914" y="1195" type="curve" smooth="yes"/>
      <point x="912" y="1219"/>
      <point x="899" y="1239"/>
      <point x="895" y="1239" type="curve" smooth="yes"/>
      <point x="891" y="1239"/>
      <point x="885" y="1236"/>
      <point x="884" y="1224" type="curve" smooth="yes"/>
      <point x="873" y="1118"/>
      <point x="717" y="849"/>
      <point x="545" y="849" type="curve" smooth="yes" name="hr04"/>
      <point x="476" y="849"/>
      <point x="434" y="911"/>
      <point x="436" y="970" type="curve" smooth="yes"/>
      <point x="443" y="1145"/>
      <point x="629" y="1311"/>
      <point x="795" y="1317" type="curve" smooth="yes"/>
      <point x="1038" y="1326"/>
      <point x="1119" y="1232"/>
      <point x="1338" y="1232" type="curve" smooth="yes"/>
      <point x="1425" y="1232"/>
      <point x="1514" y="1264"/>
      <point x="1585" y="1299" type="curve"/>
      <point x="1301" y="1095"/>
      <point x="1108" y="873"/>
      <point x="923" y="619" type="curve" smooth="yes"/>
      <point x="768" y="407"/>
      <point x="644" y="254"/>
      <point x="530" y="156" type="curve"/>
      <point x="439" y="179"/>
      <point x="346" y="197"/>
      <point x="258" y="197" type="curve" smooth="yes"/>
      <point x="92" y="197"/>
      <point x="3" y="146"/>
      <point x="1" y="91" type="curve" smooth="yes" name="hr01"/>
      <point x="0" y="42"/>
      <point x="74" y="-2"/>
      <point x="220" y="-2" type="curve" smooth="yes"/>
      <point x="322" y="-2"/>
      <point x="430" y="27"/>
      <point x="544" y="90" type="curve"/>
      <point x="708" y="30"/>
      <point x="875" y="-47"/>
    </contour>
    <contour>
      <point x="223" y="22" type="curve" smooth="yes"/>
      <point x="83" y="22"/>
      <point x="30" y="59"/>
      <point x="32" y="90" type="curve" smooth="yes" name="hr06"/>
      <point x="34" y="141"/>
      <point x="141" y="163"/>
      <point x="229" y="163" type="curve" smooth="yes"/>
      <point x="311" y="163"/>
      <point x="394" y="142"/>
      <point x="478" y="114" type="curve"/>
      <point x="393" y="52"/>
      <point x="311" y="22"/>
    </contour>
  </outline>
</glyph>
<glyph name="bracketleft" format="1">
  <advance width="1491"/>
  <unicode hex="005B"/>
  <outline>
    <contour>
      <point x="0" y="-206" type="curve" name="hr00"/>
      <point x="405" y="-206" type="line"/>
      <point x="408" y="-199"/>
      <point x="412" y="-187"/>
      <point x="418" y="-179" type="curve"/>
      <point x="171" y="-179" type="line"/>
      <point x="374" y="150"/>
      <point x="487" y="309"/>
      <point x="704" y="629" type="curve"/>
      <point x="865" y="869"/>
      <point x="1001" y="1069"/>
      <point x="1227" y="1374" type="curve"/>
      <point x="1475" y="1374" type="line"/>
      <point x="1479" y="1385"/>
      <point x="1486" y="1394"/>
      <point x="1491" y="1401" type="curve"/>
      <point x="1098" y="1401" type="line"/>
      <point x="900" y="1100"/>
      <point x="807" y="967"/>
      <point x="615" y="683" type="curve" smooth="yes"/>
      <point x="433" y="415"/>
      <point x="291" y="214"/>
    </contour>
  </outline>
</glyph>
<glyph name="underscore" format="1">
  <advance width="1468"/>
  <unicode hex="005F"/>
  <outline>
    <contour>
      <point x="3" y="-149" type="line"/>
      <point x="1468" y="-149" type="line"/>
      <point x="1468" y="-106" type="line"/>
      <point x="0" y="-105" type="line" name="hr00"/>
    </contour>
  </outline>
</glyph>
<glyph name="grave" format="1">
  <advance width="286"/>
  <unicode hex="0060"/>
  <outline>
    <contour>
      <point x="274" y="788" type="curve" smooth="yes" name="hr00"/>
      <point x="282" y="788"/>
      <point x="286" y="793"/>
      <point x="286" y="798" type="curve" smooth="yes"/>
      <point x="286" y="806"/>
      <point x="278" y="808"/>
      <point x="262" y="820" type="curve"/>
      <point x="222" y="842"/>
      <point x="170" y="883"/>
      <point x="138" y="934" type="curve" smooth="yes"/>
      <point x="118" y="966"/>
      <point x="108" y="1003"/>
      <point x="98" y="1078" type="curve"/>
      <point x="90" y="1126"/>
      <point x="74" y="1149"/>
      <point x="43" y="1149" type="curve" smooth="yes"/>
      <point x="18" y="1149"/>
      <point x="0" y="1132"/>
      <point x="0" y="1094" type="curve" smooth="yes"/>
      <point x="0" y="1020"/>
      <point x="98" y="889"/>
      <point x="225" y="811" type="curve" smooth="yes"/>
      <point x="250" y="796"/>
      <point x="264" y="788"/>
    </contour>
  </outline>
</glyph>
<glyph name="j" format="1">
  <advance width="1765"/>
  <unicode hex="006A"/>
  <outline>
    <contour>
      <point x="89" y="-787" type="curve" smooth="yes"/>
      <point x="314" y="-787"/>
      <point x="474" y="-710"/>
      <point x="894" y="-205" type="curve"/>
      <point x="1257" y="-34"/>
      <point x="1415" y="74"/>
      <point x="1669" y="389" type="curve"/>
      <point x="1649" y="406" type="line"/>
      <point x="1415" y="111"/>
      <point x="1263" y="-1"/>
      <point x="931" y="-160" type="curve"/>
      <point x="1024" y="-47"/>
      <point x="1130" y="85"/>
      <point x="1250" y="242" type="curve" smooth="yes"/>
      <point x="1399" y="437"/>
      <point x="1494" y="559"/>
      <point x="1586" y="677" type="curve"/>
      <point x="1577" y="676"/>
      <point x="1560" y="675"/>
      <point x="1537" y="675" type="curve" smooth="yes"/>
      <point x="1512" y="675"/>
      <point x="1444" y="675"/>
      <point x="1430" y="677" type="curve"/>
      <point x="1425" y="635"/>
      <point x="1062" y="172"/>
      <point x="945" y="25" type="curve" smooth="yes"/>
      <point x="867" y="-74"/>
      <point x="799" y="-160"/>
      <point x="736" y="-236" type="curve"/>
      <point x="160" y="-475"/>
      <point x="0" y="-610"/>
      <point x="0" y="-720" type="curve" smooth="yes"/>
      <point x="0" y="-751"/>
      <point x="31" y="-787"/>
    </contour>
    <contour>
      <point x="92" y="-760" type="curve" smooth="yes"/>
      <point x="49" y="-760"/>
      <point x="33" y="-735"/>
      <point x="33" y="-720" type="curve" smooth="yes"/>
      <point x="33" y="-605"/>
      <point x="221" y="-481"/>
      <point x="702" y="-277" type="curve"/>
      <point x="354" y="-696"/>
      <point x="235" y="-759"/>
    </contour>
    <contour>
      <point x="1665" y="876" type="curve" smooth="yes" name="hr00"/>
      <point x="1714" y="876"/>
      <point x="1765" y="920"/>
      <point x="1765" y="969" type="curve" smooth="yes"/>
      <point x="1765" y="1004"/>
      <point x="1742" y="1032"/>
      <point x="1705" y="1032" type="curve" smooth="yes"/>
      <point x="1650" y="1032"/>
      <point x="1604" y="984"/>
      <point x="1604" y="938" type="curve" smooth="yes"/>
      <point x="1604" y="902"/>
      <point x="1629" y="876"/>
    </contour>
  </outline>
</glyph>
<glyph name="l" format="1">
  <advance width="1141"/>
  <unicode hex="006C"/>
  <outline>
    <contour>
      <point x="97" y="-2" type="curve" smooth="yes"/>
      <point x="320" y="-2"/>
      <point x="604" y="347"/>
      <point x="647" y="389" type="curve"/>
      <point x="627" y="406" type="line"/>
      <point x="587" y="368"/>
      <point x="311" y="26"/>
      <point x="114" y="26" type="curve" smooth="yes" name="hr00"/>
      <point x="86" y="26"/>
      <point x="67" y="39"/>
      <point x="67" y="59" type="curve" smooth="yes"/>
      <point x="67" y="90"/>
      <point x="79" y="119"/>
      <point x="319" y="454" type="curve"/>
      <point x="1141" y="1595" type="line"/>
      <point x="1124" y="1593"/>
      <point x="1109" y="1591"/>
      <point x="1099" y="1591" type="curve" smooth="yes"/>
      <point x="1046" y="1589"/>
      <point x="1020" y="1593"/>
      <point x="1002" y="1595" type="curve"/>
      <point x="229" y="490" type="line"/>
      <point x="19" y="187"/>
      <point x="0" y="150"/>
      <point x="0" y="79" type="curve" smooth="yes"/>
      <point x="0" y="33"/>
      <point x="41" y="-2"/>
    </contour>
  </outline>
</glyph>
<glyph name="m" format="1">
  <advance width="1580"/>
  <unicode hex="006D"/>
  <outline>
    <contour>
      <point x="1083" y="-5" type="curve" smooth="yes"/>
      <point x="1270" y="-5"/>
      <point x="1541" y="347"/>
      <point x="1580" y="389" type="curve"/>
      <point x="1559" y="406" type="line"/>
      <point x="1525" y="368"/>
      <point x="1258" y="24"/>
      <point x="1095" y="24" type="curve" smooth="yes"/>
      <point x="1045" y="24"/>
      <point x="1022" y="34"/>
      <point x="1022" y="48" type="curve"/>
      <point x="1029" y="49" type="line"/>
      <point x="1029" y="66"/>
      <point x="1032" y="75"/>
      <point x="1101" y="147" type="curve"/>
      <point x="1323" y="388"/>
      <point x="1384" y="504"/>
      <point x="1387" y="584" type="curve"/>
      <point x="1388" y="634"/>
      <point x="1356" y="685"/>
      <point x="1270" y="685" type="curve" smooth="yes"/>
      <point x="1215" y="685"/>
      <point x="1159" y="665"/>
      <point x="1059" y="584" type="curve" smooth="yes"/>
      <point x="1015" y="548"/>
      <point x="963" y="500"/>
      <point x="903" y="439" type="curve" name="hr05"/>
      <point x="947" y="507"/>
      <point x="953" y="536"/>
      <point x="956" y="584" type="curve" smooth="yes"/>
      <point x="959" y="634"/>
      <point x="924" y="685"/>
      <point x="839" y="685" type="curve" smooth="yes"/>
      <point x="786" y="685"/>
      <point x="731" y="668"/>
      <point x="654" y="609" type="curve"/>
      <point x="573" y="551"/>
      <point x="446" y="423"/>
      <point x="259" y="207" type="curve"/>
      <point x="254" y="218" type="line"/>
      <point x="464" y="510" type="line" smooth="yes"/>
      <point x="500" y="561"/>
      <point x="508" y="592"/>
      <point x="510" y="613" type="curve" smooth="yes" name="hr06"/>
      <point x="516" y="675"/>
      <point x="468" y="685"/>
      <point x="429" y="685" type="curve" smooth="yes"/>
      <point x="324" y="685"/>
      <point x="201" y="489"/>
      <point x="124" y="406" type="curve" smooth="yes"/>
      <point x="119" y="401"/>
      <point x="124" y="398"/>
      <point x="127" y="394" type="curve"/>
      <point x="133" y="389"/>
      <point x="143" y="388"/>
      <point x="145" y="389" type="curve"/>
      <point x="216" y="478"/>
      <point x="355" y="651"/>
      <point x="393" y="651" type="curve" smooth="yes"/>
      <point x="413" y="651"/>
      <point x="416" y="638"/>
      <point x="415" y="622" type="curve" smooth="yes"/>
      <point x="412" y="593"/>
      <point x="375" y="554"/>
      <point x="0" y="14" type="curve"/>
      <point x="13" y="18"/>
      <point x="47" y="24"/>
      <point x="95" y="24" type="curve" smooth="yes" name="hr01"/>
      <point x="114" y="24"/>
      <point x="133" y="23"/>
      <point x="152" y="19" type="curve"/>
      <point x="245" y="141" type="line"/>
      <point x="424" y="359"/>
      <point x="565" y="502"/>
      <point x="657" y="576" type="curve" smooth="yes"/>
      <point x="739" y="641"/>
      <point x="794" y="660"/>
      <point x="828" y="660" type="curve" smooth="yes" name="hr03"/>
      <point x="857" y="660"/>
      <point x="877" y="650"/>
      <point x="877" y="629" type="curve" smooth="yes"/>
      <point x="877" y="603"/>
      <point x="857" y="560"/>
      <point x="742" y="408" type="curve" smooth="yes"/>
      <point x="566" y="176"/>
      <point x="629" y="255"/>
      <point x="432" y="14" type="curve"/>
      <point x="446" y="18"/>
      <point x="480" y="24"/>
      <point x="527" y="24" type="curve" smooth="yes"/>
      <point x="547" y="24"/>
      <point x="565" y="23"/>
      <point x="584" y="19" type="curve"/>
      <point x="677" y="141" type="line"/>
      <point x="848" y="357"/>
      <point x="990" y="498"/>
      <point x="1094" y="577" type="curve" smooth="yes"/>
      <point x="1181" y="642"/>
      <point x="1225" y="660"/>
      <point x="1257" y="660" type="curve" smooth="yes"/>
      <point x="1296" y="660"/>
      <point x="1308" y="643"/>
      <point x="1308" y="624" type="curve" smooth="yes"/>
      <point x="1308" y="592"/>
      <point x="1272" y="531"/>
      <point x="1168" y="413" type="curve"/>
      <point x="971" y="193"/>
      <point x="949" y="127"/>
      <point x="949" y="73" type="curve" smooth="yes" name="hr04"/>
      <point x="949" y="26"/>
      <point x="1011" y="-5"/>
    </contour>
  </outline>
</glyph>
<glyph name="n" format="1">
  <advance width="1187"/>
  <unicode hex="006E"/>
  <outline>
    <contour>
      <point x="669" y="-2" type="curve" smooth="yes"/>
      <point x="898" y="-2"/>
      <point x="1148" y="347"/>
      <point x="1187" y="389" type="curve"/>
      <point x="1166" y="406" type="line"/>
      <point x="1132" y="368"/>
      <point x="883" y="26"/>
      <point x="679" y="26" type="curve" smooth="yes"/>
      <point x="637" y="26"/>
      <point x="607" y="36"/>
      <point x="607" y="49" type="curve" smooth="yes"/>
      <point x="607" y="66"/>
      <point x="611" y="75"/>
      <point x="679" y="147" type="curve"/>
      <point x="901" y="388"/>
      <point x="962" y="504"/>
      <point x="965" y="584" type="curve"/>
      <point x="966" y="634"/>
      <point x="934" y="685"/>
      <point x="848" y="685" type="curve" smooth="yes"/>
      <point x="807" y="685"/>
      <point x="760" y="674"/>
      <point x="696" y="632" type="curve" smooth="yes"/>
      <point x="600" y="568"/>
      <point x="467" y="441"/>
      <point x="259" y="207" type="curve"/>
      <point x="254" y="218" type="line"/>
      <point x="464" y="510" type="line" smooth="yes" name="hr04"/>
      <point x="500" y="561"/>
      <point x="508" y="592"/>
      <point x="510" y="613" type="curve" smooth="yes"/>
      <point x="516" y="675"/>
      <point x="468" y="685"/>
      <point x="429" y="685" type="curve" smooth="yes"/>
      <point x="324" y="685"/>
      <point x="201" y="489"/>
      <point x="124" y="406" type="curve" smooth="yes"/>
      <point x="119" y="401"/>
      <point x="124" y="398"/>
      <point x="127" y="394" type="curve"/>
      <point x="133" y="389"/>
      <point x="143" y="388"/>
      <point x="145" y="389" type="curve"/>
      <point x="216" y="478"/>
      <point x="355" y="651"/>
      <point x="393" y="651" type="curve" smooth="yes"/>
      <point x="413" y="651"/>
      <point x="416" y="638"/>
      <point x="415" y="622" type="curve" smooth="yes"/>
      <point x="412" y="593"/>
      <point x="375" y="554"/>
      <point x="0" y="14" type="curve"/>
      <point x="16" y="18"/>
      <point x="47" y="24"/>
      <point x="95" y="24" type="curve" smooth="yes" name="hr01"/>
      <point x="115" y="24"/>
      <point x="132" y="23"/>
      <point x="153" y="19" type="curve"/>
      <point x="246" y="141" type="line"/>
      <point x="445" y="385"/>
      <point x="599" y="531"/>
      <point x="704" y="603" type="curve" smooth="yes"/>
      <point x="765" y="644"/>
      <point x="810" y="660"/>
      <point x="837" y="660" type="curve" smooth="yes"/>
      <point x="874" y="660"/>
      <point x="885" y="643"/>
      <point x="885" y="624" type="curve" smooth="yes"/>
      <point x="885" y="592"/>
      <point x="851" y="531"/>
      <point x="746" y="413" type="curve" smooth="yes"/>
      <point x="549" y="193"/>
      <point x="533" y="129"/>
      <point x="533" y="75" type="curve" smooth="yes" name="hr03"/>
      <point x="533" y="28"/>
      <point x="595" y="-2"/>
    </contour>
  </outline>
</glyph>
<glyph name="q" format="1">
  <advance width="1248"/>
  <unicode hex="0071"/>
  <outline>
    <contour>
      <point x="67" y="-787" type="curve" smooth="yes"/>
      <point x="277" y="-787"/>
      <point x="600" y="-401"/>
      <point x="695" y="31" type="curve"/>
      <point x="713" y="11"/>
      <point x="743" y="-2"/>
      <point x="781" y="-2" type="curve" smooth="yes"/>
      <point x="960" y="-2"/>
      <point x="1212" y="347"/>
      <point x="1248" y="389" type="curve"/>
      <point x="1226" y="406" type="line"/>
      <point x="1196" y="368"/>
      <point x="935" y="24"/>
      <point x="779" y="24" type="curve" smooth="yes"/>
      <point x="742" y="24"/>
      <point x="709" y="43"/>
      <point x="703" y="69" type="curve"/>
      <point x="702" y="87"/>
      <point x="699" y="103"/>
      <point x="694" y="115" type="curve"/>
      <point x="813" y="251" type="line" smooth="yes"/>
      <point x="950" y="408"/>
      <point x="1023" y="514"/>
      <point x="1134" y="645" type="curve"/>
      <point x="1117" y="644"/>
      <point x="1078" y="643"/>
      <point x="1061" y="643" type="curve" smooth="yes"/>
      <point x="1039" y="643"/>
      <point x="1014" y="645"/>
      <point x="1002" y="650" type="curve"/>
      <point x="970" y="609"/>
      <point x="940" y="568"/>
      <point x="887" y="502" type="curve"/>
      <point x="894" y="523"/>
      <point x="898" y="546"/>
      <point x="898" y="571" type="curve" smooth="yes"/>
      <point x="898" y="648"/>
      <point x="841" y="670"/>
      <point x="775" y="670" type="curve" smooth="yes"/>
      <point x="632" y="670"/>
      <point x="479" y="617"/>
      <point x="303" y="414" type="curve" smooth="yes"/>
      <point x="217" y="316"/>
      <point x="181" y="213"/>
      <point x="181" y="127" type="curve" smooth="yes"/>
      <point x="181" y="46"/>
      <point x="220" y="-2"/>
      <point x="303" y="-2" type="curve" smooth="yes" name="hr00"/>
      <point x="357" y="-2"/>
      <point x="459" y="36"/>
      <point x="573" y="126" type="curve"/>
      <point x="201" y="-258"/>
      <point x="0" y="-565"/>
      <point x="0" y="-715" type="curve" smooth="yes"/>
      <point x="0" y="-762"/>
      <point x="25" y="-787"/>
    </contour>
    <contour>
      <point x="67" y="-765" type="curve" smooth="yes"/>
      <point x="41" y="-765"/>
      <point x="32" y="-754"/>
      <point x="32" y="-732" type="curve" smooth="yes"/>
      <point x="32" y="-659"/>
      <point x="438" y="-180"/>
      <point x="673" y="91" type="curve"/>
      <point x="676" y="83"/>
      <point x="676" y="72"/>
      <point x="673" y="57" type="curve" smooth="yes"/>
      <point x="588" y="-340"/>
      <point x="213" y="-765"/>
    </contour>
    <contour>
      <point x="308" y="28" type="curve" smooth="yes"/>
      <point x="277" y="28"/>
      <point x="263" y="42"/>
      <point x="263" y="79" type="curve" smooth="yes"/>
      <point x="263" y="141"/>
      <point x="306" y="229"/>
      <point x="403" y="347" type="curve"/>
      <point x="575" y="549"/>
      <point x="735" y="641"/>
      <point x="799" y="641" type="curve" smooth="yes"/>
      <point x="834" y="641"/>
      <point x="873" y="620"/>
      <point x="873" y="580" type="curve" smooth="yes"/>
      <point x="873" y="507"/>
      <point x="849" y="460"/>
      <point x="822" y="423" type="curve"/>
      <point x="803" y="399"/>
      <point x="781" y="373"/>
      <point x="757" y="344" type="curve" smooth="yes"/>
      <point x="561" y="109"/>
      <point x="398" y="28"/>
    </contour>
  </outline>
</glyph>
<glyph name="r" format="1">
  <advance width="784"/>
  <unicode hex="0072"/>
  <outline>
    <contour>
      <point x="241" y="-2" type="curve" smooth="yes"/>
      <point x="470" y="-2"/>
      <point x="710" y="319"/>
      <point x="784" y="389" type="curve"/>
      <point x="764" y="406" type="line"/>
      <point x="715" y="353"/>
      <point x="446" y="32"/>
      <point x="284" y="32" type="curve" smooth="yes"/>
      <point x="262" y="32"/>
      <point x="246" y="44"/>
      <point x="246" y="79" type="curve" smooth="yes"/>
      <point x="246" y="174"/>
      <point x="433" y="402"/>
      <point x="579" y="515" type="curve" smooth="yes"/>
      <point x="600" y="532"/>
      <point x="608" y="541"/>
      <point x="608" y="548" type="curve" smooth="yes"/>
      <point x="608" y="552"/>
      <point x="605" y="562"/>
      <point x="580" y="563" type="curve" smooth="yes"/>
      <point x="504" y="568"/>
      <point x="284" y="608"/>
      <point x="284" y="634" type="curve" smooth="yes"/>
      <point x="284" y="653"/>
      <point x="291" y="674"/>
      <point x="302" y="687" type="curve"/>
      <point x="314" y="707"/>
      <point x="329" y="726"/>
      <point x="329" y="757" type="curve" smooth="yes"/>
      <point x="329" y="784"/>
      <point x="308" y="803"/>
      <point x="276" y="803" type="curve" smooth="yes"/>
      <point x="219" y="803"/>
      <point x="176" y="741"/>
      <point x="187" y="677" type="curve" smooth="yes"/>
      <point x="191" y="657"/>
      <point x="205" y="641"/>
      <point x="229" y="626" type="curve"/>
      <point x="201" y="569"/>
      <point x="147" y="490"/>
      <point x="80" y="406" type="curve" smooth="yes"/>
      <point x="16" y="326"/>
      <point x="2" y="317"/>
      <point x="2" y="312" type="curve"/>
      <point x="0" y="306"/>
      <point x="1" y="293"/>
      <point x="5" y="295" type="curve"/>
      <point x="7" y="298"/>
      <point x="21" y="295"/>
      <point x="101" y="389" type="curve"/>
      <point x="179" y="478"/>
      <point x="229" y="558"/>
      <point x="256" y="612" type="curve"/>
      <point x="315" y="585"/>
      <point x="413" y="563"/>
      <point x="549" y="541" type="curve"/>
      <point x="282" y="362"/>
      <point x="115" y="208"/>
      <point x="115" y="101" type="curve" smooth="yes" name="hr00"/>
      <point x="115" y="39"/>
      <point x="166" y="-2"/>
    </contour>
  </outline>
</glyph>
<glyph name="t" format="1">
  <advance width="929"/>
  <unicode hex="0074"/>
  <outline>
    <contour>
      <point x="110" y="-2" type="curve" smooth="yes"/>
      <point x="314" y="-2"/>
      <point x="553" y="299"/>
      <point x="631" y="389" type="curve"/>
      <point x="609" y="406" type="line"/>
      <point x="528" y="309"/>
      <point x="303" y="28"/>
      <point x="119" y="26" type="curve" name="hr00"/>
      <point x="88" y="27"/>
      <point x="69" y="38"/>
      <point x="69" y="58" type="curve" smooth="yes"/>
      <point x="69" y="87"/>
      <point x="107" y="160"/>
      <point x="357" y="497" type="curve" smooth="yes"/>
      <point x="621" y="853" type="line"/>
      <point x="904" y="853" type="line" smooth="yes"/>
      <point x="921" y="853"/>
      <point x="929" y="858"/>
      <point x="929" y="868" type="curve" smooth="yes"/>
      <point x="929" y="877"/>
      <point x="921" y="882"/>
      <point x="901" y="882" type="curve" smooth="yes"/>
      <point x="643" y="882" type="line"/>
      <point x="836" y="1142" type="line"/>
      <point x="819" y="1139"/>
      <point x="804" y="1138"/>
      <point x="793" y="1138" type="curve" smooth="yes"/>
      <point x="739" y="1137"/>
      <point x="714" y="1139"/>
      <point x="697" y="1142" type="curve"/>
      <point x="512" y="882" type="line"/>
      <point x="421" y="882" type="line" smooth="yes"/>
      <point x="398" y="882"/>
      <point x="383" y="880"/>
      <point x="383" y="866" type="curve" smooth="yes"/>
      <point x="383" y="855"/>
      <point x="392" y="853"/>
      <point x="413" y="853" type="curve" smooth="yes"/>
      <point x="492" y="853" type="line"/>
      <point x="234" y="490" type="line" smooth="yes"/>
      <point x="20" y="189"/>
      <point x="0" y="148"/>
      <point x="0" y="76" type="curve" smooth="yes"/>
      <point x="0" y="31"/>
      <point x="37" y="-2"/>
    </contour>
  </outline>
</glyph>
<glyph name="w" format="1">
  <advance width="1367"/>
  <unicode hex="0077"/>
  <outline>
    <contour>
      <point x="65" y="-2" type="curve" smooth="yes"/>
      <point x="137" y="-2"/>
      <point x="239" y="43"/>
      <point x="378" y="147" type="curve" smooth="yes"/>
      <point x="422" y="179"/>
      <point x="465" y="215"/>
      <point x="507" y="253" type="curve"/>
      <point x="458" y="172"/>
      <point x="439" y="110"/>
      <point x="439" y="63" type="curve" smooth="yes"/>
      <point x="439" y="26"/>
      <point x="456" y="-2"/>
      <point x="502" y="-2" type="curve" smooth="yes"/>
      <point x="613" y="-2"/>
      <point x="829" y="122"/>
      <point x="985" y="244" type="curve"/>
      <point x="975" y="197"/>
      <point x="998" y="168"/>
      <point x="1051" y="168" type="curve" smooth="yes"/>
      <point x="1160" y="168"/>
      <point x="1299" y="316"/>
      <point x="1367" y="389" type="curve"/>
      <point x="1345" y="406" type="line"/>
      <point x="1294" y="347"/>
      <point x="1152" y="193"/>
      <point x="1060" y="193" type="curve" smooth="yes"/>
      <point x="1008" y="193"/>
      <point x="1003" y="229"/>
      <point x="1020" y="273" type="curve"/>
      <point x="1051" y="298"/>
      <point x="1079" y="324"/>
      <point x="1102" y="347" type="curve" smooth="yes"/>
      <point x="1267" y="512"/>
      <point x="1301" y="598"/>
      <point x="1301" y="654" type="curve" smooth="yes"/>
      <point x="1301" y="694"/>
      <point x="1282" y="719"/>
      <point x="1235" y="719" type="curve" smooth="yes"/>
      <point x="1193" y="719"/>
      <point x="1165" y="674"/>
      <point x="1165" y="625" type="curve" smooth="yes"/>
      <point x="1165" y="512"/>
      <point x="1132" y="459"/>
      <point x="999" y="319" type="curve" smooth="yes"/>
      <point x="839" y="152"/>
      <point x="603" y="26"/>
      <point x="513" y="26" type="curve" smooth="yes"/>
      <point x="500" y="26"/>
      <point x="488" y="31"/>
      <point x="488" y="49" type="curve" smooth="yes"/>
      <point x="488" y="68"/>
      <point x="506" y="103"/>
      <point x="569" y="178" type="curve"/>
      <point x="688" y="315"/>
      <point x="907" y="547"/>
      <point x="1030" y="676" type="curve"/>
      <point x="1011" y="674"/>
      <point x="989" y="673"/>
      <point x="958" y="673" type="curve" smooth="yes"/>
      <point x="927" y="673"/>
      <point x="919" y="675"/>
      <point x="877" y="679" type="curve"/>
      <point x="780" y="586"/>
      <point x="703" y="505"/>
      <point x="642" y="433" type="curve"/>
      <point x="642" y="434" type="line"/>
      <point x="638" y="429" type="line"/>
      <point x="615" y="401" type="line"/>
      <point x="553" y="330"/>
      <point x="467" y="250"/>
      <point x="378" y="185" type="curve"/>
      <point x="216" y="64"/>
      <point x="123" y="26"/>
      <point x="71" y="26" type="curve" smooth="yes" name="hr00"/>
      <point x="48" y="26"/>
      <point x="45" y="33"/>
      <point x="45" y="48" type="curve" smooth="yes"/>
      <point x="45" y="72"/>
      <point x="76" y="115"/>
      <point x="141" y="194" type="curve" smooth="yes"/>
      <point x="226" y="295"/>
      <point x="429" y="510"/>
      <point x="591" y="676" type="curve"/>
      <point x="578" y="674"/>
      <point x="537" y="673"/>
      <point x="519" y="673" type="curve" smooth="yes"/>
      <point x="494" y="673"/>
      <point x="455" y="676"/>
      <point x="438" y="679" type="curve"/>
      <point x="162" y="422"/>
      <point x="0" y="188"/>
      <point x="0" y="62" type="curve" smooth="yes"/>
      <point x="0" y="18"/>
      <point x="27" y="-2"/>
    </contour>
  </outline>
</glyph>
<glyph name="y" format="1">
  <advance width="1598"/>
  <unicode hex="0079"/>
  <outline>
    <contour>
      <point x="87" y="-787" type="curve" smooth="yes"/>
      <point x="311" y="-787"/>
      <point x="457" y="-709"/>
      <point x="833" y="-235" type="curve"/>
      <point x="1235" y="-46"/>
      <point x="1320" y="56"/>
      <point x="1598" y="389" type="curve"/>
      <point x="1577" y="406" type="line"/>
      <point x="1321" y="93"/>
      <point x="1237" y="-14"/>
      <point x="868" y="-191" type="curve"/>
      <point x="962" y="-71"/>
      <point x="1070" y="72"/>
      <point x="1197" y="244" type="curve"/>
      <point x="1545" y="673" type="line"/>
      <point x="1528" y="670"/>
      <point x="1490" y="669"/>
      <point x="1473" y="669" type="curve" smooth="yes"/>
      <point x="1450" y="669"/>
      <point x="1425" y="673"/>
      <point x="1411" y="676" type="curve"/>
      <point x="1357" y="609"/>
      <point x="1282" y="515"/>
      <point x="1146" y="366" type="curve"/>
      <point x="1012" y="202"/>
      <point x="802" y="24"/>
      <point x="622" y="24" type="curve" smooth="yes" name="hr00"/>
      <point x="602" y="24"/>
      <point x="571" y="26"/>
      <point x="571" y="70" type="curve" smooth="yes"/>
      <point x="571" y="141"/>
      <point x="753" y="328"/>
      <point x="814" y="398" type="curve"/>
      <point x="907" y="498"/>
      <point x="941" y="552"/>
      <point x="1080" y="676" type="curve"/>
      <point x="1062" y="674"/>
      <point x="1039" y="673"/>
      <point x="1009" y="673" type="curve" smooth="yes"/>
      <point x="978" y="673"/>
      <point x="965" y="675"/>
      <point x="923" y="679" type="curve"/>
      <point x="823" y="578"/>
      <point x="734" y="490"/>
      <point x="673" y="415" type="curve"/>
      <point x="527" y="209"/>
      <point x="502" y="152"/>
      <point x="502" y="81" type="curve" smooth="yes"/>
      <point x="502" y="30"/>
      <point x="540" y="-2"/>
      <point x="614" y="-2" type="curve" smooth="yes"/>
      <point x="776" y="-2"/>
      <point x="991" y="152"/>
      <point x="1104" y="272" type="curve"/>
      <point x="1115" y="268" type="line"/>
      <point x="950" y="56"/>
      <point x="818" y="-113"/>
      <point x="708" y="-248" type="curve"/>
      <point x="159" y="-479"/>
      <point x="0" y="-612"/>
      <point x="0" y="-720" type="curve" smooth="yes"/>
      <point x="0" y="-751"/>
      <point x="30" y="-787"/>
    </contour>
    <contour>
      <point x="91" y="-760" type="curve" smooth="yes"/>
      <point x="49" y="-760"/>
      <point x="32" y="-735"/>
      <point x="32" y="-720" type="curve" smooth="yes"/>
      <point x="32" y="-607"/>
      <point x="216" y="-486"/>
      <point x="673" y="-291" type="curve"/>
      <point x="358" y="-675"/>
      <point x="240" y="-760"/>
    </contour>
  </outline>
</glyph>
<glyph name="braceleft" format="1">
  <advance width="1065"/>
  <unicode hex="007B"/>
  <outline>
    <contour>
      <point x="137" y="-196" type="curve" smooth="yes"/>
      <point x="144" y="-196"/>
      <point x="149" y="-193"/>
      <point x="149" y="-184" type="curve" smooth="yes"/>
      <point x="149" y="-178"/>
      <point x="147" y="-173"/>
      <point x="140" y="-168" type="curve" smooth="yes"/>
      <point x="104" y="-137"/>
      <point x="90" y="-100"/>
      <point x="90" y="-28" type="curve" smooth="yes"/>
      <point x="90" y="84"/>
      <point x="137" y="194"/>
      <point x="218" y="360" type="curve" smooth="yes"/>
      <point x="264" y="454"/>
      <point x="289" y="515"/>
      <point x="289" y="569" type="curve" smooth="yes"/>
      <point x="289" y="598"/>
      <point x="276" y="632"/>
      <point x="250" y="656" type="curve"/>
      <point x="332" y="682"/>
      <point x="422" y="750"/>
      <point x="481" y="823" type="curve"/>
      <point x="578" y="947"/>
      <point x="639" y="1047"/>
      <point x="686" y="1124" type="curve" smooth="yes"/>
      <point x="750" y="1231"/>
      <point x="777" y="1271"/>
      <point x="826" y="1314" type="curve" smooth="yes"/>
      <point x="878" y="1360"/>
      <point x="921" y="1386"/>
      <point x="1034" y="1396" type="curve" smooth="yes"/>
      <point x="1056" y="1398"/>
      <point x="1065" y="1399"/>
      <point x="1065" y="1408" type="curve" smooth="yes"/>
      <point x="1065" y="1414"/>
      <point x="1061" y="1419"/>
      <point x="1045" y="1419" type="curve" smooth="yes"/>
      <point x="954" y="1419"/>
      <point x="840" y="1387"/>
      <point x="758" y="1327" type="curve"/>
      <point x="628" y="1229"/>
      <point x="549" y="1127"/>
      <point x="336" y="820" type="curve"/>
      <point x="263" y="712"/>
      <point x="236" y="692"/>
      <point x="157" y="692" type="curve" smooth="yes"/>
      <point x="140" y="692"/>
      <point x="134" y="687"/>
      <point x="134" y="682" type="curve" smooth="yes"/>
      <point x="134" y="676"/>
      <point x="140" y="670"/>
      <point x="148" y="667" type="curve" smooth="yes"/>
      <point x="173" y="655"/>
      <point x="185" y="637"/>
      <point x="185" y="603" type="curve" smooth="yes"/>
      <point x="185" y="572"/>
      <point x="173" y="536"/>
      <point x="99" y="380" type="curve"/>
      <point x="48" y="269"/>
      <point x="0" y="184"/>
      <point x="0" y="82" type="curve" smooth="yes" name="hr00"/>
      <point x="0" y="-17"/>
      <point x="30" y="-85"/>
      <point x="107" y="-177" type="curve"/>
      <point x="118" y="-193"/>
      <point x="129" y="-196"/>
    </contour>
  </outline>
</glyph>
<glyph name="exclamdown" format="1">
  <advance width="940"/>
  <unicode hex="00A1"/>
  <outline>
    <contour>
      <point x="0" y="-150" type="curve"/>
      <point x="17" y="-147"/>
      <point x="57" y="-146"/>
      <point x="67" y="-146" type="curve" smooth="yes"/>
      <point x="120" y="-144"/>
      <point x="158" y="-147"/>
      <point x="174" y="-150" type="curve"/>
      <point x="215" y="-90" type="line" smooth="yes"/>
      <point x="306" y="44"/>
      <point x="604" y="529"/>
      <point x="728" y="759" type="curve" smooth="yes"/>
      <point x="741" y="782"/>
      <point x="746" y="796"/>
      <point x="746" y="803" type="curve" smooth="yes"/>
      <point x="746" y="811"/>
      <point x="742" y="814"/>
      <point x="736" y="814" type="curve" smooth="yes"/>
      <point x="730" y="814"/>
      <point x="723" y="811"/>
      <point x="714" y="798" type="curve" smooth="yes"/>
      <point x="688" y="762"/>
      <point x="616" y="659"/>
      <point x="499" y="495" type="curve" smooth="yes"/>
      <point x="372" y="315"/>
      <point x="231" y="109"/>
    </contour>
    <contour>
      <point x="839" y="975" type="curve" smooth="yes" name="hr00"/>
      <point x="894" y="975"/>
      <point x="940" y="1021"/>
      <point x="940" y="1067" type="curve" smooth="yes"/>
      <point x="940" y="1104"/>
      <point x="915" y="1131"/>
      <point x="878" y="1131" type="curve" smooth="yes"/>
      <point x="829" y="1131"/>
      <point x="778" y="1086"/>
      <point x="778" y="1038" type="curve" smooth="yes"/>
      <point x="778" y="1000"/>
      <point x="801" y="975"/>
    </contour>
  </outline>
</glyph>
<glyph name="cent" format="1">
  <advance width="1018"/>
  <unicode hex="00A2"/>
  <outline>
    <contour>
      <point x="0" y="22" type="line" name="hr00"/>
      <point x="4" y="23"/>
      <point x="8" y="24"/>
      <point x="15" y="24" type="curve" smooth="yes"/>
      <point x="22" y="24"/>
      <point x="28" y="23"/>
      <point x="38" y="22" type="curve"/>
      <point x="278" y="355" type="line"/>
      <point x="295" y="350"/>
      <point x="314" y="348"/>
      <point x="334" y="348" type="curve" smooth="yes"/>
      <point x="410" y="348"/>
      <point x="526" y="400"/>
      <point x="603" y="512" type="curve"/>
      <point x="619" y="537"/>
      <point x="622" y="541"/>
      <point x="622" y="549" type="curve" smooth="yes"/>
      <point x="622" y="555"/>
      <point x="617" y="560"/>
      <point x="611" y="560" type="curve" smooth="yes"/>
      <point x="605" y="560"/>
      <point x="601" y="557"/>
      <point x="591" y="541" type="curve" smooth="yes"/>
      <point x="512" y="423"/>
      <point x="408" y="376"/>
      <point x="345" y="376" type="curve" smooth="yes"/>
      <point x="328" y="376"/>
      <point x="314" y="380"/>
      <point x="302" y="387" type="curve"/>
      <point x="722" y="969" type="line"/>
      <point x="746" y="958"/>
      <point x="761" y="940"/>
      <point x="761" y="921" type="curve" smooth="yes"/>
      <point x="761" y="909"/>
      <point x="759" y="900"/>
      <point x="756" y="891" type="curve"/>
      <point x="750" y="892"/>
      <point x="745" y="893"/>
      <point x="739" y="893" type="curve" smooth="yes"/>
      <point x="706" y="893"/>
      <point x="687" y="865"/>
      <point x="687" y="845" type="curve" smooth="yes"/>
      <point x="687" y="816"/>
      <point x="706" y="797"/>
      <point x="729" y="797" type="curve" smooth="yes"/>
      <point x="757" y="797"/>
      <point x="795" y="820"/>
      <point x="795" y="901" type="curve"/>
      <point x="789" y="940"/>
      <point x="767" y="970"/>
      <point x="736" y="988" type="curve"/>
      <point x="1018" y="1378" type="line"/>
      <point x="1013" y="1377"/>
      <point x="1008" y="1376"/>
      <point x="1001" y="1376" type="curve" smooth="yes"/>
      <point x="992" y="1376"/>
      <point x="985" y="1377"/>
      <point x="980" y="1379" type="curve"/>
      <point x="707" y="1000" type="line"/>
      <point x="693" y="1005"/>
      <point x="678" y="1007"/>
      <point x="662" y="1007" type="curve" smooth="yes"/>
      <point x="630" y="1006"/>
      <point x="593" y="998"/>
      <point x="558" y="985" type="curve" smooth="yes"/>
      <point x="464" y="951"/>
      <point x="365" y="874"/>
      <point x="274" y="767" type="curve"/>
      <point x="201" y="678"/>
      <point x="162" y="587"/>
      <point x="162" y="498" type="curve" smooth="yes"/>
      <point x="162" y="444"/>
      <point x="191" y="392"/>
      <point x="248" y="365" type="curve"/>
    </contour>
    <contour>
      <point x="279" y="409" type="line"/>
      <point x="268" y="425"/>
      <point x="263" y="446"/>
      <point x="263" y="470" type="curve" smooth="yes"/>
      <point x="263" y="609"/>
      <point x="558" y="980"/>
      <point x="673" y="980" type="curve" smooth="yes"/>
      <point x="679" y="980"/>
      <point x="685" y="979"/>
      <point x="691" y="978" type="curve"/>
    </contour>
  </outline>
</glyph>
<glyph name="section" format="1">
  <advance width="1186"/>
  <unicode hex="00A7"/>
  <outline>
    <contour>
      <point x="211" y="-231" type="curve" smooth="yes"/>
      <point x="436" y="-231"/>
      <point x="591" y="-46"/>
      <point x="596" y="152" type="curve" smooth="yes"/>
      <point x="597" y="194"/>
      <point x="591" y="234"/>
      <point x="576" y="278" type="curve"/>
      <point x="740" y="300"/>
      <point x="868" y="411"/>
      <point x="873" y="581" type="curve" smooth="yes"/>
      <point x="875" y="658"/>
      <point x="834" y="756"/>
      <point x="781" y="856" type="curve"/>
      <point x="725" y="968"/>
      <point x="691" y="1034"/>
      <point x="693" y="1106" type="curve" smooth="yes" name="hr03"/>
      <point x="695" y="1200"/>
      <point x="747" y="1276"/>
      <point x="822" y="1319" type="curve" smooth="yes"/>
      <point x="866" y="1343"/>
      <point x="924" y="1362"/>
      <point x="981" y="1362" type="curve" smooth="yes"/>
      <point x="1083" y="1362"/>
      <point x="1150" y="1296"/>
      <point x="1148" y="1219" type="curve" smooth="yes"/>
      <point x="1147" y="1201"/>
      <point x="1144" y="1184"/>
      <point x="1133" y="1167" type="curve"/>
      <point x="1123" y="1181"/>
      <point x="1110" y="1188"/>
      <point x="1094" y="1188" type="curve" smooth="yes"/>
      <point x="1067" y="1188"/>
      <point x="1041" y="1165"/>
      <point x="1039" y="1134" type="curve"/>
      <point x="1039" y="1108"/>
      <point x="1060" y="1091"/>
      <point x="1086" y="1091" type="curve" smooth="yes"/>
      <point x="1140" y="1091"/>
      <point x="1183" y="1157"/>
      <point x="1185" y="1218" type="curve" smooth="yes"/>
      <point x="1188" y="1309"/>
      <point x="1099" y="1384"/>
      <point x="984" y="1384" type="curve" smooth="yes"/>
      <point x="902" y="1384"/>
      <point x="825" y="1361"/>
      <point x="764" y="1317" type="curve" smooth="yes"/>
      <point x="660" y="1244"/>
      <point x="593" y="1123"/>
      <point x="589" y="1001" type="curve" smooth="yes"/>
      <point x="588" y="959"/>
      <point x="594" y="919"/>
      <point x="609" y="875" type="curve"/>
      <point x="445" y="852"/>
      <point x="317" y="741"/>
      <point x="312" y="572" type="curve" smooth="yes"/>
      <point x="310" y="495"/>
      <point x="352" y="398"/>
      <point x="403" y="295" type="curve"/>
      <point x="463" y="185"/>
      <point x="493" y="117"/>
      <point x="493" y="47" type="curve" name="hr04"/>
      <point x="488" y="-111"/>
      <point x="370" y="-206"/>
      <point x="212" y="-206" type="curve" smooth="yes"/>
      <point x="112" y="-206"/>
      <point x="39" y="-144"/>
      <point x="41" y="-66" type="curve" smooth="yes"/>
      <point x="41" y="-48"/>
      <point x="42" y="-32"/>
      <point x="53" y="-15" type="curve"/>
      <point x="62" y="-27"/>
      <point x="75" y="-34"/>
      <point x="91" y="-34" type="curve" smooth="yes"/>
      <point x="120" y="-34"/>
      <point x="145" y="-13"/>
      <point x="145" y="18" type="curve" smooth="yes"/>
      <point x="145" y="43"/>
      <point x="125" y="60"/>
      <point x="99" y="60" type="curve" smooth="yes"/>
      <point x="47" y="60"/>
      <point x="2" y="2"/>
      <point x="1" y="-58" type="curve" smooth="yes" name="hr01"/>
      <point x="-1" y="-149"/>
      <point x="96" y="-231"/>
    </contour>
    <contour>
      <point x="567" y="301" type="curve"/>
      <point x="555" y="333"/>
      <point x="538" y="367"/>
      <point x="517" y="406" type="curve" smooth="yes"/>
      <point x="456" y="515"/>
      <point x="434" y="583"/>
      <point x="436" y="650" type="curve" smooth="yes"/>
      <point x="439" y="759"/>
      <point x="516" y="835"/>
      <point x="618" y="853" type="curve"/>
      <point x="631" y="821"/>
      <point x="648" y="787"/>
      <point x="670" y="748" type="curve" smooth="yes"/>
      <point x="731" y="636"/>
      <point x="751" y="570"/>
      <point x="750" y="502" type="curve" smooth="yes"/>
      <point x="747" y="388"/>
      <point x="669" y="317"/>
    </contour>
  </outline>
</glyph>
<glyph name="copyright" format="1">
  <advance width="1036"/>
  <unicode hex="00A9"/>
  <outline>
    <contour>
      <point x="356" y="-107" type="curve" smooth="yes"/>
      <point x="579" y="-107"/>
      <point x="774" y="24"/>
      <point x="865" y="150" type="curve"/>
      <point x="928" y="199"/>
      <point x="1036" y="347"/>
      <point x="1036" y="539" type="curve" smooth="yes"/>
      <point x="1036" y="735"/>
      <point x="853" y="829"/>
      <point x="686" y="829" type="curve" smooth="yes"/>
      <point x="277" y="829"/>
      <point x="0" y="488"/>
      <point x="0" y="198" type="curve" smooth="yes" name="hr00"/>
      <point x="0" y="35"/>
      <point x="117" y="-107"/>
    </contour>
    <contour>
      <point x="426" y="88" type="curve" smooth="yes"/>
      <point x="503" y="88"/>
      <point x="593" y="129"/>
      <point x="652" y="186" type="curve" smooth="yes"/>
      <point x="663" y="196"/>
      <point x="668" y="203"/>
      <point x="668" y="211" type="curve" smooth="yes"/>
      <point x="668" y="214"/>
      <point x="663" y="222"/>
      <point x="655" y="222" type="curve" smooth="yes"/>
      <point x="652" y="222"/>
      <point x="644" y="217"/>
      <point x="638" y="211" type="curve" smooth="yes"/>
      <point x="576" y="152"/>
      <point x="506" y="121"/>
      <point x="451" y="121" type="curve" smooth="yes"/>
      <point x="370" y="121"/>
      <point x="315" y="177"/>
      <point x="320" y="282" type="curve" smooth="yes"/>
      <point x="328" y="459"/>
      <point x="479" y="600"/>
      <point x="620" y="600" type="curve" smooth="yes"/>
      <point x="682" y="600"/>
      <point x="702" y="571"/>
      <point x="702" y="512" type="curve" smooth="yes"/>
      <point x="702" y="498"/>
      <point x="711" y="487"/>
      <point x="733" y="487" type="curve" smooth="yes"/>
      <point x="757" y="487"/>
      <point x="777" y="513"/>
      <point x="777" y="534" type="curve" smooth="yes"/>
      <point x="777" y="571"/>
      <point x="732" y="624"/>
      <point x="636" y="624" type="curve" smooth="yes"/>
      <point x="431" y="624"/>
      <point x="234" y="477"/>
      <point x="224" y="272" type="curve"/>
      <point x="220" y="154"/>
      <point x="318" y="88"/>
    </contour>
    <contour>
      <point x="357" y="-72" type="curve" smooth="yes"/>
      <point x="126" y="-72"/>
      <point x="43" y="80"/>
      <point x="43" y="212" type="curve" smooth="yes"/>
      <point x="43" y="482"/>
      <point x="281" y="798"/>
      <point x="663" y="798" type="curve" smooth="yes"/>
      <point x="829" y="798"/>
      <point x="992" y="722"/>
      <point x="992" y="528" type="curve" smooth="yes"/>
      <point x="992" y="385"/>
      <point x="957" y="304"/>
      <point x="912" y="247" type="curve"/>
      <point x="910" y="263"/>
      <point x="891" y="262"/>
      <point x="871" y="218" type="curve"/>
      <point x="852" y="183" type="line"/>
      <point x="818" y="152" type="line"/>
      <point x="815" y="146"/>
      <point x="807" y="141"/>
      <point x="812" y="133" type="curve"/>
      <point x="812" y="132"/>
      <point x="813" y="131"/>
      <point x="814" y="131" type="curve"/>
      <point x="723" y="23"/>
      <point x="559" y="-72"/>
    </contour>
  </outline>
</glyph>
<glyph name="ordfeminine" format="1">
  <advance width="723"/>
  <unicode hex="00AA"/>
  <outline>
    <contour>
      <point x="103" y="869" type="curve" smooth="yes" name="hr00"/>
      <point x="169" y="869"/>
      <point x="265" y="926"/>
      <point x="392" y="1074" type="curve"/>
      <point x="399" y="1070" type="line"/>
      <point x="339" y="999"/>
      <point x="308" y="953"/>
      <point x="308" y="920" type="curve" smooth="yes"/>
      <point x="308" y="890"/>
      <point x="330" y="869"/>
      <point x="380" y="869" type="curve" smooth="yes"/>
      <point x="430" y="869"/>
      <point x="499" y="894"/>
      <point x="563" y="952" type="curve" smooth="yes"/>
      <point x="572" y="961"/>
      <point x="575" y="967"/>
      <point x="575" y="972" type="curve" smooth="yes"/>
      <point x="575" y="978"/>
      <point x="570" y="982"/>
      <point x="564" y="982" type="curve" smooth="yes"/>
      <point x="560" y="982"/>
      <point x="554" y="977"/>
      <point x="543" y="967" type="curve" smooth="yes"/>
      <point x="483" y="915"/>
      <point x="432" y="898"/>
      <point x="407" y="898" type="curve" smooth="yes"/>
      <point x="390" y="898"/>
      <point x="382" y="902"/>
      <point x="382" y="917" type="curve" smooth="yes"/>
      <point x="382" y="935"/>
      <point x="404" y="983"/>
      <point x="471" y="1062" type="curve"/>
      <point x="723" y="1365" type="line"/>
      <point x="709" y="1363"/>
      <point x="680" y="1362"/>
      <point x="667" y="1362" type="curve" smooth="yes"/>
      <point x="649" y="1362"/>
      <point x="623" y="1365"/>
      <point x="613" y="1368" type="curve"/>
      <point x="593" y="1343"/>
      <point x="571" y="1318"/>
      <point x="540" y="1282" type="curve"/>
      <point x="545" y="1297"/>
      <point x="547" y="1310"/>
      <point x="547" y="1321" type="curve" smooth="yes"/>
      <point x="547" y="1361"/>
      <point x="514" y="1384"/>
      <point x="463" y="1384" type="curve" smooth="yes"/>
      <point x="354" y="1384"/>
      <point x="237" y="1343"/>
      <point x="103" y="1188" type="curve" smooth="yes"/>
      <point x="38" y="1113"/>
      <point x="0" y="1034"/>
      <point x="0" y="968" type="curve" smooth="yes"/>
      <point x="0" y="904"/>
      <point x="38" y="869"/>
    </contour>
    <contour>
      <point x="106" y="895" type="curve" smooth="yes"/>
      <point x="87" y="895"/>
      <point x="79" y="906"/>
      <point x="79" y="938" type="curve" smooth="yes"/>
      <point x="79" y="986"/>
      <point x="113" y="1045"/>
      <point x="188" y="1135" type="curve" smooth="yes"/>
      <point x="317" y="1292"/>
      <point x="431" y="1352"/>
      <point x="480" y="1352" type="curve" smooth="yes"/>
      <point x="505" y="1352"/>
      <point x="522" y="1341"/>
      <point x="522" y="1319" type="curve" smooth="yes"/>
      <point x="522" y="1295"/>
      <point x="511" y="1263"/>
      <point x="494" y="1230" type="curve"/>
      <point x="413" y="1133" type="line" smooth="yes"/>
      <point x="253" y="942"/>
      <point x="157" y="895"/>
    </contour>
  </outline>
</glyph>
<glyph name="logicalnot" format="1">
  <advance width="711"/>
  <unicode hex="00AC"/>
  <outline>
    <contour>
      <point x="535" y="213" type="curve"/>
      <point x="711" y="518" type="line"/>
      <point x="38" y="518" type="line"/>
      <point x="33" y="503"/>
      <point x="8" y="472"/>
      <point x="0" y="462" type="curve" name="hr00"/>
      <point x="614" y="462" type="line"/>
      <point x="471" y="214" type="line"/>
      <point x="482" y="217"/>
      <point x="491" y="217"/>
      <point x="503" y="217" type="curve" smooth="yes"/>
      <point x="512" y="217"/>
      <point x="527" y="215"/>
    </contour>
  </outline>
</glyph>
<glyph name="registered" format="1">
  <advance width="1036"/>
  <unicode hex="00AE"/>
  <outline>
    <contour>
      <point x="356" y="491" type="curve" smooth="yes" name="hr00"/>
      <point x="579" y="491"/>
      <point x="774" y="624"/>
      <point x="865" y="750" type="curve"/>
      <point x="928" y="799"/>
      <point x="1036" y="946"/>
      <point x="1036" y="1138" type="curve" smooth="yes"/>
      <point x="1036" y="1334"/>
      <point x="851" y="1428"/>
      <point x="686" y="1428" type="curve" smooth="yes"/>
      <point x="277" y="1428"/>
      <point x="0" y="1086"/>
      <point x="0" y="798" type="curve" smooth="yes"/>
      <point x="0" y="634"/>
      <point x="116" y="491"/>
    </contour>
    <contour>
      <point x="592" y="675" type="curve" smooth="yes"/>
      <point x="631" y="675"/>
      <point x="702" y="695"/>
      <point x="717" y="711" type="curve"/>
      <point x="708" y="719"/>
      <point x="718" y="732"/>
      <point x="715" y="740" type="curve"/>
      <point x="706" y="730"/>
      <point x="669" y="725"/>
      <point x="659" y="725" type="curve" smooth="yes"/>
      <point x="631" y="725"/>
      <point x="602" y="766"/>
      <point x="572" y="839" type="curve"/>
      <point x="536" y="910"/>
      <point x="542" y="932"/>
      <point x="506" y="943" type="curve"/>
      <point x="632" y="963"/>
      <point x="801" y="1035"/>
      <point x="801" y="1155" type="curve" smooth="yes"/>
      <point x="801" y="1214"/>
      <point x="759" y="1275"/>
      <point x="579" y="1271" type="curve" smooth="yes"/>
      <point x="525" y="1270"/>
      <point x="458" y="1265"/>
      <point x="389" y="1254" type="curve"/>
      <point x="387" y="1245"/>
      <point x="384" y="1229"/>
      <point x="380" y="1219" type="curve"/>
      <point x="394" y="1225"/>
      <point x="434" y="1231"/>
      <point x="465" y="1235" type="curve"/>
      <point x="175" y="689" type="line"/>
      <point x="275" y="689" type="line"/>
      <point x="569" y="1240" type="line"/>
      <point x="575" y="1241"/>
      <point x="581" y="1241"/>
      <point x="588" y="1241" type="curve" smooth="yes"/>
      <point x="677" y="1241"/>
      <point x="698" y="1195"/>
      <point x="698" y="1150" type="curve" smooth="yes"/>
      <point x="698" y="1042"/>
      <point x="569" y="1003"/>
      <point x="476" y="982" type="curve"/>
      <point x="444" y="972"/>
      <point x="442" y="969"/>
      <point x="442" y="958" type="curve" smooth="yes"/>
      <point x="442" y="952"/>
      <point x="443" y="944"/>
      <point x="448" y="938" type="curve"/>
      <point x="464" y="913"/>
      <point x="467" y="904"/>
      <point x="482" y="842" type="curve"/>
      <point x="499" y="760"/>
      <point x="517" y="675"/>
    </contour>
    <contour>
      <point x="357" y="528" type="curve" smooth="yes"/>
      <point x="125" y="528"/>
      <point x="42" y="679"/>
      <point x="42" y="811" type="curve" smooth="yes"/>
      <point x="42" y="1082"/>
      <point x="280" y="1396"/>
      <point x="663" y="1396" type="curve" smooth="yes"/>
      <point x="829" y="1396"/>
      <point x="991" y="1321"/>
      <point x="991" y="1126" type="curve" smooth="yes"/>
      <point x="991" y="982"/>
      <point x="955" y="902"/>
      <point x="911" y="845" type="curve"/>
      <point x="910" y="862"/>
      <point x="891" y="862"/>
      <point x="871" y="817" type="curve" smooth="yes"/>
      <point x="866" y="806"/>
      <point x="860" y="794"/>
      <point x="853" y="783" type="curve"/>
      <point x="818" y="750" type="line" smooth="yes"/>
      <point x="814" y="746"/>
      <point x="806" y="740"/>
      <point x="810" y="733" type="curve" smooth="yes"/>
      <point x="811" y="731"/>
      <point x="812" y="730"/>
      <point x="814" y="729" type="curve"/>
      <point x="723" y="621"/>
      <point x="559" y="528"/>
    </contour>
  </outline>
</glyph>
<glyph name="macron" format="1">
  <advance width="544"/>
  <unicode hex="00AF"/>
  <outline>
    <contour>
      <point x="0" y="788" type="curve" name="hr00"/>
      <point x="483" y="788" type="line"/>
      <point x="496" y="806"/>
      <point x="519" y="826"/>
      <point x="544" y="842" type="curve"/>
      <point x="73" y="842" type="line"/>
      <point x="55" y="825"/>
      <point x="29" y="807"/>
    </contour>
  </outline>
</glyph>
<glyph name="plusminus" format="1">
  <advance width="744"/>
  <unicode hex="00B1"/>
  <outline>
    <contour>
      <point x="187" y="423" type="line" name="hr00"/>
      <point x="197" y="425"/>
      <point x="209" y="427"/>
      <point x="221" y="427" type="curve" smooth="yes"/>
      <point x="232" y="427"/>
      <point x="246" y="424"/>
      <point x="252" y="423" type="curve"/>
      <point x="434" y="716" type="line"/>
      <point x="704" y="716" type="line"/>
      <point x="718" y="739"/>
      <point x="726" y="753"/>
      <point x="744" y="771" type="curve"/>
      <point x="468" y="771" type="line"/>
      <point x="640" y="1048" type="line"/>
      <point x="623" y="1046"/>
      <point x="612" y="1044"/>
      <point x="599" y="1044" type="curve" smooth="yes"/>
      <point x="590" y="1044"/>
      <point x="577" y="1047"/>
      <point x="571" y="1048" type="curve"/>
      <point x="401" y="771" type="line"/>
      <point x="136" y="771" type="line"/>
      <point x="127" y="753"/>
      <point x="115" y="738"/>
      <point x="95" y="716" type="curve"/>
      <point x="367" y="716" type="line"/>
    </contour>
    <contour>
      <point x="0" y="130" type="curve"/>
      <point x="593" y="130" type="line"/>
      <point x="597" y="148"/>
      <point x="608" y="162"/>
      <point x="621" y="182" type="curve"/>
      <point x="42" y="182" type="line"/>
      <point x="31" y="162"/>
      <point x="20" y="152"/>
    </contour>
  </outline>
</glyph>
<glyph name="twosuperior" format="1">
  <advance width="834"/>
  <unicode hex="00B2"/>
  <outline>
    <contour>
      <point x="11" y="551" type="curve" smooth="yes" name="hr01"/>
      <point x="20" y="551"/>
      <point x="27" y="556"/>
      <point x="37" y="564" type="curve" smooth="yes"/>
      <point x="108" y="625"/>
      <point x="188" y="655"/>
      <point x="241" y="655" type="curve" smooth="yes"/>
      <point x="288" y="655"/>
      <point x="330" y="644"/>
      <point x="386" y="597" type="curve" smooth="yes"/>
      <point x="428" y="563"/>
      <point x="465" y="551"/>
      <point x="509" y="551" type="curve" smooth="yes" name="hr03"/>
      <point x="619" y="551"/>
      <point x="735" y="663"/>
      <point x="735" y="748" type="curve" smooth="yes"/>
      <point x="735" y="763"/>
      <point x="730" y="769"/>
      <point x="721" y="769" type="curve" smooth="yes"/>
      <point x="715" y="769"/>
      <point x="711" y="763"/>
      <point x="710" y="752" type="curve"/>
      <point x="701" y="693"/>
      <point x="639" y="632"/>
      <point x="567" y="632" type="curve" smooth="yes"/>
      <point x="539" y="632"/>
      <point x="514" y="643"/>
      <point x="476" y="667" type="curve"/>
      <point x="432" y="697"/>
      <point x="388" y="709"/>
      <point x="330" y="709" type="curve" smooth="yes" name="hr04"/>
      <point x="272" y="709"/>
      <point x="201" y="694"/>
      <point x="111" y="647" type="curve"/>
      <point x="168" y="693"/>
      <point x="225" y="724"/>
      <point x="390" y="798" type="curve"/>
      <point x="667" y="920"/>
      <point x="834" y="1072"/>
      <point x="834" y="1236" type="curve" smooth="yes"/>
      <point x="834" y="1332"/>
      <point x="767" y="1410"/>
      <point x="642" y="1410" type="curve" smooth="yes"/>
      <point x="444" y="1410"/>
      <point x="232" y="1187"/>
      <point x="232" y="1035" type="curve" smooth="yes"/>
      <point x="232" y="999"/>
      <point x="255" y="935"/>
      <point x="339" y="935" type="curve" smooth="yes"/>
      <point x="379" y="935"/>
      <point x="434" y="958"/>
      <point x="475" y="990" type="curve"/>
      <point x="534" y="1039"/>
      <point x="567" y="1085"/>
      <point x="567" y="1099" type="curve" smooth="yes"/>
      <point x="567" y="1106"/>
      <point x="563" y="1109"/>
      <point x="557" y="1109" type="curve" smooth="yes"/>
      <point x="551" y="1109"/>
      <point x="547" y="1106"/>
      <point x="538" y="1097" type="curve"/>
      <point x="476" y="1015"/>
      <point x="406" y="961"/>
      <point x="343" y="961" type="curve" smooth="yes"/>
      <point x="306" y="961"/>
      <point x="293" y="983"/>
      <point x="293" y="1017" type="curve" smooth="yes"/>
      <point x="293" y="1124"/>
      <point x="499" y="1382"/>
      <point x="638" y="1382" type="curve" smooth="yes"/>
      <point x="699" y="1382"/>
      <point x="736" y="1336"/>
      <point x="736" y="1264" type="curve" smooth="yes"/>
      <point x="736" y="1069"/>
      <point x="599" y="952"/>
      <point x="352" y="823" type="curve" smooth="yes"/>
      <point x="81" y="682"/>
      <point x="0" y="600"/>
      <point x="0" y="563" type="curve" smooth="yes"/>
      <point x="0" y="555"/>
      <point x="4" y="551"/>
    </contour>
  </outline>
</glyph>
<glyph name="threesuperior" format="1">
  <advance width="775"/>
  <unicode hex="00B3"/>
  <outline>
    <contour>
      <point x="229" y="551" type="curve" smooth="yes"/>
      <point x="450" y="551"/>
      <point x="659" y="678"/>
      <point x="659" y="837" type="curve" smooth="yes"/>
      <point x="659" y="920"/>
      <point x="585" y="986"/>
      <point x="506" y="999" type="curve" name="hr03"/>
      <point x="690" y="1072"/>
      <point x="775" y="1170"/>
      <point x="775" y="1254" type="curve" smooth="yes"/>
      <point x="775" y="1349"/>
      <point x="709" y="1410"/>
      <point x="566" y="1410" type="curve" smooth="yes"/>
      <point x="409" y="1410"/>
      <point x="245" y="1268"/>
      <point x="245" y="1156" type="curve" smooth="yes"/>
      <point x="245" y="1094"/>
      <point x="287" y="1062"/>
      <point x="337" y="1062" type="curve" smooth="yes"/>
      <point x="434" y="1062"/>
      <point x="512" y="1157"/>
      <point x="512" y="1249" type="curve" smooth="yes"/>
      <point x="512" y="1261"/>
      <point x="506" y="1264"/>
      <point x="502" y="1264" type="curve" smooth="yes"/>
      <point x="496" y="1264"/>
      <point x="493" y="1261"/>
      <point x="490" y="1249" type="curve" smooth="yes"/>
      <point x="469" y="1154"/>
      <point x="408" y="1088"/>
      <point x="342" y="1088" type="curve" smooth="yes"/>
      <point x="312" y="1088"/>
      <point x="298" y="1102"/>
      <point x="298" y="1132" type="curve" smooth="yes"/>
      <point x="298" y="1248"/>
      <point x="444" y="1383"/>
      <point x="556" y="1383" type="curve" smooth="yes"/>
      <point x="635" y="1383"/>
      <point x="677" y="1332"/>
      <point x="677" y="1262" type="curve" smooth="yes"/>
      <point x="677" y="1175"/>
      <point x="613" y="1093"/>
      <point x="436" y="1012" type="curve"/>
      <point x="352" y="972"/>
      <point x="314" y="955"/>
      <point x="285" y="913" type="curve" smooth="yes"/>
      <point x="280" y="907"/>
      <point x="280" y="899"/>
      <point x="287" y="894" type="curve" smooth="yes"/>
      <point x="296" y="889"/>
      <point x="306" y="890"/>
      <point x="312" y="897" type="curve"/>
      <point x="362" y="940"/>
      <point x="400" y="972"/>
      <point x="461" y="972" type="curve" smooth="yes"/>
      <point x="518" y="972"/>
      <point x="555" y="917"/>
      <point x="555" y="866" type="curve" smooth="yes"/>
      <point x="555" y="716"/>
      <point x="430" y="577"/>
      <point x="229" y="577" type="curve" smooth="yes"/>
      <point x="175" y="577"/>
      <point x="108" y="597"/>
      <point x="74" y="631" type="curve" name="hr01"/>
      <point x="76" y="640"/>
      <point x="78" y="654"/>
      <point x="78" y="660" type="curve" smooth="yes"/>
      <point x="78" y="692"/>
      <point x="64" y="709"/>
      <point x="40" y="709" type="curve" smooth="yes"/>
      <point x="15" y="709"/>
      <point x="0" y="689"/>
      <point x="0" y="669" type="curve" smooth="yes"/>
      <point x="0" y="620"/>
      <point x="95" y="551"/>
    </contour>
  </outline>
</glyph>
<glyph name="micro" format="1">
  <advance width="1585"/>
  <unicode hex="00B5"/>
  <unicode hex="03BC"/>
  <outline>
    <contour>
      <point x="75" y="-593" type="curve" smooth="yes"/>
      <point x="128" y="-593"/>
      <point x="155" y="-588"/>
      <point x="171" y="-585" type="curve"/>
      <point x="184" y="-563"/>
      <point x="394" y="-226"/>
      <point x="576" y="22" type="curve" name="hr00"/>
      <point x="591" y="7"/>
      <point x="615" y="-2"/>
      <point x="650" y="-2" type="curve" smooth="yes"/>
      <point x="726" y="-2"/>
      <point x="888" y="86"/>
      <point x="1072" y="249" type="curve"/>
      <point x="1033" y="179"/>
      <point x="1018" y="123"/>
      <point x="1018" y="73" type="curve" smooth="yes"/>
      <point x="1018" y="26"/>
      <point x="1044" y="-2"/>
      <point x="1088" y="-2" type="curve" smooth="yes"/>
      <point x="1155" y="-2"/>
      <point x="1240" y="28"/>
      <point x="1325" y="103" type="curve"/>
      <point x="1327" y="106"/>
      <point x="1330" y="113"/>
      <point x="1330" y="125" type="curve" smooth="yes"/>
      <point x="1330" y="131"/>
      <point x="1327" y="138"/>
      <point x="1325" y="139" type="curve"/>
      <point x="1244" y="59"/>
      <point x="1154" y="26"/>
      <point x="1106" y="26" type="curve" smooth="yes"/>
      <point x="1076" y="26"/>
      <point x="1065" y="36"/>
      <point x="1065" y="51" type="curve" smooth="yes"/>
      <point x="1065" y="70"/>
      <point x="1076" y="103"/>
      <point x="1141" y="178" type="curve" smooth="yes"/>
      <point x="1259" y="315"/>
      <point x="1461" y="538"/>
      <point x="1585" y="666" type="curve"/>
      <point x="1566" y="665"/>
      <point x="1542" y="663"/>
      <point x="1513" y="663" type="curve" smooth="yes"/>
      <point x="1482" y="663"/>
      <point x="1473" y="665"/>
      <point x="1431" y="670" type="curve"/>
      <point x="1338" y="580"/>
      <point x="1265" y="504"/>
      <point x="1207" y="436" type="curve" smooth="yes"/>
      <point x="1208" y="438" type="line"/>
      <point x="1200" y="428" type="line"/>
      <point x="1169" y="390" type="line"/>
      <point x="1109" y="320"/>
      <point x="1027" y="244"/>
      <point x="947" y="185" type="curve" smooth="yes"/>
      <point x="818" y="89"/>
      <point x="704" y="26"/>
      <point x="663" y="26" type="curve" smooth="yes"/>
      <point x="643" y="26"/>
      <point x="636" y="35"/>
      <point x="636" y="59" type="curve" smooth="yes"/>
      <point x="636" y="85"/>
      <point x="658" y="129"/>
      <point x="711" y="194" type="curve"/>
      <point x="796" y="295"/>
      <point x="976" y="500"/>
      <point x="1137" y="666" type="curve"/>
      <point x="1124" y="663"/>
      <point x="1083" y="663"/>
      <point x="1066" y="663" type="curve" smooth="yes"/>
      <point x="1040" y="663"/>
      <point x="985" y="666"/>
      <point x="968" y="670" type="curve"/>
      <point x="606" y="214"/>
      <point x="117" y="-442"/>
      <point x="0" y="-584" type="curve"/>
      <point x="17" y="-589"/>
      <point x="59" y="-593"/>
    </contour>
  </outline>
</glyph>
<glyph name="paragraph" format="1">
  <advance width="2063"/>
  <unicode hex="00B6"/>
  <outline>
    <contour>
      <point x="223" y="-220" type="curve" smooth="yes"/>
      <point x="306" y="-220"/>
      <point x="403" y="-178"/>
      <point x="526" y="-69" type="curve"/>
      <point x="549" y="-83"/>
      <point x="576" y="-90"/>
      <point x="608" y="-90" type="curve" smooth="yes"/>
      <point x="751" y="-90"/>
      <point x="966" y="34"/>
      <point x="1280" y="516" type="curve" smooth="yes"/>
      <point x="1477" y="818"/>
      <point x="1610" y="1023"/>
      <point x="1706" y="1158" type="curve"/>
      <point x="1732" y="1148" type="line" smooth="yes" name="hr03"/>
      <point x="1758" y="1138"/>
      <point x="1768" y="1126"/>
      <point x="1783" y="1126" type="curve" smooth="yes"/>
      <point x="1793" y="1126"/>
      <point x="1798" y="1130"/>
      <point x="1797" y="1143" type="curve"/>
      <point x="1794" y="1147"/>
      <point x="1793" y="1159"/>
      <point x="1752" y="1172" type="curve"/>
      <point x="1743" y="1174"/>
      <point x="1733" y="1177"/>
      <point x="1722" y="1181" type="curve"/>
      <point x="1840" y="1347"/>
      <point x="1897" y="1399"/>
      <point x="1948" y="1399" type="curve" smooth="yes"/>
      <point x="1965" y="1399"/>
      <point x="1979" y="1395"/>
      <point x="1990" y="1389" type="curve" name="hr04"/>
      <point x="1975" y="1382"/>
      <point x="1964" y="1362"/>
      <point x="1968" y="1341" type="curve" smooth="yes"/>
      <point x="1972" y="1314"/>
      <point x="1993" y="1290"/>
      <point x="2020" y="1290" type="curve" smooth="yes"/>
      <point x="2047" y="1290"/>
      <point x="2068" y="1312"/>
      <point x="2061" y="1352" type="curve" smooth="yes"/>
      <point x="2054" y="1389"/>
      <point x="2019" y="1425"/>
      <point x="1957" y="1425" type="curve" smooth="yes"/>
      <point x="1886" y="1425"/>
      <point x="1792" y="1415"/>
      <point x="1614" y="1210" type="curve"/>
      <point x="1563" y="1221"/>
      <point x="1499" y="1229"/>
      <point x="1423" y="1229" type="curve" smooth="yes"/>
      <point x="1024" y="1229"/>
      <point x="552" y="919"/>
      <point x="602" y="624" type="curve" smooth="yes"/>
      <point x="617" y="532"/>
      <point x="697" y="457"/>
      <point x="832" y="457" type="curve" smooth="yes"/>
      <point x="869" y="457"/>
      <point x="907" y="465"/>
      <point x="943" y="480" type="curve"/>
      <point x="568" y="-31"/>
      <point x="329" y="-196"/>
      <point x="222" y="-194" type="curve"/>
      <point x="100" y="-194"/>
      <point x="49" y="-143"/>
      <point x="42" y="-79" type="curve"/>
      <point x="41" y="-77"/>
      <point x="41" y="-74"/>
      <point x="41" y="-72" type="curve"/>
      <point x="55" y="-80"/>
      <point x="72" y="-80"/>
      <point x="90" y="-78" type="curve" smooth="yes"/>
      <point x="120" y="-75"/>
      <point x="144" y="-49"/>
      <point x="141" y="-24" type="curve" smooth="yes"/>
      <point x="138" y="9"/>
      <point x="108" y="19"/>
      <point x="87" y="17" type="curve" smooth="yes"/>
      <point x="46" y="14"/>
      <point x="-3" y="-15"/>
      <point x="1" y="-75" type="curve" name="hr01"/>
      <point x="9" y="-154"/>
      <point x="72" y="-220"/>
    </contour>
    <contour>
      <point x="610" y="-64" type="curve" smooth="yes"/>
      <point x="578" y="-64"/>
      <point x="564" y="-59"/>
      <point x="549" y="-48" type="curve"/>
      <point x="637" y="33"/>
      <point x="738" y="148"/>
      <point x="856" y="304" type="curve"/>
      <point x="1096" y="630"/>
      <point x="1258" y="892"/>
      <point x="1479" y="1204" type="curve"/>
      <point x="1523" y="1201"/>
      <point x="1562" y="1197"/>
      <point x="1597" y="1190" type="curve"/>
      <point x="1508" y="1084"/>
      <point x="1398" y="930"/>
      <point x="1260" y="706" type="curve" smooth="yes"/>
      <point x="854" y="49"/>
      <point x="692" y="-64"/>
    </contour>
    <contour>
      <point x="830" y="483" type="curve" smooth="yes"/>
      <point x="769" y="483"/>
      <point x="735" y="515"/>
      <point x="726" y="569" type="curve" smooth="yes"/>
      <point x="678" y="847"/>
      <point x="1111" y="1206"/>
      <point x="1407" y="1206" type="curve" smooth="yes"/>
      <point x="1418" y="1206"/>
      <point x="1429" y="1205"/>
      <point x="1439" y="1205" type="curve"/>
      <point x="1166" y="824"/>
      <point x="1245" y="897"/>
      <point x="975" y="523" type="curve"/>
      <point x="927" y="496"/>
      <point x="876" y="483"/>
    </contour>
  </outline>
</glyph>
<glyph name="ordmasculine" format="1">
  <advance width="539"/>
  <unicode hex="00BA"/>
  <outline>
    <contour>
      <point x="120" y="869" type="curve" smooth="yes" name="hr00"/>
      <point x="219" y="869"/>
      <point x="338" y="938"/>
      <point x="422" y="1034" type="curve" smooth="yes"/>
      <point x="491" y="1113"/>
      <point x="539" y="1208"/>
      <point x="539" y="1297" type="curve" smooth="yes"/>
      <point x="539" y="1345"/>
      <point x="504" y="1383"/>
      <point x="432" y="1383" type="curve" smooth="yes"/>
      <point x="302" y="1383"/>
      <point x="164" y="1281"/>
      <point x="86" y="1178" type="curve" smooth="yes"/>
      <point x="45" y="1124"/>
      <point x="0" y="1035"/>
      <point x="0" y="969" type="curve" smooth="yes"/>
      <point x="0" y="912"/>
      <point x="38" y="869"/>
    </contour>
    <contour>
      <point x="141" y="901" type="curve" smooth="yes"/>
      <point x="112" y="901"/>
      <point x="98" y="911"/>
      <point x="98" y="942" type="curve" smooth="yes"/>
      <point x="98" y="1002"/>
      <point x="137" y="1076"/>
      <point x="208" y="1157" type="curve" smooth="yes"/>
      <point x="319" y="1286"/>
      <point x="411" y="1347"/>
      <point x="455" y="1347" type="curve" smooth="yes"/>
      <point x="493" y="1347"/>
      <point x="513" y="1332"/>
      <point x="513" y="1292" type="curve" smooth="yes"/>
      <point x="513" y="1231"/>
      <point x="483" y="1167"/>
      <point x="442" y="1108" type="curve" smooth="yes"/>
      <point x="347" y="971"/>
      <point x="225" y="901"/>
    </contour>
  </outline>
</glyph>
<glyph name="guillemetright" format="1">
  <advance width="656"/>
  <unicode hex="00BB"/>
  <outline>
    <contour>
      <point x="302" y="141" type="curve" smooth="yes"/>
      <point x="310" y="141"/>
      <point x="318" y="147"/>
      <point x="335" y="165" type="curve"/>
      <point x="414" y="243"/>
      <point x="541" y="326"/>
      <point x="625" y="372" type="curve" smooth="yes"/>
      <point x="648" y="384"/>
      <point x="656" y="391"/>
      <point x="656" y="399" type="curve" smooth="yes"/>
      <point x="656" y="408"/>
      <point x="650" y="418"/>
      <point x="638" y="432" type="curve" smooth="yes"/>
      <point x="606" y="472"/>
      <point x="535" y="577"/>
      <point x="502" y="635" type="curve"/>
      <point x="497" y="649"/>
      <point x="491" y="653"/>
      <point x="485" y="653" type="curve" smooth="yes"/>
      <point x="478" y="653"/>
      <point x="475" y="650"/>
      <point x="475" y="640" type="curve" smooth="yes"/>
      <point x="475" y="630"/>
      <point x="477" y="616"/>
      <point x="481" y="605" type="curve" smooth="yes"/>
      <point x="494" y="561"/>
      <point x="515" y="498"/>
      <point x="543" y="427" type="curve"/>
      <point x="441" y="338"/>
      <point x="354" y="233"/>
      <point x="313" y="185" type="curve" smooth="yes"/>
      <point x="296" y="164"/>
      <point x="293" y="160"/>
      <point x="293" y="152" type="curve" smooth="yes" name="hr00"/>
      <point x="293" y="146"/>
      <point x="297" y="141"/>
    </contour>
    <contour>
      <point x="9" y="141" type="curve" smooth="yes"/>
      <point x="15" y="141"/>
      <point x="25" y="147"/>
      <point x="42" y="165" type="curve"/>
      <point x="122" y="243"/>
      <point x="248" y="326"/>
      <point x="332" y="372" type="curve" smooth="yes"/>
      <point x="354" y="384"/>
      <point x="363" y="391"/>
      <point x="363" y="399" type="curve" smooth="yes"/>
      <point x="363" y="408"/>
      <point x="356" y="418"/>
      <point x="344" y="432" type="curve" smooth="yes"/>
      <point x="312" y="472"/>
      <point x="241" y="577"/>
      <point x="209" y="635" type="curve" smooth="yes"/>
      <point x="202" y="649"/>
      <point x="198" y="653"/>
      <point x="191" y="653" type="curve" smooth="yes"/>
      <point x="185" y="653"/>
      <point x="181" y="650"/>
      <point x="181" y="640" type="curve" smooth="yes"/>
      <point x="181" y="630"/>
      <point x="184" y="616"/>
      <point x="188" y="605" type="curve"/>
      <point x="201" y="560"/>
      <point x="221" y="498"/>
      <point x="249" y="426" type="curve"/>
      <point x="148" y="338"/>
      <point x="61" y="233"/>
      <point x="20" y="185" type="curve" smooth="yes"/>
      <point x="3" y="164"/>
      <point x="0" y="160"/>
      <point x="0" y="152" type="curve" smooth="yes"/>
      <point x="0" y="146"/>
      <point x="4" y="141"/>
    </contour>
  </outline>
</glyph>
<glyph name="threequarters" format="1">
  <advance width="1878"/>
  <unicode hex="00BE"/>
  <outline>
    <contour>
      <point x="426" y="22" type="line" name="hr00"/>
      <point x="445" y="23"/>
      <point x="459" y="24"/>
      <point x="472" y="24" type="curve" smooth="yes"/>
      <point x="481" y="24"/>
      <point x="490" y="23"/>
      <point x="497" y="22" type="curve"/>
      <point x="1459" y="1371" type="line"/>
      <point x="1455" y="1370"/>
      <point x="1435" y="1368"/>
      <point x="1424" y="1368" type="curve" smooth="yes"/>
      <point x="1412" y="1368"/>
      <point x="1400" y="1370"/>
      <point x="1391" y="1373" type="curve"/>
    </contour>
    <contour>
      <point x="229" y="370" type="curve" smooth="yes"/>
      <point x="450" y="370"/>
      <point x="659" y="497"/>
      <point x="659" y="656" type="curve" smooth="yes"/>
      <point x="659" y="739"/>
      <point x="585" y="805"/>
      <point x="506" y="818" type="curve"/>
      <point x="690" y="891"/>
      <point x="775" y="989"/>
      <point x="775" y="1073" type="curve" smooth="yes"/>
      <point x="775" y="1168"/>
      <point x="709" y="1229"/>
      <point x="566" y="1229" type="curve" smooth="yes"/>
      <point x="409" y="1229"/>
      <point x="245" y="1087"/>
      <point x="245" y="975" type="curve" smooth="yes"/>
      <point x="245" y="913"/>
      <point x="287" y="881"/>
      <point x="337" y="881" type="curve" smooth="yes"/>
      <point x="434" y="881"/>
      <point x="512" y="976"/>
      <point x="512" y="1068" type="curve" smooth="yes"/>
      <point x="512" y="1080"/>
      <point x="506" y="1083"/>
      <point x="502" y="1083" type="curve" smooth="yes"/>
      <point x="496" y="1083"/>
      <point x="493" y="1080"/>
      <point x="490" y="1068" type="curve" smooth="yes"/>
      <point x="469" y="973"/>
      <point x="408" y="907"/>
      <point x="342" y="907" type="curve" smooth="yes"/>
      <point x="312" y="907"/>
      <point x="298" y="921"/>
      <point x="298" y="951" type="curve" smooth="yes"/>
      <point x="298" y="1067"/>
      <point x="444" y="1202"/>
      <point x="556" y="1202" type="curve" smooth="yes"/>
      <point x="635" y="1202"/>
      <point x="677" y="1151"/>
      <point x="677" y="1081" type="curve" smooth="yes"/>
      <point x="677" y="994"/>
      <point x="613" y="912"/>
      <point x="436" y="831" type="curve"/>
      <point x="352" y="791"/>
      <point x="314" y="774"/>
      <point x="285" y="732" type="curve" smooth="yes"/>
      <point x="280" y="726"/>
      <point x="280" y="718"/>
      <point x="287" y="713" type="curve" smooth="yes"/>
      <point x="296" y="708"/>
      <point x="306" y="709"/>
      <point x="312" y="716" type="curve"/>
      <point x="362" y="759"/>
      <point x="400" y="791"/>
      <point x="461" y="791" type="curve" smooth="yes"/>
      <point x="518" y="791"/>
      <point x="555" y="736"/>
      <point x="555" y="685" type="curve" smooth="yes"/>
      <point x="555" y="535"/>
      <point x="430" y="396"/>
      <point x="229" y="396" type="curve" smooth="yes"/>
      <point x="175" y="396"/>
      <point x="108" y="416"/>
      <point x="74" y="450" type="curve"/>
      <point x="76" y="459"/>
      <point x="78" y="473"/>
      <point x="78" y="479" type="curve" smooth="yes"/>
      <point x="78" y="511"/>
      <point x="64" y="528"/>
      <point x="40" y="528" type="curve" smooth="yes"/>
      <point x="15" y="528"/>
      <point x="0" y="508"/>
      <point x="0" y="488" type="curve" smooth="yes"/>
      <point x="0" y="439"/>
      <point x="95" y="370"/>
    </contour>
    <contour>
      <point x="1067" y="299" type="curve" smooth="yes"/>
      <point x="1052" y="299"/>
      <point x="1040" y="309"/>
      <point x="1040" y="325" type="curve" smooth="yes"/>
      <point x="1040" y="357"/>
      <point x="1106" y="409"/>
      <point x="1154" y="409" type="curve" smooth="yes"/>
      <point x="1174" y="409"/>
      <point x="1196" y="405"/>
      <point x="1225" y="397" type="curve"/>
      <point x="1212" y="385"/>
      <point x="1200" y="375"/>
      <point x="1189" y="366" type="curve" smooth="yes"/>
      <point x="1115" y="306"/>
      <point x="1093" y="299"/>
    </contour>
    <contour>
      <point x="1216" y="19" type="curve"/>
      <point x="1227" y="22"/>
      <point x="1248" y="24"/>
      <point x="1259" y="24" type="curve" smooth="yes"/>
      <point x="1277" y="24"/>
      <point x="1325" y="22"/>
      <point x="1342" y="19" type="curve"/>
      <point x="1397" y="109"/>
      <point x="1469" y="210"/>
      <point x="1544" y="305" type="curve"/>
      <point x="1589" y="297"/>
      <point x="1629" y="293"/>
      <point x="1664" y="293" type="curve" smooth="yes"/>
      <point x="1740" y="293"/>
      <point x="1813" y="312"/>
      <point x="1862" y="342" type="curve"/>
      <point x="1875" y="351"/>
      <point x="1878" y="358"/>
      <point x="1878" y="363" type="curve" smooth="yes"/>
      <point x="1878" y="367"/>
      <point x="1874" y="372"/>
      <point x="1866" y="372" type="curve" smooth="yes"/>
      <point x="1862" y="372"/>
      <point x="1856" y="369"/>
      <point x="1827" y="356" type="curve"/>
      <point x="1795" y="336"/>
      <point x="1736" y="323"/>
      <point x="1687" y="323" type="curve" smooth="yes"/>
      <point x="1660" y="323"/>
      <point x="1617" y="327"/>
      <point x="1569" y="336" type="curve"/>
      <point x="1672" y="463"/>
      <point x="1774" y="573"/>
      <point x="1837" y="617" type="curve" smooth="yes"/>
      <point x="1849" y="625"/>
      <point x="1854" y="630"/>
      <point x="1854" y="636" type="curve" smooth="yes"/>
      <point x="1854" y="641"/>
      <point x="1850" y="645"/>
      <point x="1843" y="645" type="curve" smooth="yes"/>
      <point x="1834" y="645"/>
      <point x="1829" y="644"/>
      <point x="1814" y="635" type="curve" smooth="yes"/>
      <point x="1734" y="586"/>
      <point x="1633" y="506"/>
      <point x="1493" y="353" type="curve"/>
      <point x="1472" y="358"/>
      <point x="1452" y="364"/>
      <point x="1433" y="370" type="curve" smooth="yes"/>
      <point x="1380" y="386"/>
      <point x="1340" y="399"/>
      <point x="1307" y="408" type="curve"/>
      <point x="1317" y="417" type="line" smooth="yes"/>
      <point x="1443" y="534"/>
      <point x="1533" y="628"/>
      <point x="1644" y="748" type="curve" smooth="yes"/>
      <point x="1691" y="799"/>
      <point x="1726" y="826"/>
      <point x="1758" y="846" type="curve" smooth="yes"/>
      <point x="1772" y="854"/>
      <point x="1777" y="856"/>
      <point x="1777" y="860" type="curve" smooth="yes"/>
      <point x="1777" y="865"/>
      <point x="1772" y="869"/>
      <point x="1756" y="869" type="curve" smooth="yes"/>
      <point x="1749" y="869"/>
      <point x="1687" y="864"/>
      <point x="1613" y="857" type="curve"/>
      <point x="1531" y="726"/>
      <point x="1367" y="534"/>
      <point x="1252" y="423" type="curve"/>
      <point x="1213" y="432"/>
      <point x="1188" y="435"/>
      <point x="1160" y="435" type="curve" smooth="yes"/>
      <point x="1068" y="435"/>
      <point x="1002" y="384"/>
      <point x="1002" y="334" type="curve" smooth="yes"/>
      <point x="1002" y="301"/>
      <point x="1021" y="274"/>
      <point x="1069" y="274" type="curve" smooth="yes"/>
      <point x="1125" y="274"/>
      <point x="1182" y="303"/>
      <point x="1276" y="382" type="curve"/>
      <point x="1347" y="358" type="line" smooth="yes"/>
      <point x="1389" y="343"/>
      <point x="1428" y="332"/>
      <point x="1465" y="322" type="curve"/>
      <point x="1393" y="242"/>
      <point x="1311" y="142"/>
    </contour>
  </outline>
</glyph>
<glyph name="Acircumflex" format="1">
  <advance width="2272"/>
  <unicode hex="00C2"/>
  <outline>
    <contour>
      <point x="212" y="-5" type="curve" smooth="yes"/>
      <point x="300" y="-5"/>
      <point x="385" y="19"/>
      <point x="470" y="73" type="curve" smooth="yes"/>
      <point x="522" y="105"/>
      <point x="592" y="157"/>
      <point x="687" y="237" type="curve"/>
      <point x="764" y="213"/>
      <point x="853" y="199"/>
      <point x="951" y="199" type="curve" smooth="yes"/>
      <point x="972" y="199"/>
      <point x="993" y="200"/>
      <point x="1014" y="201" type="curve"/>
      <point x="1011" y="194"/>
      <point x="1007" y="188"/>
      <point x="1003" y="182" type="curve" smooth="yes"/>
      <point x="955" y="123"/>
      <point x="906" y="63"/>
      <point x="855" y="-1" type="curve"/>
      <point x="874" y="1"/>
      <point x="890" y="5"/>
      <point x="913" y="5" type="curve" smooth="yes"/>
      <point x="939" y="5"/>
      <point x="988" y="1"/>
      <point x="1029" y="-1" type="curve"/>
      <point x="1200" y="225" type="line"/>
      <point x="1365" y="260"/>
      <point x="1519" y="330"/>
      <point x="1626" y="434" type="curve" smooth="yes"/>
      <point x="1706" y="512"/>
      <point x="1770" y="595"/>
      <point x="1778" y="710" type="curve"/>
      <point x="1778" y="726"/>
      <point x="1766" y="739"/>
      <point x="1762" y="739" type="curve" smooth="yes"/>
      <point x="1758" y="739"/>
      <point x="1753" y="727"/>
      <point x="1746" y="709" type="curve" smooth="yes"/>
      <point x="1668" y="503"/>
      <point x="1474" y="339"/>
      <point x="1232" y="267" type="curve"/>
      <point x="1934" y="1195"/>
      <point x="2047" y="1367"/>
      <point x="2098" y="1383" type="curve"/>
      <point x="2114" y="1389"/>
      <point x="2118" y="1393"/>
      <point x="2118" y="1395" type="curve" smooth="yes"/>
      <point x="2118" y="1403"/>
      <point x="2113" y="1404"/>
      <point x="2100" y="1404" type="curve" smooth="yes"/>
      <point x="2066" y="1404"/>
      <point x="2003" y="1389"/>
      <point x="1905" y="1337" type="curve" smooth="yes"/>
      <point x="1757" y="1259"/>
      <point x="1554" y="1105"/>
      <point x="1054" y="620" type="curve" smooth="yes"/>
      <point x="1027" y="593" type="line"/>
      <point x="953" y="749"/>
      <point x="811" y="869"/>
      <point x="631" y="869" type="curve" smooth="yes"/>
      <point x="437" y="869"/>
      <point x="330" y="741"/>
      <point x="337" y="602" type="curve" smooth="yes"/>
      <point x="344" y="460"/>
      <point x="459" y="321"/>
      <point x="652" y="249" type="curve"/>
      <point x="600" y="206"/>
      <point x="552" y="168"/>
      <point x="503" y="132" type="curve"/>
      <point x="402" y="62"/>
      <point x="309" y="22"/>
      <point x="220" y="22" type="curve" smooth="yes"/>
      <point x="90" y="22"/>
      <point x="40" y="68"/>
      <point x="40" y="132" type="curve" smooth="yes"/>
      <point x="40" y="139" type="line"/>
      <point x="53" y="130"/>
      <point x="70" y="129"/>
      <point x="88" y="129" type="curve" smooth="yes"/>
      <point x="118" y="129"/>
      <point x="144" y="152"/>
      <point x="144" y="178" type="curve" smooth="yes"/>
      <point x="144" y="211"/>
      <point x="116" y="223"/>
      <point x="94" y="223" type="curve" smooth="yes"/>
      <point x="53" y="223"/>
      <point x="0" y="201"/>
      <point x="0" y="141" type="curve" smooth="yes"/>
      <point x="0" y="60"/>
      <point x="71" y="-5"/>
    </contour>
    <contour>
      <point x="676" y="269" type="curve"/>
      <point x="491" y="334"/>
      <point x="399" y="465"/>
      <point x="399" y="604" type="curve"/>
      <point x="398" y="728"/>
      <point x="505" y="839"/>
      <point x="633" y="839" type="curve" smooth="yes"/>
      <point x="797" y="839"/>
      <point x="936" y="730"/>
      <point x="1004" y="572" type="curve"/>
      <point x="871" y="443"/>
      <point x="768" y="347"/>
    </contour>
    <contour>
      <point x="957" y="227" type="curve" smooth="yes"/>
      <point x="863" y="227"/>
      <point x="781" y="238"/>
      <point x="711" y="258" type="curve"/>
      <point x="794" y="330"/>
      <point x="895" y="422"/>
      <point x="1017" y="539" type="curve"/>
      <point x="1038" y="480"/>
      <point x="1050" y="415"/>
      <point x="1050" y="347" type="curve" smooth="yes"/>
      <point x="1050" y="317"/>
      <point x="1043" y="271"/>
      <point x="1027" y="230" type="curve"/>
      <point x="1004" y="228"/>
      <point x="980" y="227"/>
    </contour>
    <contour>
      <point x="1070" y="264" type="curve"/>
      <point x="1078" y="293"/>
      <point x="1082" y="323"/>
      <point x="1082" y="353" type="curve" smooth="yes"/>
      <point x="1082" y="424"/>
      <point x="1067" y="495"/>
      <point x="1041" y="562" type="curve"/>
      <point x="1105" y="624" type="line" smooth="yes"/>
      <point x="1486" y="996"/>
      <point x="1715" y="1195"/>
      <point x="1877" y="1294" type="curve" smooth="yes"/>
      <point x="1941" y="1332"/>
      <point x="1983" y="1349"/>
      <point x="2026" y="1366" type="curve"/>
      <point x="1915" y="1263"/>
      <point x="1634" y="955"/>
    </contour>
    <contour>
      <point x="2255" y="1436" type="curve" smooth="yes"/>
      <point x="2265" y="1436"/>
      <point x="2272" y="1446"/>
      <point x="2272" y="1450" type="curve" smooth="yes"/>
      <point x="2272" y="1456"/>
      <point x="2265" y="1460"/>
      <point x="2257" y="1472" type="curve"/>
      <point x="2237" y="1492"/>
      <point x="2224" y="1532"/>
      <point x="2224" y="1581" type="curve" smooth="yes"/>
      <point x="2224" y="1660"/>
      <point x="2238" y="1708"/>
      <point x="2249" y="1734" type="curve" smooth="yes"/>
      <point x="2254" y="1746"/>
      <point x="2255" y="1752"/>
      <point x="2255" y="1760" type="curve" smooth="yes"/>
      <point x="2255" y="1765"/>
      <point x="2251" y="1768"/>
      <point x="2247" y="1768" type="curve" smooth="yes"/>
      <point x="2236" y="1768"/>
      <point x="2226" y="1761"/>
      <point x="2188" y="1719" type="curve"/>
      <point x="2096" y="1632"/>
      <point x="2011" y="1565"/>
      <point x="1907" y="1487" type="curve" smooth="yes"/>
      <point x="1865" y="1455"/>
      <point x="1864" y="1450"/>
      <point x="1864" y="1442" type="curve" smooth="yes" name="hr00"/>
      <point x="1864" y="1438"/>
      <point x="1871" y="1438"/>
      <point x="1874" y="1438" type="curve" smooth="yes"/>
      <point x="1882" y="1438"/>
      <point x="1890" y="1442"/>
      <point x="1912" y="1456" type="curve" smooth="yes"/>
      <point x="1979" y="1499"/>
      <point x="2059" y="1550"/>
      <point x="2148" y="1619" type="curve"/>
      <point x="2150" y="1601"/>
      <point x="2153" y="1582"/>
      <point x="2159" y="1562" type="curve" smooth="yes"/>
      <point x="2182" y="1479"/>
      <point x="2233" y="1436"/>
    </contour>
  </outline>
</glyph>
<glyph name="Iacute" format="1">
  <advance width="2087"/>
  <unicode hex="00CD"/>
  <outline>
    <contour>
      <point x="227" y="-2" type="curve" smooth="yes"/>
      <point x="406" y="-2"/>
      <point x="636" y="127"/>
      <point x="851" y="337" type="curve"/>
      <point x="874" y="337" type="line" smooth="yes"/>
      <point x="1196" y="337"/>
      <point x="1578" y="634"/>
      <point x="1578" y="1017" type="curve" smooth="yes"/>
      <point x="1578" y="1048"/>
      <point x="1577" y="1066"/>
      <point x="1566" y="1066" type="curve" smooth="yes"/>
      <point x="1562" y="1066"/>
      <point x="1555" y="1067"/>
      <point x="1555" y="1036" type="curve" smooth="yes"/>
      <point x="1555" y="663"/>
      <point x="1168" y="365"/>
      <point x="886" y="365" type="curve" smooth="yes"/>
      <point x="878" y="365" type="line"/>
      <point x="967" y="455"/>
      <point x="1052" y="559"/>
      <point x="1131" y="673" type="curve" smooth="yes"/>
      <point x="1368" y="1017"/>
      <point x="1579" y="1229"/>
      <point x="1784" y="1320" type="curve"/>
      <point x="1814" y="1332"/>
      <point x="1839" y="1342"/>
      <point x="1878" y="1351" type="curve"/>
      <point x="1912" y="1351"/>
      <point x="1950" y="1349"/>
      <point x="2001" y="1352" type="curve" smooth="yes"/>
      <point x="2026" y="1353"/>
      <point x="2034" y="1362"/>
      <point x="2034" y="1371" type="curve" smooth="yes"/>
      <point x="2034" y="1379"/>
      <point x="2023" y="1385"/>
      <point x="1997" y="1385" type="curve" smooth="yes"/>
      <point x="1961" y="1385"/>
      <point x="1928" y="1378"/>
      <point x="1895" y="1378" type="curve" smooth="yes"/>
      <point x="1866" y="1378"/>
      <point x="1838" y="1383"/>
      <point x="1807" y="1385" type="curve"/>
      <point x="1779" y="1389"/>
      <point x="1751" y="1392"/>
      <point x="1720" y="1392" type="curve" smooth="yes"/>
      <point x="1113" y="1392"/>
      <point x="606" y="984"/>
      <point x="606" y="608" type="curve" smooth="yes"/>
      <point x="606" y="471"/>
      <point x="664" y="398"/>
      <point x="739" y="363" type="curve"/>
      <point x="524" y="106"/>
      <point x="379" y="24"/>
      <point x="225" y="24" type="curve" smooth="yes"/>
      <point x="114" y="24"/>
      <point x="48" y="75"/>
      <point x="42" y="139" type="curve" smooth="yes"/>
      <point x="42" y="145" type="line"/>
      <point x="55" y="138"/>
      <point x="72" y="138"/>
      <point x="89" y="140" type="curve"/>
      <point x="119" y="142"/>
      <point x="144" y="169"/>
      <point x="140" y="194" type="curve"/>
      <point x="137" y="227"/>
      <point x="107" y="237"/>
      <point x="85" y="235" type="curve" smooth="yes"/>
      <point x="44" y="231"/>
      <point x="-5" y="203"/>
      <point x="1" y="142" type="curve" smooth="yes"/>
      <point x="9" y="64"/>
      <point x="88" y="-2"/>
    </contour>
    <contour>
      <point x="757" y="384" type="curve"/>
      <point x="696" y="410"/>
      <point x="654" y="465"/>
      <point x="654" y="583" type="curve" smooth="yes"/>
      <point x="654" y="899"/>
      <point x="1309" y="1366"/>
      <point x="1722" y="1366" type="curve" smooth="yes"/>
      <point x="1749" y="1366"/>
      <point x="1793" y="1363"/>
      <point x="1827" y="1358" type="curve"/>
      <point x="1606" y="1316"/>
      <point x="1298" y="1117"/>
      <point x="916" y="592" type="curve" smooth="yes"/>
      <point x="859" y="513"/>
      <point x="806" y="444"/>
    </contour>
    <contour>
      <point x="1822" y="1459" type="curve" smooth="yes" name="hr00"/>
      <point x="1833" y="1459"/>
      <point x="1849" y="1467"/>
      <point x="1874" y="1482" type="curve" smooth="yes"/>
      <point x="1987" y="1547"/>
      <point x="2087" y="1651"/>
      <point x="2087" y="1713" type="curve" smooth="yes"/>
      <point x="2087" y="1751"/>
      <point x="2068" y="1768"/>
      <point x="2044" y="1768" type="curve" smooth="yes"/>
      <point x="2014" y="1768"/>
      <point x="1996" y="1744"/>
      <point x="1990" y="1697" type="curve"/>
      <point x="1979" y="1644"/>
      <point x="1967" y="1620"/>
      <point x="1950" y="1595" type="curve" smooth="yes"/>
      <point x="1922" y="1552"/>
      <point x="1874" y="1516"/>
      <point x="1837" y="1495" type="curve"/>
      <point x="1820" y="1482"/>
      <point x="1811" y="1477"/>
      <point x="1811" y="1471" type="curve" smooth="yes"/>
      <point x="1811" y="1471"/>
      <point x="1814" y="1459"/>
    </contour>
  </outline>
</glyph>
<glyph name="Ntilde" format="1">
  <advance width="2838"/>
  <unicode hex="00D1"/>
  <outline>
    <contour>
      <point x="954" y="-19" type="curve" smooth="yes" name="hr04"/>
      <point x="962" y="-19"/>
      <point x="975" y="-13"/>
      <point x="1010" y="28" type="curve" smooth="yes"/>
      <point x="1124" y="158"/>
      <point x="1367" y="466"/>
      <point x="1700" y="830" type="curve" smooth="yes"/>
      <point x="2118" y="1288"/>
      <point x="2388" y="1467"/>
      <point x="2612" y="1467" type="curve" smooth="yes"/>
      <point x="2714" y="1467"/>
      <point x="2774" y="1406"/>
      <point x="2774" y="1301" type="curve" smooth="yes"/>
      <point x="2774" y="1146"/>
      <point x="2596" y="980"/>
      <point x="2435" y="918" type="curve"/>
      <point x="2422" y="912"/>
      <point x="2418" y="907"/>
      <point x="2418" y="902" type="curve" smooth="yes"/>
      <point x="2418" y="898"/>
      <point x="2421" y="895"/>
      <point x="2429" y="895" type="curve" smooth="yes"/>
      <point x="2440" y="895"/>
      <point x="2463" y="902"/>
      <point x="2485" y="912" type="curve" smooth="yes"/>
      <point x="2695" y="1013"/>
      <point x="2839" y="1194"/>
      <point x="2837" y="1318" type="curve" smooth="yes"/>
      <point x="2836" y="1431"/>
      <point x="2763" y="1496"/>
      <point x="2623" y="1496" type="curve"/>
      <point x="2397" y="1493"/>
      <point x="2162" y="1353"/>
      <point x="1808" y="986" type="curve" smooth="yes"/>
      <point x="1544" y="714"/>
      <point x="1225" y="331"/>
      <point x="1099" y="178" type="curve"/>
      <point x="1246" y="437"/>
      <point x="1317" y="554"/>
      <point x="1398" y="774" type="curve" smooth="yes"/>
      <point x="1472" y="975"/>
      <point x="1493" y="1076"/>
      <point x="1523" y="1181" type="curve" smooth="yes"/>
      <point x="1539" y="1237"/>
      <point x="1555" y="1286"/>
      <point x="1588" y="1342" type="curve"/>
      <point x="1602" y="1368" type="line" smooth="yes"/>
      <point x="1605" y="1373"/>
      <point x="1606" y="1375"/>
      <point x="1606" y="1381" type="curve" smooth="yes"/>
      <point x="1606" y="1386"/>
      <point x="1602" y="1390"/>
      <point x="1597" y="1390" type="curve" smooth="yes"/>
      <point x="1590" y="1390"/>
      <point x="1585" y="1384"/>
      <point x="1572" y="1368" type="curve"/>
      <point x="1551" y="1336"/>
      <point x="1329" y="1050"/>
      <point x="911" y="578" type="curve" smooth="yes"/>
      <point x="540" y="161"/>
      <point x="323" y="25"/>
      <point x="199" y="25" type="curve" smooth="yes"/>
      <point x="90" y="25"/>
      <point x="40" y="67"/>
      <point x="40" y="125" type="curve" smooth="yes"/>
      <point x="40" y="131" type="line"/>
      <point x="53" y="123"/>
      <point x="70" y="121"/>
      <point x="88" y="121" type="curve" smooth="yes"/>
      <point x="117" y="121"/>
      <point x="144" y="145"/>
      <point x="144" y="171" type="curve" smooth="yes"/>
      <point x="144" y="203"/>
      <point x="115" y="217"/>
      <point x="93" y="217" type="curve" smooth="yes" name="hr05"/>
      <point x="52" y="217"/>
      <point x="0" y="193"/>
      <point x="0" y="133" type="curve" smooth="yes"/>
      <point x="0" y="59"/>
      <point x="65" y="-2"/>
      <point x="201" y="-2" type="curve" smooth="yes"/>
      <point x="367" y="-2"/>
      <point x="590" y="182"/>
      <point x="902" y="522" type="curve"/>
      <point x="1162" y="809"/>
      <point x="1278" y="956"/>
      <point x="1481" y="1209" type="curve"/>
      <point x="1319" y="931"/>
      <point x="1179" y="624"/>
      <point x="1108" y="388" type="curve" smooth="yes"/>
      <point x="1045" y="176"/>
      <point x="1017" y="87"/>
      <point x="967" y="26" type="curve" smooth="yes"/>
      <point x="962" y="19"/>
      <point x="953" y="13"/>
      <point x="948" y="8" type="curve"/>
      <point x="943" y="5"/>
      <point x="940" y="0"/>
      <point x="940" y="-5" type="curve" smooth="yes"/>
      <point x="940" y="-13"/>
      <point x="947" y="-19"/>
    </contour>
    <contour>
      <point x="508" y="815" type="curve" smooth="yes"/>
      <point x="665" y="815"/>
      <point x="823" y="923"/>
      <point x="823" y="1085" type="curve" smooth="yes"/>
      <point x="823" y="1166"/>
      <point x="775" y="1219"/>
      <point x="726" y="1219" type="curve" smooth="yes"/>
      <point x="694" y="1219"/>
      <point x="677" y="1196"/>
      <point x="677" y="1174" type="curve" smooth="yes"/>
      <point x="677" y="1147"/>
      <point x="701" y="1129"/>
      <point x="726" y="1129" type="curve" smooth="yes"/>
      <point x="743" y="1129"/>
      <point x="756" y="1139"/>
      <point x="765" y="1150" type="curve"/>
      <point x="781" y="1133"/>
      <point x="792" y="1109"/>
      <point x="792" y="1081" type="curve" smooth="yes"/>
      <point x="792" y="931"/>
      <point x="641" y="839"/>
      <point x="504" y="839" type="curve" smooth="yes"/>
      <point x="346" y="839"/>
      <point x="244" y="943"/>
      <point x="244" y="1085" type="curve" smooth="yes"/>
      <point x="244" y="1257"/>
      <point x="413" y="1385"/>
      <point x="612" y="1385" type="curve" smooth="yes"/>
      <point x="695" y="1385"/>
      <point x="764" y="1371"/>
      <point x="922" y="1280" type="curve" smooth="yes"/>
      <point x="1005" y="1231"/>
      <point x="1125" y="1198"/>
      <point x="1208" y="1198" type="curve" smooth="yes" name="hr06"/>
      <point x="1270" y="1198"/>
      <point x="1387" y="1236"/>
      <point x="1441" y="1288" type="curve"/>
      <point x="1452" y="1300"/>
      <point x="1455" y="1305"/>
      <point x="1455" y="1311" type="curve" smooth="yes"/>
      <point x="1455" y="1313"/>
      <point x="1451" y="1319"/>
      <point x="1447" y="1319" type="curve" smooth="yes"/>
      <point x="1441" y="1319"/>
      <point x="1436" y="1314"/>
      <point x="1424" y="1303" type="curve" smooth="yes"/>
      <point x="1387" y="1271"/>
      <point x="1329" y="1249"/>
      <point x="1280" y="1249" type="curve" smooth="yes"/>
      <point x="1236" y="1249"/>
      <point x="1186" y="1262"/>
      <point x="1141" y="1281" type="curve"/>
      <point x="1065" y="1316"/>
      <point x="1011" y="1343"/>
      <point x="943" y="1371" type="curve" smooth="yes"/>
      <point x="839" y="1414"/>
      <point x="759" y="1424"/>
      <point x="662" y="1424" type="curve" smooth="yes"/>
      <point x="395" y="1424"/>
      <point x="212" y="1279"/>
      <point x="212" y="1091" type="curve" smooth="yes"/>
      <point x="212" y="905"/>
      <point x="353" y="815"/>
    </contour>
    <contour>
      <point x="1787" y="1492" type="curve" smooth="yes" name="hr01"/>
      <point x="1794" y="1492"/>
      <point x="1799" y="1496"/>
      <point x="1806" y="1508" type="curve"/>
      <point x="1826" y="1560"/>
      <point x="1859" y="1586"/>
      <point x="1900" y="1586" type="curve" smooth="yes"/>
      <point x="1926" y="1586"/>
      <point x="1948" y="1577"/>
      <point x="1994" y="1547" type="curve" smooth="yes"/>
      <point x="2054" y="1507"/>
      <point x="2076" y="1500"/>
      <point x="2106" y="1500" type="curve" smooth="yes"/>
      <point x="2137" y="1500"/>
      <point x="2181" y="1521"/>
      <point x="2217" y="1560" type="curve" smooth="yes"/>
      <point x="2252" y="1598"/>
      <point x="2271" y="1635"/>
      <point x="2271" y="1658" type="curve" smooth="yes"/>
      <point x="2271" y="1662"/>
      <point x="2266" y="1669"/>
      <point x="2259" y="1669" type="curve" smooth="yes" name="hr02"/>
      <point x="2252" y="1669"/>
      <point x="2247" y="1663"/>
      <point x="2240" y="1651" type="curve"/>
      <point x="2219" y="1599"/>
      <point x="2187" y="1575"/>
      <point x="2148" y="1575" type="curve" smooth="yes"/>
      <point x="2124" y="1575"/>
      <point x="2091" y="1586"/>
      <point x="2041" y="1619" type="curve"/>
      <point x="1994" y="1652"/>
      <point x="1965" y="1660"/>
      <point x="1940" y="1660" type="curve" smooth="yes" name="hr03"/>
      <point x="1909" y="1660"/>
      <point x="1866" y="1639"/>
      <point x="1829" y="1599" type="curve" smooth="yes"/>
      <point x="1793" y="1562"/>
      <point x="1777" y="1526"/>
      <point x="1777" y="1504" type="curve" smooth="yes"/>
      <point x="1777" y="1497"/>
      <point x="1780" y="1492"/>
    </contour>
  </outline>
</glyph>
<glyph name="Ocircumflex" format="1">
  <advance width="1463"/>
  <unicode hex="00D4"/>
  <outline>
    <contour>
      <point x="282" y="-2" type="curve" smooth="yes"/>
      <point x="739" y="-2"/>
      <point x="1236" y="520"/>
      <point x="1236" y="899" type="curve" smooth="yes" name="hr02"/>
      <point x="1236" y="1053"/>
      <point x="1134" y="1121"/>
      <point x="1027" y="1121" type="curve" smooth="yes"/>
      <point x="721" y="1121"/>
      <point x="401" y="789"/>
      <point x="401" y="408" type="curve" smooth="yes"/>
      <point x="401" y="328"/>
      <point x="429" y="247"/>
      <point x="454" y="215" type="curve" smooth="yes"/>
      <point x="463" y="203"/>
      <point x="471" y="194"/>
      <point x="477" y="197" type="curve" smooth="yes"/>
      <point x="486" y="202"/>
      <point x="479" y="211"/>
      <point x="477" y="215" type="curve" smooth="yes"/>
      <point x="441" y="268"/>
      <point x="431" y="344"/>
      <point x="431" y="396" type="curve" smooth="yes"/>
      <point x="431" y="767"/>
      <point x="763" y="1093"/>
      <point x="1017" y="1093" type="curve" smooth="yes"/>
      <point x="1122" y="1093"/>
      <point x="1187" y="1040"/>
      <point x="1187" y="925" type="curve" smooth="yes"/>
      <point x="1187" y="538"/>
      <point x="654" y="23"/>
      <point x="294" y="23" type="curve" smooth="yes"/>
      <point x="146" y="23"/>
      <point x="73" y="112"/>
      <point x="73" y="237" type="curve" smooth="yes"/>
      <point x="73" y="644"/>
      <point x="748" y="1373"/>
      <point x="1181" y="1373" type="curve" smooth="yes"/>
      <point x="1359" y="1373"/>
      <point x="1435" y="1297"/>
      <point x="1435" y="1188" type="curve" smooth="yes"/>
      <point x="1435" y="1129"/>
      <point x="1411" y="1052"/>
      <point x="1394" y="1031" type="curve" smooth="yes"/>
      <point x="1386" y="1020"/>
      <point x="1384" y="1017"/>
      <point x="1384" y="1013" type="curve" smooth="yes"/>
      <point x="1384" y="1005"/>
      <point x="1386" y="1003"/>
      <point x="1392" y="1003" type="curve" smooth="yes"/>
      <point x="1399" y="1003"/>
      <point x="1407" y="1013"/>
      <point x="1418" y="1027" type="curve"/>
      <point x="1439" y="1058"/>
      <point x="1463" y="1140"/>
      <point x="1463" y="1190" type="curve" smooth="yes"/>
      <point x="1463" y="1312"/>
      <point x="1379" y="1401"/>
      <point x="1192" y="1401" type="curve" smooth="yes"/>
      <point x="640" y="1401"/>
      <point x="0" y="799"/>
      <point x="0" y="301" type="curve" smooth="yes"/>
      <point x="0" y="95"/>
      <point x="127" y="-2"/>
    </contour>
    <contour>
      <point x="1256" y="1436" type="curve" smooth="yes"/>
      <point x="1266" y="1436"/>
      <point x="1273" y="1446"/>
      <point x="1273" y="1450" type="curve" smooth="yes"/>
      <point x="1273" y="1456"/>
      <point x="1266" y="1460"/>
      <point x="1258" y="1472" type="curve"/>
      <point x="1238" y="1492"/>
      <point x="1225" y="1532"/>
      <point x="1225" y="1581" type="curve" smooth="yes"/>
      <point x="1225" y="1660"/>
      <point x="1239" y="1708"/>
      <point x="1250" y="1734" type="curve" smooth="yes"/>
      <point x="1255" y="1746"/>
      <point x="1256" y="1752"/>
      <point x="1256" y="1760" type="curve" smooth="yes"/>
      <point x="1256" y="1765"/>
      <point x="1252" y="1768"/>
      <point x="1248" y="1768" type="curve" smooth="yes"/>
      <point x="1237" y="1768"/>
      <point x="1227" y="1761"/>
      <point x="1189" y="1719" type="curve"/>
      <point x="1097" y="1632"/>
      <point x="1012" y="1565"/>
      <point x="908" y="1487" type="curve" smooth="yes"/>
      <point x="866" y="1455"/>
      <point x="865" y="1450"/>
      <point x="865" y="1442" type="curve" smooth="yes" name="hr01"/>
      <point x="865" y="1438"/>
      <point x="872" y="1438"/>
      <point x="875" y="1438" type="curve" smooth="yes"/>
      <point x="883" y="1438"/>
      <point x="891" y="1442"/>
      <point x="913" y="1456" type="curve" smooth="yes"/>
      <point x="980" y="1499"/>
      <point x="1060" y="1550"/>
      <point x="1149" y="1619" type="curve"/>
      <point x="1151" y="1601"/>
      <point x="1154" y="1582"/>
      <point x="1160" y="1562" type="curve" smooth="yes"/>
      <point x="1183" y="1479"/>
      <point x="1234" y="1436"/>
    </contour>
  </outline>
</glyph>
<glyph name="multiply" format="1">
  <advance width="663"/>
  <unicode hex="00D7"/>
  <outline>
    <contour>
      <point x="17" y="272" type="curve" name="hr00"/>
      <point x="319" y="477" type="line"/>
      <point x="416" y="272" type="line"/>
      <point x="432" y="285"/>
      <point x="444" y="295"/>
      <point x="464" y="303" type="curve"/>
      <point x="366" y="509" type="line"/>
      <point x="663" y="710" type="line"/>
      <point x="653" y="724"/>
      <point x="648" y="747"/>
      <point x="646" y="762" type="curve"/>
      <point x="344" y="557" type="line"/>
      <point x="252" y="752" type="line"/>
      <point x="238" y="733"/>
      <point x="229" y="727"/>
      <point x="208" y="716" type="curve"/>
      <point x="297" y="525" type="line"/>
      <point x="0" y="324" type="line"/>
      <point x="11" y="311"/>
      <point x="17" y="288"/>
    </contour>
  </outline>
</glyph>
<glyph name="Yacute" format="1">
  <advance width="1864"/>
  <unicode hex="00DD"/>
  <outline>
    <contour>
      <point x="270" y="-264" type="curve" smooth="yes"/>
      <point x="580" y="-264"/>
      <point x="979" y="38"/>
      <point x="1253" y="552" type="curve"/>
      <point x="1455" y="934"/>
      <point x="1630" y="1154"/>
      <point x="1795" y="1219" type="curve"/>
      <point x="1824" y="1229" type="line"/>
      <point x="1837" y="1232"/>
      <point x="1840" y="1237"/>
      <point x="1840" y="1241" type="curve" smooth="yes"/>
      <point x="1840" y="1248"/>
      <point x="1835" y="1253"/>
      <point x="1823" y="1253" type="curve" smooth="yes"/>
      <point x="1770" y="1253"/>
      <point x="1642" y="1187"/>
      <point x="1498" y="1024" type="curve"/>
      <point x="1017" y="488"/>
      <point x="798" y="374"/>
      <point x="711" y="374" type="curve" smooth="yes"/>
      <point x="664" y="374"/>
      <point x="644" y="406"/>
      <point x="644" y="445" type="curve" smooth="yes"/>
      <point x="644" y="518"/>
      <point x="746" y="638"/>
      <point x="907" y="795" type="curve"/>
      <point x="1154" y="1021"/>
      <point x="1209" y="1149"/>
      <point x="1209" y="1253" type="curve" smooth="yes"/>
      <point x="1209" y="1359"/>
      <point x="1097" y="1401"/>
      <point x="962" y="1401" type="curve" smooth="yes"/>
      <point x="632" y="1401"/>
      <point x="235" y="1074"/>
      <point x="235" y="852" type="curve" smooth="yes"/>
      <point x="235" y="781"/>
      <point x="274" y="734"/>
      <point x="353" y="734" type="curve" smooth="yes"/>
      <point x="557" y="734"/>
      <point x="931" y="1080"/>
      <point x="911" y="1267" type="curve"/>
      <point x="909" y="1277"/>
      <point x="904" y="1284"/>
      <point x="900" y="1284" type="curve" smooth="yes"/>
      <point x="897" y="1284"/>
      <point x="896" y="1282"/>
      <point x="890" y="1270" type="curve"/>
      <point x="869" y="1197"/>
      <point x="564" y="776"/>
      <point x="355" y="776" type="curve" smooth="yes"/>
      <point x="293" y="776"/>
      <point x="264" y="807"/>
      <point x="264" y="861" type="curve" smooth="yes"/>
      <point x="264" y="1052"/>
      <point x="652" y="1373"/>
      <point x="962" y="1373" type="curve" smooth="yes"/>
      <point x="1091" y="1373"/>
      <point x="1158" y="1337"/>
      <point x="1158" y="1264" type="curve" smooth="yes"/>
      <point x="1158" y="1227"/>
      <point x="1133" y="1184"/>
      <point x="921" y="976" type="curve"/>
      <point x="744" y="796"/>
      <point x="603" y="581"/>
      <point x="603" y="456" type="curve" smooth="yes"/>
      <point x="603" y="406"/>
      <point x="633" y="350"/>
      <point x="708" y="350" type="curve" smooth="yes" name="hr02"/>
      <point x="794" y="350"/>
      <point x="971" y="430"/>
      <point x="1297" y="768" type="curve"/>
      <point x="1203" y="645"/>
      <point x="1091" y="484"/>
      <point x="991" y="336" type="curve"/>
      <point x="729" y="-44"/>
      <point x="462" y="-238"/>
      <point x="276" y="-238" type="curve" smooth="yes"/>
      <point x="141" y="-238"/>
      <point x="40" y="-179"/>
      <point x="40" y="-106" type="curve" smooth="yes"/>
      <point x="40" y="-99"/>
      <point x="41" y="-92"/>
      <point x="43" y="-85" type="curve"/>
      <point x="55" y="-90"/>
      <point x="69" y="-91"/>
      <point x="83" y="-91" type="curve" smooth="yes"/>
      <point x="113" y="-91"/>
      <point x="140" y="-67"/>
      <point x="140" y="-42" type="curve" smooth="yes"/>
      <point x="140" y="-9"/>
      <point x="110" y="5"/>
      <point x="90" y="5" type="curve" smooth="yes"/>
      <point x="49" y="5"/>
      <point x="0" y="-31"/>
      <point x="0" y="-90" type="curve" smooth="yes"/>
      <point x="0" y="-198"/>
      <point x="119" y="-264"/>
    </contour>
    <contour>
      <point x="1599" y="1459" type="curve" smooth="yes" name="hr01"/>
      <point x="1610" y="1459"/>
      <point x="1626" y="1467"/>
      <point x="1651" y="1482" type="curve" smooth="yes"/>
      <point x="1764" y="1547"/>
      <point x="1864" y="1651"/>
      <point x="1864" y="1713" type="curve" smooth="yes"/>
      <point x="1864" y="1751"/>
      <point x="1845" y="1768"/>
      <point x="1821" y="1768" type="curve" smooth="yes"/>
      <point x="1791" y="1768"/>
      <point x="1773" y="1744"/>
      <point x="1767" y="1697" type="curve"/>
      <point x="1756" y="1644"/>
      <point x="1744" y="1620"/>
      <point x="1727" y="1595" type="curve" smooth="yes"/>
      <point x="1699" y="1552"/>
      <point x="1651" y="1516"/>
      <point x="1614" y="1495" type="curve"/>
      <point x="1597" y="1482"/>
      <point x="1588" y="1477"/>
      <point x="1588" y="1471" type="curve" smooth="yes"/>
      <point x="1588" y="1471"/>
      <point x="1591" y="1459"/>
    </contour>
  </outline>
</glyph>
<glyph name="Thorn" format="1">
  <advance width="2290"/>
  <unicode hex="00DE"/>
  <outline>
    <contour>
      <point x="82" y="-787" type="curve" smooth="yes"/>
      <point x="318" y="-787"/>
      <point x="647" y="-555"/>
      <point x="1372" y="416" type="curve" name="hr03"/>
      <point x="1572" y="610"/>
      <point x="1813" y="744"/>
      <point x="1952" y="744" type="curve" smooth="yes"/>
      <point x="2037" y="744"/>
      <point x="2075" y="683"/>
      <point x="2075" y="611" type="curve" smooth="yes"/>
      <point x="2075" y="327"/>
      <point x="1737" y="26"/>
      <point x="1516" y="26" type="curve" smooth="yes"/>
      <point x="1425" y="26"/>
      <point x="1398" y="74"/>
      <point x="1398" y="108" type="curve" smooth="yes"/>
      <point x="1398" y="234"/>
      <point x="1659" y="442"/>
      <point x="1867" y="442" type="curve" smooth="yes"/>
      <point x="1886" y="442"/>
      <point x="1899" y="447"/>
      <point x="1899" y="457" type="curve" smooth="yes"/>
      <point x="1899" y="462"/>
      <point x="1891" y="469"/>
      <point x="1878" y="469" type="curve" smooth="yes"/>
      <point x="1626" y="469"/>
      <point x="1366" y="239"/>
      <point x="1366" y="105" type="curve" smooth="yes"/>
      <point x="1366" y="60"/>
      <point x="1401" y="-2"/>
      <point x="1514" y="-2" type="curve" smooth="yes"/>
      <point x="1841" y="-2"/>
      <point x="2161" y="268"/>
      <point x="2161" y="561" type="curve" smooth="yes"/>
      <point x="2161" y="654"/>
      <point x="2116" y="773"/>
      <point x="1963" y="773" type="curve" smooth="yes"/>
      <point x="1807" y="773"/>
      <point x="1631" y="682"/>
      <point x="1457" y="531" type="curve"/>
      <point x="1514" y="608" type="line" smooth="yes"/>
      <point x="1578" y="696"/>
      <point x="1640" y="778"/>
      <point x="1699" y="852" type="curve"/>
      <point x="2018" y="945"/>
      <point x="2290" y="1146"/>
      <point x="2290" y="1324" type="curve" smooth="yes"/>
      <point x="2290" y="1357"/>
      <point x="2263" y="1384"/>
      <point x="2217" y="1384" type="curve" smooth="yes"/>
      <point x="2122" y="1384"/>
      <point x="1962" y="1286"/>
      <point x="1597" y="862" type="curve" name="hr04"/>
      <point x="1511" y="838"/>
      <point x="1426" y="825"/>
      <point x="1349" y="825" type="curve" smooth="yes"/>
      <point x="1148" y="825"/>
      <point x="979" y="911"/>
      <point x="979" y="1032" type="curve" smooth="yes"/>
      <point x="979" y="1244"/>
      <point x="1379" y="1446"/>
      <point x="1646" y="1446" type="curve" smooth="yes"/>
      <point x="1678" y="1446"/>
      <point x="1703" y="1442"/>
      <point x="1718" y="1442" type="curve" smooth="yes"/>
      <point x="1728" y="1442"/>
      <point x="1731" y="1444"/>
      <point x="1731" y="1450" type="curve" smooth="yes"/>
      <point x="1731" y="1460"/>
      <point x="1695" y="1467"/>
      <point x="1650" y="1467" type="curve" smooth="yes"/>
      <point x="1287" y="1467"/>
      <point x="936" y="1305"/>
      <point x="936" y="1077" type="curve" smooth="yes"/>
      <point x="936" y="905"/>
      <point x="1092" y="800"/>
      <point x="1351" y="800" type="curve" smooth="yes"/>
      <point x="1420" y="800"/>
      <point x="1491" y="807"/>
      <point x="1561" y="820" type="curve"/>
      <point x="1450" y="690"/>
      <point x="1323" y="532"/>
      <point x="1174" y="340" type="curve" smooth="yes"/>
      <point x="1087" y="228"/>
      <point x="1000" y="111"/>
      <point x="914" y="-2" type="curve" name="hr01"/>
      <point x="211" y="-306"/>
      <point x="0" y="-555"/>
      <point x="0" y="-710" type="curve" smooth="yes"/>
      <point x="0" y="-752"/>
      <point x="24" y="-787"/>
    </contour>
    <contour>
      <point x="83" y="-762" type="curve" smooth="yes"/>
      <point x="40" y="-762"/>
      <point x="31" y="-742"/>
      <point x="31" y="-717" type="curve" smooth="yes"/>
      <point x="31" y="-535"/>
      <point x="514" y="-239"/>
      <point x="885" y="-39" type="curve"/>
      <point x="594" y="-422"/>
      <point x="311" y="-762"/>
    </contour>
    <contour>
      <point x="1747" y="912" type="curve"/>
      <point x="1976" y="1196"/>
      <point x="2150" y="1362"/>
      <point x="2222" y="1362" type="curve" smooth="yes"/>
      <point x="2239" y="1362"/>
      <point x="2258" y="1355"/>
      <point x="2258" y="1335" type="curve" smooth="yes"/>
      <point x="2258" y="1203"/>
      <point x="2017" y="1019"/>
    </contour>
  </outline>
</glyph>
<glyph name="aacute" format="1">
  <advance width="1087"/>
  <unicode hex="00E1"/>
  <outline>
    <contour>
      <point x="123" y="-2" type="curve" smooth="yes"/>
      <point x="202" y="-2"/>
      <point x="348" y="72"/>
      <point x="511" y="272" type="curve"/>
      <point x="521" y="268" type="line"/>
      <point x="417" y="141"/>
      <point x="400" y="106"/>
      <point x="400" y="60" type="curve" smooth="yes"/>
      <point x="400" y="21"/>
      <point x="432" y="-2"/>
      <point x="500" y="-2" type="curve" smooth="yes"/>
      <point x="703" y="-2"/>
      <point x="953" y="306"/>
      <point x="1028" y="389" type="curve"/>
      <point x="1007" y="406" type="line"/>
      <point x="940" y="331"/>
      <point x="695" y="26"/>
      <point x="515" y="26" type="curve" smooth="yes"/>
      <point x="494" y="26"/>
      <point x="484" y="39"/>
      <point x="484" y="58" type="curve" smooth="yes"/>
      <point x="484" y="93"/>
      <point x="518" y="154"/>
      <point x="604" y="255" type="curve"/>
      <point x="941" y="661" type="line"/>
      <point x="924" y="658"/>
      <point x="884" y="657"/>
      <point x="866" y="657" type="curve" smooth="yes"/>
      <point x="844" y="657"/>
      <point x="819" y="661"/>
      <point x="806" y="665" type="curve"/>
      <point x="778" y="630"/>
      <point x="750" y="594"/>
      <point x="708" y="544" type="curve"/>
      <point x="716" y="564"/>
      <point x="720" y="584"/>
      <point x="720" y="603" type="curve" smooth="yes"/>
      <point x="720" y="654"/>
      <point x="665" y="685"/>
      <point x="596" y="685" type="curve" smooth="yes"/>
      <point x="458" y="685"/>
      <point x="303" y="632"/>
      <point x="123" y="423" type="curve"/>
      <point x="35" y="323"/>
      <point x="0" y="218"/>
      <point x="0" y="129" type="curve" smooth="yes"/>
      <point x="0" y="47"/>
      <point x="37" y="-2"/>
    </contour>
    <contour>
      <point x="127" y="28" type="curve" smooth="yes"/>
      <point x="96" y="28"/>
      <point x="82" y="42"/>
      <point x="82" y="80" type="curve" smooth="yes"/>
      <point x="82" y="144"/>
      <point x="123" y="238"/>
      <point x="223" y="358" type="curve" smooth="yes"/>
      <point x="397" y="565"/>
      <point x="556" y="654"/>
      <point x="622" y="654" type="curve" smooth="yes"/>
      <point x="657" y="654"/>
      <point x="692" y="635"/>
      <point x="692" y="594" type="curve" smooth="yes"/>
      <point x="692" y="552"/>
      <point x="663" y="498"/>
      <point x="632" y="452" type="curve"/>
      <point x="607" y="423"/>
      <point x="580" y="390"/>
      <point x="548" y="351" type="curve" smooth="yes"/>
      <point x="352" y="119"/>
      <point x="212" y="28"/>
    </contour>
    <contour>
      <point x="813" y="861" type="curve" smooth="yes" name="hr00"/>
      <point x="823" y="861"/>
      <point x="838" y="869"/>
      <point x="862" y="884" type="curve" smooth="yes"/>
      <point x="991" y="962"/>
      <point x="1087" y="1093"/>
      <point x="1087" y="1167" type="curve" smooth="yes"/>
      <point x="1087" y="1205"/>
      <point x="1069" y="1222"/>
      <point x="1044" y="1222" type="curve" smooth="yes"/>
      <point x="1013" y="1222"/>
      <point x="997" y="1199"/>
      <point x="991" y="1151" type="curve"/>
      <point x="980" y="1076"/>
      <point x="970" y="1039"/>
      <point x="951" y="1007" type="curve" smooth="yes"/>
      <point x="919" y="956"/>
      <point x="865" y="915"/>
      <point x="826" y="893" type="curve"/>
      <point x="809" y="881"/>
      <point x="801" y="879"/>
      <point x="801" y="871" type="curve" smooth="yes"/>
      <point x="801" y="866"/>
      <point x="805" y="861"/>
    </contour>
  </outline>
</glyph>
<glyph name="atilde" format="1">
  <advance width="1083"/>
  <unicode hex="00E3"/>
  <outline>
    <contour>
      <point x="123" y="-2" type="curve" smooth="yes"/>
      <point x="202" y="-2"/>
      <point x="348" y="72"/>
      <point x="511" y="272" type="curve"/>
      <point x="521" y="268" type="line"/>
      <point x="417" y="141"/>
      <point x="400" y="106"/>
      <point x="400" y="60" type="curve" smooth="yes"/>
      <point x="400" y="21"/>
      <point x="432" y="-2"/>
      <point x="500" y="-2" type="curve" smooth="yes"/>
      <point x="703" y="-2"/>
      <point x="953" y="306"/>
      <point x="1028" y="389" type="curve"/>
      <point x="1007" y="406" type="line"/>
      <point x="940" y="331"/>
      <point x="695" y="26"/>
      <point x="515" y="26" type="curve" smooth="yes"/>
      <point x="494" y="26"/>
      <point x="484" y="39"/>
      <point x="484" y="58" type="curve" smooth="yes"/>
      <point x="484" y="93"/>
      <point x="518" y="154"/>
      <point x="604" y="255" type="curve"/>
      <point x="941" y="661" type="line"/>
      <point x="924" y="658"/>
      <point x="884" y="657"/>
      <point x="866" y="657" type="curve" smooth="yes"/>
      <point x="844" y="657"/>
      <point x="819" y="661"/>
      <point x="806" y="665" type="curve"/>
      <point x="778" y="630"/>
      <point x="750" y="594"/>
      <point x="708" y="544" type="curve"/>
      <point x="716" y="564"/>
      <point x="720" y="584"/>
      <point x="720" y="603" type="curve" smooth="yes"/>
      <point x="720" y="654"/>
      <point x="665" y="685"/>
      <point x="596" y="685" type="curve" smooth="yes"/>
      <point x="458" y="685"/>
      <point x="303" y="632"/>
      <point x="123" y="423" type="curve"/>
      <point x="35" y="323"/>
      <point x="0" y="218"/>
      <point x="0" y="129" type="curve" smooth="yes"/>
      <point x="0" y="47"/>
      <point x="37" y="-2"/>
    </contour>
    <contour>
      <point x="127" y="28" type="curve" smooth="yes"/>
      <point x="96" y="28"/>
      <point x="82" y="42"/>
      <point x="82" y="80" type="curve" smooth="yes"/>
      <point x="82" y="144"/>
      <point x="123" y="238"/>
      <point x="223" y="358" type="curve" smooth="yes"/>
      <point x="397" y="565"/>
      <point x="556" y="654"/>
      <point x="622" y="654" type="curve" smooth="yes"/>
      <point x="657" y="654"/>
      <point x="692" y="635"/>
      <point x="692" y="594" type="curve" smooth="yes"/>
      <point x="692" y="552"/>
      <point x="663" y="498"/>
      <point x="632" y="452" type="curve"/>
      <point x="607" y="423"/>
      <point x="580" y="390"/>
      <point x="548" y="351" type="curve" smooth="yes"/>
      <point x="352" y="119"/>
      <point x="212" y="28"/>
    </contour>
    <contour>
      <point x="599" y="885" type="curve" smooth="yes" name="hr01"/>
      <point x="607" y="885"/>
      <point x="612" y="889"/>
      <point x="619" y="902" type="curve"/>
      <point x="639" y="953"/>
      <point x="671" y="978"/>
      <point x="712" y="978" type="curve" smooth="yes"/>
      <point x="739" y="978"/>
      <point x="761" y="969"/>
      <point x="805" y="941" type="curve" smooth="yes"/>
      <point x="866" y="901"/>
      <point x="888" y="893"/>
      <point x="918" y="893" type="curve" smooth="yes"/>
      <point x="950" y="893"/>
      <point x="994" y="913"/>
      <point x="1029" y="953" type="curve"/>
      <point x="1065" y="992"/>
      <point x="1083" y="1027"/>
      <point x="1083" y="1050" type="curve" smooth="yes"/>
      <point x="1083" y="1056"/>
      <point x="1079" y="1061"/>
      <point x="1071" y="1061" type="curve" smooth="yes" name="hr02"/>
      <point x="1065" y="1061"/>
      <point x="1060" y="1056"/>
      <point x="1053" y="1044" type="curve"/>
      <point x="1032" y="993"/>
      <point x="999" y="968"/>
      <point x="961" y="968" type="curve" smooth="yes"/>
      <point x="937" y="968"/>
      <point x="904" y="978"/>
      <point x="855" y="1011" type="curve" smooth="yes"/>
      <point x="805" y="1045"/>
      <point x="778" y="1053"/>
      <point x="752" y="1053" type="curve" smooth="yes" name="hr03"/>
      <point x="721" y="1053"/>
      <point x="679" y="1032"/>
      <point x="642" y="993" type="curve" smooth="yes"/>
      <point x="606" y="954"/>
      <point x="589" y="919"/>
      <point x="589" y="896" type="curve" smooth="yes"/>
      <point x="589" y="890"/>
      <point x="593" y="885"/>
    </contour>
  </outline>
</glyph>
<glyph name="adieresis" format="1">
  <advance width="1081"/>
  <unicode hex="00E4"/>
  <outline>
    <contour>
      <point x="123" y="-2" type="curve" smooth="yes"/>
      <point x="202" y="-2"/>
      <point x="348" y="72"/>
      <point x="511" y="272" type="curve"/>
      <point x="521" y="268" type="line"/>
      <point x="417" y="141"/>
      <point x="400" y="106"/>
      <point x="400" y="60" type="curve" smooth="yes"/>
      <point x="400" y="21"/>
      <point x="432" y="-2"/>
      <point x="500" y="-2" type="curve" smooth="yes"/>
      <point x="703" y="-2"/>
      <point x="953" y="306"/>
      <point x="1028" y="389" type="curve"/>
      <point x="1007" y="406" type="line"/>
      <point x="940" y="331"/>
      <point x="695" y="26"/>
      <point x="515" y="26" type="curve" smooth="yes"/>
      <point x="494" y="26"/>
      <point x="484" y="39"/>
      <point x="484" y="58" type="curve" smooth="yes"/>
      <point x="484" y="93"/>
      <point x="518" y="154"/>
      <point x="604" y="255" type="curve"/>
      <point x="941" y="661" type="line"/>
      <point x="924" y="658"/>
      <point x="884" y="657"/>
      <point x="866" y="657" type="curve" smooth="yes"/>
      <point x="844" y="657"/>
      <point x="819" y="661"/>
      <point x="806" y="665" type="curve"/>
      <point x="778" y="630"/>
      <point x="750" y="594"/>
      <point x="708" y="544" type="curve"/>
      <point x="716" y="564"/>
      <point x="720" y="584"/>
      <point x="720" y="603" type="curve" smooth="yes"/>
      <point x="720" y="654"/>
      <point x="665" y="685"/>
      <point x="596" y="685" type="curve" smooth="yes"/>
      <point x="458" y="685"/>
      <point x="303" y="632"/>
      <point x="123" y="423" type="curve"/>
      <point x="35" y="323"/>
      <point x="0" y="218"/>
      <point x="0" y="129" type="curve" smooth="yes"/>
      <point x="0" y="47"/>
      <point x="37" y="-2"/>
    </contour>
    <contour>
      <point x="127" y="28" type="curve" smooth="yes"/>
      <point x="96" y="28"/>
      <point x="82" y="42"/>
      <point x="82" y="80" type="curve" smooth="yes"/>
      <point x="82" y="144"/>
      <point x="123" y="238"/>
      <point x="223" y="358" type="curve" smooth="yes"/>
      <point x="397" y="565"/>
      <point x="556" y="654"/>
      <point x="622" y="654" type="curve" smooth="yes" name="hr02"/>
      <point x="657" y="654"/>
      <point x="692" y="635"/>
      <point x="692" y="594" type="curve" smooth="yes"/>
      <point x="692" y="552"/>
      <point x="663" y="498"/>
      <point x="632" y="452" type="curve"/>
      <point x="560" y="366" type="line"/>
      <point x="548" y="351" type="line" smooth="yes"/>
      <point x="358" y="114"/>
      <point x="212" y="28"/>
    </contour>
    <contour>
      <point x="637" y="873" type="curve" smooth="yes"/>
      <point x="686" y="873"/>
      <point x="736" y="917"/>
      <point x="736" y="966" type="curve" smooth="yes"/>
      <point x="736" y="1001"/>
      <point x="715" y="1029"/>
      <point x="676" y="1029" type="curve" smooth="yes"/>
      <point x="622" y="1029"/>
      <point x="577" y="981"/>
      <point x="577" y="935" type="curve" smooth="yes"/>
      <point x="577" y="899"/>
      <point x="602" y="873"/>
    </contour>
    <contour>
      <point x="936" y="873" type="curve" smooth="yes" name="hr01"/>
      <point x="985" y="873"/>
      <point x="1037" y="917"/>
      <point x="1037" y="966" type="curve" smooth="yes"/>
      <point x="1037" y="1001"/>
      <point x="1013" y="1029"/>
      <point x="976" y="1029" type="curve" smooth="yes"/>
      <point x="921" y="1029"/>
      <point x="875" y="981"/>
      <point x="875" y="935" type="curve" smooth="yes"/>
      <point x="875" y="899"/>
      <point x="900" y="873"/>
    </contour>
  </outline>
</glyph>
<glyph name="aring" format="1">
  <advance width="1028"/>
  <unicode hex="00E5"/>
  <outline>
    <contour>
      <point x="123" y="-2" type="curve" smooth="yes"/>
      <point x="202" y="-2"/>
      <point x="348" y="72"/>
      <point x="511" y="272" type="curve"/>
      <point x="521" y="268" type="line"/>
      <point x="417" y="141"/>
      <point x="400" y="106"/>
      <point x="400" y="60" type="curve" smooth="yes"/>
      <point x="400" y="21"/>
      <point x="432" y="-2"/>
      <point x="500" y="-2" type="curve" smooth="yes"/>
      <point x="703" y="-2"/>
      <point x="953" y="306"/>
      <point x="1028" y="389" type="curve"/>
      <point x="1007" y="406" type="line"/>
      <point x="940" y="331"/>
      <point x="695" y="26"/>
      <point x="515" y="26" type="curve" smooth="yes"/>
      <point x="494" y="26"/>
      <point x="484" y="39"/>
      <point x="484" y="58" type="curve" smooth="yes"/>
      <point x="484" y="93"/>
      <point x="518" y="154"/>
      <point x="604" y="255" type="curve"/>
      <point x="941" y="661" type="line"/>
      <point x="924" y="658"/>
      <point x="884" y="657"/>
      <point x="866" y="657" type="curve" smooth="yes"/>
      <point x="844" y="657"/>
      <point x="819" y="661"/>
      <point x="806" y="665" type="curve"/>
      <point x="778" y="630"/>
      <point x="750" y="594"/>
      <point x="708" y="544" type="curve"/>
      <point x="716" y="564"/>
      <point x="720" y="584"/>
      <point x="720" y="603" type="curve" smooth="yes"/>
      <point x="720" y="654"/>
      <point x="665" y="685"/>
      <point x="596" y="685" type="curve" smooth="yes"/>
      <point x="458" y="685"/>
      <point x="303" y="632"/>
      <point x="123" y="423" type="curve"/>
      <point x="35" y="323"/>
      <point x="0" y="218"/>
      <point x="0" y="129" type="curve" smooth="yes"/>
      <point x="0" y="47"/>
      <point x="37" y="-2"/>
    </contour>
    <contour>
      <point x="127" y="28" type="curve" smooth="yes"/>
      <point x="96" y="28"/>
      <point x="82" y="42"/>
      <point x="82" y="80" type="curve" smooth="yes"/>
      <point x="82" y="144"/>
      <point x="123" y="238"/>
      <point x="223" y="358" type="curve" smooth="yes"/>
      <point x="397" y="565"/>
      <point x="556" y="654"/>
      <point x="622" y="654" type="curve" smooth="yes"/>
      <point x="657" y="654"/>
      <point x="692" y="635"/>
      <point x="692" y="594" type="curve" smooth="yes"/>
      <point x="692" y="552"/>
      <point x="663" y="498"/>
      <point x="632" y="452" type="curve"/>
      <point x="560" y="366" type="line"/>
      <point x="548" y="351" type="line" smooth="yes"/>
      <point x="352" y="119"/>
      <point x="212" y="28"/>
    </contour>
    <contour>
      <point x="765" y="861" type="curve" smooth="yes" name="hr00"/>
      <point x="871" y="861"/>
      <point x="1004" y="964"/>
      <point x="1004" y="1057" type="curve" smooth="yes"/>
      <point x="1004" y="1100"/>
      <point x="975" y="1132"/>
      <point x="923" y="1132" type="curve" smooth="yes"/>
      <point x="826" y="1132"/>
      <point x="681" y="1035"/>
      <point x="681" y="936" type="curve" smooth="yes"/>
      <point x="681" y="890"/>
      <point x="708" y="861"/>
    </contour>
    <contour>
      <point x="784" y="887" type="curve" smooth="yes"/>
      <point x="752" y="887"/>
      <point x="738" y="904"/>
      <point x="738" y="939" type="curve" smooth="yes"/>
      <point x="738" y="1012"/>
      <point x="825" y="1104"/>
      <point x="906" y="1104" type="curve" smooth="yes"/>
      <point x="928" y="1104"/>
      <point x="946" y="1090"/>
      <point x="946" y="1053" type="curve" smooth="yes"/>
      <point x="946" y="974"/>
      <point x="858" y="887"/>
    </contour>
  </outline>
</glyph>
<glyph name="ae" format="1">
  <advance width="1384"/>
  <unicode hex="00E6"/>
  <outline>
    <contour>
      <point x="774" y="-6" type="curve" smooth="yes" name="hr02"/>
      <point x="1106" y="-6"/>
      <point x="1334" y="344"/>
      <point x="1384" y="389" type="curve"/>
      <point x="1362" y="406" type="line"/>
      <point x="1325" y="373"/>
      <point x="1098" y="23"/>
      <point x="785" y="23" type="curve" smooth="yes"/>
      <point x="728" y="23"/>
      <point x="678" y="59"/>
      <point x="678" y="122" type="curve" smooth="yes"/>
      <point x="678" y="165"/>
      <point x="690" y="216"/>
      <point x="737" y="291" type="curve"/>
      <point x="1136" y="423"/>
      <point x="1250" y="541"/>
      <point x="1245" y="619" type="curve" smooth="yes"/>
      <point x="1242" y="654"/>
      <point x="1214" y="685"/>
      <point x="1133" y="685" type="curve" smooth="yes"/>
      <point x="1047" y="685"/>
      <point x="928" y="644"/>
      <point x="814" y="554" type="curve"/>
      <point x="889" y="661" type="line"/>
      <point x="872" y="658"/>
      <point x="842" y="657"/>
      <point x="824" y="657" type="curve" smooth="yes"/>
      <point x="802" y="657"/>
      <point x="789" y="661"/>
      <point x="775" y="665" type="curve"/>
      <point x="756" y="640"/>
      <point x="739" y="614"/>
      <point x="718" y="583" type="curve"/>
      <point x="719" y="590"/>
      <point x="720" y="596"/>
      <point x="720" y="603" type="curve" smooth="yes"/>
      <point x="720" y="654"/>
      <point x="675" y="685"/>
      <point x="605" y="685" type="curve" smooth="yes"/>
      <point x="467" y="685"/>
      <point x="303" y="632"/>
      <point x="123" y="423" type="curve"/>
      <point x="35" y="323"/>
      <point x="0" y="218"/>
      <point x="0" y="129" type="curve" smooth="yes" name="hr01"/>
      <point x="0" y="47"/>
      <point x="37" y="-2"/>
      <point x="123" y="-2" type="curve" smooth="yes"/>
      <point x="250" y="-2"/>
      <point x="478" y="164"/>
      <point x="639" y="356" type="curve"/>
      <point x="612" y="303"/>
      <point x="587" y="227"/>
      <point x="589" y="170" type="curve" smooth="yes"/>
      <point x="593" y="71"/>
      <point x="644" y="-6"/>
    </contour>
    <contour>
      <point x="128" y="28" type="curve" smooth="yes"/>
      <point x="97" y="28"/>
      <point x="82" y="42"/>
      <point x="82" y="80" type="curve" smooth="yes"/>
      <point x="82" y="144"/>
      <point x="125" y="235"/>
      <point x="226" y="356" type="curve" smooth="yes"/>
      <point x="400" y="562"/>
      <point x="565" y="654"/>
      <point x="631" y="654" type="curve" smooth="yes"/>
      <point x="667" y="654"/>
      <point x="692" y="635"/>
      <point x="692" y="594" type="curve" smooth="yes"/>
      <point x="692" y="564"/>
      <point x="675" y="526"/>
      <point x="654" y="489" type="curve"/>
      <point x="624" y="449"/>
      <point x="588" y="401"/>
      <point x="538" y="341" type="curve" smooth="yes"/>
      <point x="342" y="108"/>
      <point x="212" y="28"/>
    </contour>
    <contour>
      <point x="760" y="327" type="curve"/>
      <point x="772" y="343"/>
      <point x="785" y="361"/>
      <point x="800" y="380" type="curve" smooth="yes"/>
      <point x="939" y="562"/>
      <point x="1036" y="661"/>
      <point x="1127" y="661" type="curve" smooth="yes"/>
      <point x="1159" y="661"/>
      <point x="1180" y="644"/>
      <point x="1180" y="605" type="curve" smooth="yes"/>
      <point x="1180" y="517"/>
      <point x="1020" y="416"/>
    </contour>
  </outline>
</glyph>
